EncodeSansExpanded-ExtraBold.ufo
<glyph name="exclam" format="2">
  <advance width="701.4949494949494"/>
  <unicode hex="0021"/>
  <outline>
    <contour>
      <point x="230.58585858585857" y="501.4545454545454" type="line"/>
      <point x="476.060606060606" y="501.4545454545454" type="line"/>
      <point x="565.3333333333333" y="981.0101010101009" type="line"/>
      <point x="565.3333333333333" y="1480.0" type="line"/>
      <point x="136.1616161616162" y="1480.0" type="line"/>
      <point x="136.1616161616162" y="981.0101010101009" type="line"/>
    </contour>
    <contour>
      <point x="350.7474747474747" y="-18.58585858585858" type="curve" smooth="yes"/>
      <point x="512.1010101010099" y="-18.58585858585858"/>
      <point x="608.5050505050503" y="65.5151515151515"/>
      <point x="608.5050505050503" y="192.80808080808075" type="curve" smooth="yes"/>
      <point x="608.5050505050503" y="320.10101010101"/>
      <point x="515.5353535353534" y="404.4848484848484"/>
      <point x="350.7474747474747" y="404.4848484848484" type="curve" smooth="yes"/>
      <point x="185.95959595959596" y="404.4848484848484"/>
      <point x="92.98989898989902" y="323.53535353535347"/>
      <point x="92.98989898989902" y="192.80808080808075" type="curve" smooth="yes"/>
      <point x="92.98989898989902" y="62.08080808080806"/>
      <point x="189.3939393939394" y="-18.58585858585858"/>
    </contour>
  </outline>
</glyph>
<glyph name="quotedbl" format="2">
  <advance width="1074.5656565656564"/>
  <unicode hex="0022"/>
  <outline>
    <contour>
      <point x="156.22222222222223" y="808.3232323232323" type="line"/>
      <point x="402.28282828282823" y="808.3232323232323" type="line"/>
      <point x="473.79797979797974" y="1616.0" type="line"/>
      <point x="84.70707070707076" y="1616.0" type="line"/>
    </contour>
    <contour>
      <point x="672.2828282828282" y="808.3232323232323" type="line"/>
      <point x="918.3434343434342" y="808.3232323232323" type="line"/>
      <point x="989.8585858585857" y="1616.0" type="line"/>
      <point x="600.7676767676767" y="1616.0" type="line"/>
    </contour>
  </outline>
</glyph>
<glyph name="dollar" format="2">
  <advance width="1346.3232323232323"/>
  <unicode hex="0024"/>
  <outline>
    <contour>
      <point x="590.989898989899" y="-19.717171717171716" type="curve" smooth="yes"/>
      <point x="1021.131313131313" y="-19.717171717171716"/>
      <point x="1276.949494949495" y="160.06060606060606"/>
      <point x="1276.949494949495" y="454.4040404040404" type="curve" smooth="yes"/>
      <point x="1276.949494949495" y="681.2929292929292"/>
      <point x="1145.5151515151515" y="826.7676767676767"/>
      <point x="779.4343434343434" y="897.3535353535353" type="curve" smooth="yes"/>
      <point x="645.6161616161615" y="923.3737373737373" type="line" smooth="yes"/>
      <point x="513.8383838383837" y="949.6161616161615"/>
      <point x="479.65656565656553" y="980.9494949494949"/>
      <point x="479.65656565656553" y="1046.1818181818182" type="curve" smooth="yes"/>
      <point x="479.65656565656553" y="1125.3939393939395"/>
      <point x="550.6666666666665" y="1179.5757575757577"/>
      <point x="812.3232323232322" y="1179.5757575757577" type="curve" smooth="yes"/>
      <point x="938.0404040404039" y="1179.5757575757577"/>
      <point x="1090.949494949495" y="1159.858585858586"/>
      <point x="1194.3434343434342" y="1130.4444444444446" type="curve"/>
      <point x="1194.3434343434342" y="1456.020202020202" type="line"/>
      <point x="1087.212121212121" y="1481.7171717171718"/>
      <point x="945.7575757575758" y="1499.7171717171718"/>
      <point x="792.2828282828282" y="1499.7171717171718" type="curve" smooth="yes"/>
      <point x="305.19191919191917" y="1499.7171717171718"/>
      <point x="69.37373737373738" y="1330.2626262626263"/>
      <point x="69.37373737373738" y="1031.878787878788" type="curve" smooth="yes"/>
      <point x="69.37373737373738" y="797.8383838383838"/>
      <point x="201.0909090909091" y="656.6666666666667"/>
      <point x="535.4545454545455" y="592.0808080808081" type="curve" smooth="yes"/>
      <point x="669.2727272727273" y="566.0606060606061" type="line" smooth="yes"/>
      <point x="826.5050505050506" y="536.1010101010102"/>
      <point x="866.6666666666667" y="504.1818181818182"/>
      <point x="866.6666666666667" y="433.5151515151515" type="curve" smooth="yes"/>
      <point x="866.6666666666667" y="351.1717171717171"/>
      <point x="808.8282828282828" y="300.4242424242423"/>
      <point x="587.8383838383838" y="300.4242424242423" type="curve" smooth="yes"/>
      <point x="463.25252525252523" y="300.4242424242423"/>
      <point x="248.54545454545456" y="325.2929292929292"/>
      <point x="107.97979797979798" y="369.85858585858574" type="curve"/>
      <point x="107.97979797979798" y="44.282828282828284" type="line"/>
      <point x="248.0" y="5.4343434343434325"/>
      <point x="410.6060606060606" y="-19.717171717171716"/>
    </contour>
    <contour>
      <point x="479.03030303030306" y="-240.0" type="line"/>
      <point x="865.8585858585858" y="-240.0" type="line"/>
      <point x="865.8585858585858" y="51.5151515151515" type="line"/>
      <point x="479.03030303030306" y="51.515151515151494" type="line"/>
    </contour>
    <contour>
      <point x="479.03030303030306" y="1428.4848484848485" type="line"/>
      <point x="865.8585858585858" y="1428.4848484848485" type="line"/>
      <point x="865.8585858585858" y="1720.0" type="line"/>
      <point x="479.03030303030306" y="1720.0" type="line"/>
    </contour>
  </outline>
</glyph>
<glyph name="percent" format="2">
  <advance width="2425.5353535353534"/>
  <unicode hex="0025"/>
  <note>
450
</note>
  <outline>
    <contour>
      <point x="681.4343434343434" y="0.0" type="line"/>
      <point x="1016.4444444444442" y="0.0" type="line"/>
      <point x="1744.1010101010097" y="1480.0" type="line"/>
      <point x="1409.090909090909" y="1480.0" type="line"/>
    </contour>
    <contour>
      <point x="558.7272727272727" y="567.6969696969697" type="curve" smooth="yes"/>
      <point x="831.151515151515" y="567.6969696969697"/>
      <point x="1020.9494949494948" y="735.1919191919192"/>
      <point x="1020.9494949494948" y="1032.8484848484848" type="curve" smooth="yes"/>
      <point x="1020.9494949494948" y="1330.5050505050506"/>
      <point x="831.7171717171716" y="1499.7171717171718"/>
      <point x="558.7272727272727" y="1499.7171717171718" type="curve" smooth="yes"/>
      <point x="285.73737373737373" y="1499.7171717171718"/>
      <point x="96.50505050505052" y="1330.5050505050506"/>
      <point x="96.50505050505052" y="1032.8484848484848" type="curve" smooth="yes"/>
      <point x="96.50505050505052" y="735.1919191919192"/>
      <point x="286.3030303030303" y="567.6969696969697"/>
    </contour>
    <contour>
      <point x="558.7272727272727" y="810.2828282828282" type="curve" smooth="yes"/>
      <point x="471.41414141414134" y="810.2828282828282"/>
      <point x="406.62626262626253" y="873.6363636363636"/>
      <point x="406.62626262626253" y="1033.1313131313132" type="curve" smooth="yes"/>
      <point x="406.62626262626253" y="1192.6262626262626"/>
      <point x="471.41414141414134" y="1257.1313131313132"/>
      <point x="558.7272727272727" y="1257.1313131313132" type="curve" smooth="yes"/>
      <point x="645.7575757575758" y="1257.1313131313132"/>
      <point x="710.8282828282828" y="1192.6262626262626"/>
      <point x="710.8282828282828" y="1032.5656565656566" type="curve" smooth="yes"/>
      <point x="710.8282828282828" y="872.5050505050505"/>
      <point x="645.7575757575758" y="810.2828282828282"/>
    </contour>
    <contour>
      <point x="1866.8080808080806" y="-18.0" type="curve" smooth="yes"/>
      <point x="2139.232323232323" y="-18.0"/>
      <point x="2329.030303030303" y="149.49494949494948"/>
      <point x="2329.030303030303" y="447.1515151515151" type="curve" smooth="yes"/>
      <point x="2329.030303030303" y="744.8080808080808"/>
      <point x="2139.7979797979797" y="914.020202020202"/>
      <point x="1866.8080808080806" y="914.020202020202" type="curve" smooth="yes"/>
      <point x="1593.8181818181815" y="914.020202020202"/>
      <point x="1404.5858585858584" y="744.8080808080808"/>
      <point x="1404.5858585858584" y="447.1515151515151" type="curve" smooth="yes"/>
      <point x="1404.5858585858584" y="149.49494949494948"/>
      <point x="1594.3838383838383" y="-18.0"/>
    </contour>
    <contour>
      <point x="1866.8080808080806" y="224.5858585858585" type="curve" smooth="yes"/>
      <point x="1779.7777777777776" y="224.5858585858585"/>
      <point x="1714.7070707070704" y="287.9393939393939"/>
      <point x="1714.7070707070704" y="447.4343434343434" type="curve" smooth="yes"/>
      <point x="1714.7070707070704" y="606.929292929293"/>
      <point x="1779.7777777777776" y="671.4343434343435"/>
      <point x="1866.8080808080806" y="671.4343434343435" type="curve" smooth="yes"/>
      <point x="1953.8383838383836" y="671.4343434343435"/>
      <point x="2018.9090909090908" y="606.929292929293"/>
      <point x="2018.9090909090908" y="446.8686868686869" type="curve" smooth="yes"/>
      <point x="2018.9090909090908" y="286.8080808080807"/>
      <point x="1953.8383838383836" y="224.5858585858585"/>
    </contour>
  </outline>
</glyph>
<glyph name="ampersand" format="2">
  <advance width="1814.040404040404"/>
  <unicode hex="0026"/>
  <outline>
    <contour>
      <point x="1654.4040404040404" y="-20.0" type="line"/>
      <point x="1814.040404040404" y="270.9696969696969" type="line"/>
      <point x="826.10101010101" y="830.8888888888888" type="line" smooth="yes"/>
      <point x="710.080808080808" y="901.5353535353535"/>
      <point x="670.9696969696969" y="949.4545454545455"/>
      <point x="670.9696969696969" y="1014.4444444444445" type="curve" smooth="yes"/>
      <point x="670.9696969696969" y="1111.959595959596"/>
      <point x="739.151515151515" y="1179.5757575757577"/>
      <point x="1003.3535353535353" y="1179.5757575757577" type="curve" smooth="yes"/>
      <point x="1098.181818181818" y="1179.5757575757577"/>
      <point x="1200.7676767676767" y="1167.2929292929293"/>
      <point x="1275.6161616161617" y="1151.878787878788" type="curve"/>
      <point x="1275.6161616161617" y="1477.4545454545455" type="line"/>
      <point x="1187.878787878788" y="1490.8686868686868"/>
      <point x="1091.878787878788" y="1499.7171717171718"/>
      <point x="976.1616161616162" y="1499.7171717171718" type="curve" smooth="yes"/>
      <point x="490.22222222222223" y="1499.7171717171718"/>
      <point x="260.6868686868687" y="1321.959595959596"/>
      <point x="260.6868686868687" y="1033.3333333333333" type="curve" smooth="yes"/>
      <point x="260.6868686868687" y="882.2424242424242"/>
      <point x="331.51515151515156" y="729.3333333333334"/>
      <point x="666.4646464646465" y="539.9191919191919" type="curve" smooth="yes"/>
    </contour>
    <contour>
      <point x="787.1919191919192" y="-18.0" type="curve" smooth="yes"/>
      <point x="1270.20202020202" y="-18.0"/>
      <point x="1550.6060606060605" y="204.9292929292929"/>
      <point x="1550.6060606060605" y="639.131313131313" type="curve" smooth="yes"/>
      <point x="1550.6060606060605" y="714.8080808080807"/>
      <point x="1538.040404040404" y="803.9393939393939"/>
      <point x="1516.060606060606" y="885.3535353535353" type="curve"/>
      <point x="1198.7878787878788" y="885.3535353535353" type="line"/>
      <point x="1220.7676767676767" y="803.9393939393939"/>
      <point x="1235.6161616161617" y="712.5252525252524"/>
      <point x="1235.6161616161617" y="635.9797979797979" type="curve" smooth="yes"/>
      <point x="1235.6161616161617" y="350.5454545454545"/>
      <point x="1066.7878787878788" y="255.77777777777771"/>
      <point x="835.5555555555555" y="255.77777777777771" type="curve" smooth="yes"/>
      <point x="634.1414141414141" y="255.77777777777771"/>
      <point x="525.8989898989898" y="327.35353535353534"/>
      <point x="525.8989898989898" y="447.2121212121212" type="curve" smooth="yes"/>
      <point x="525.8989898989898" y="537.3737373737374"/>
      <point x="572.121212121212" y="600.7070707070708"/>
      <point x="645.3535353535353" y="650.6666666666667" type="curve"/>
      <point x="431.6363636363636" y="791.0909090909091" type="line"/>
      <point x="255.6767676767677" y="739.7171717171717"/>
      <point x="115.61616161616163" y="600.5858585858585"/>
      <point x="115.61616161616163" y="405.1515151515151" type="curve" smooth="yes"/>
      <point x="115.61616161616163" y="149.6969696969697"/>
      <point x="337.6969696969697" y="-18.0"/>
    </contour>
  </outline>
</glyph>
<glyph name="quotesingle" format="2">
  <advance width="558.5050505050505"/>
  <unicode hex="0027"/>
  <outline>
    <contour>
      <point x="156.22222222222223" y="808.3232323232323" type="line"/>
      <point x="402.28282828282823" y="808.3232323232323" type="line"/>
      <point x="473.79797979797974" y="1616.0" type="line"/>
      <point x="84.70707070707076" y="1616.0" type="line"/>
    </contour>
  </outline>
</glyph>
<glyph name="parenleft" format="2">
  <advance width="815.8989898989898"/>
  <unicode hex="0028"/>
  <outline>
    <contour>
      <point x="524.5454545454545" y="-440.0" type="curve"/>
      <point x="964.5656565656565" y="-440.0" type="line"/>
      <point x="642.2222222222222" y="-129.43434343434342"/>
      <point x="523.6363636363635" y="178.50505050505052"/>
      <point x="523.6363636363635" y="588.0" type="curve" smooth="yes"/>
      <point x="523.6363636363635" y="997.4949494949494"/>
      <point x="642.2222222222222" y="1305.4343434343434"/>
      <point x="964.5656565656565" y="1616.0" type="curve"/>
      <point x="524.5454545454545" y="1616.0" type="line"/>
      <point x="225.91919191919195" y="1357.4949494949494"/>
      <point x="111.63636363636365" y="996.6262626262626"/>
      <point x="111.63636363636365" y="588.0" type="curve" smooth="yes"/>
      <point x="111.63636363636365" y="179.37373737373738"/>
      <point x="225.91919191919195" y="-181.49494949494948"/>
    </contour>
  </outline>
</glyph>
<glyph name="parenright" format="2">
  <advance width="815.8989898989898"/>
  <unicode hex="0029"/>
  <outline>
    <contour>
      <point x="-148.66666666666657" y="-440.0" type="curve"/>
      <point x="291.3535353535353" y="-440.0" type="line"/>
      <point x="589.9797979797979" y="-181.49494949494948"/>
      <point x="704.2626262626262" y="179.37373737373738"/>
      <point x="704.2626262626262" y="588.0" type="curve" smooth="yes"/>
      <point x="704.2626262626262" y="996.6262626262626"/>
      <point x="589.9797979797979" y="1357.4949494949494"/>
      <point x="291.3535353535353" y="1616.0" type="curve"/>
      <point x="-148.66666666666657" y="1616.0" type="line"/>
      <point x="173.67676767676775" y="1305.4343434343434"/>
      <point x="292.2626262626263" y="997.4949494949494"/>
      <point x="292.2626262626263" y="588.0" type="curve" smooth="yes"/>
      <point x="292.2626262626263" y="178.50505050505052"/>
      <point x="173.67676767676775" y="-129.43434343434342"/>
    </contour>
  </outline>
</glyph>
<glyph name="asterisk" format="2">
  <advance width="1086.5858585858587"/>
  <unicode hex="002A"/>
  <outline>
    <contour>
      <point x="698.0808080808081" y="1119.5757575757575" type="line"/>
      <point x="868.6060606060605" y="1138.3838383838383" type="line"/>
      <point x="1056.5858585858587" y="1198.949494949495" type="line"/>
      <point x="978.2020202020201" y="1439.2525252525252" type="line"/>
      <point x="790.5050505050505" y="1378.6868686868686" type="line"/>
      <point x="631.4141414141413" y="1285.2323232323233" type="line"/>
      <point x="669.7373737373737" y="1466.909090909091" type="line"/>
      <point x="669.7373737373737" y="1616.0" type="line"/>
      <point x="416.8484848484849" y="1616.0" type="line"/>
      <point x="416.8484848484849" y="1466.909090909091" type="line"/>
      <point x="455.17171717171715" y="1285.2323232323233" type="line"/>
      <point x="296.0808080808081" y="1378.6868686868686" type="line"/>
      <point x="108.38383838383837" y="1439.2525252525252" type="line"/>
      <point x="30.0" y="1198.949494949495" type="line"/>
      <point x="217.97979797979798" y="1138.3838383838383" type="line"/>
      <point x="388.5050505050505" y="1119.5757575757575" type="line"/>
      <point x="256.5050505050505" y="999.6363636363636" type="line"/>
      <point x="164.82828282828282" y="871.3939393939394" type="line"/>
      <point x="369.6565656565656" y="723.4949494949495" type="line"/>
      <point x="461.3333333333333" y="850.0202020202021" type="line"/>
      <point x="543.2929292929293" y="1036.0404040404042" type="line"/>
      <point x="625.2525252525252" y="850.0202020202021" type="line"/>
      <point x="716.929292929293" y="723.4949494949495" type="line"/>
      <point x="921.7575757575756" y="871.3939393939394" type="line"/>
      <point x="830.080808080808" y="999.6363636363636" type="line"/>
    </contour>
  </outline>
</glyph>
<glyph name="plus" format="2">
  <advance width="1183.5555555555554"/>
  <unicode hex="002B"/>
  <outline>
    <contour>
      <point x="434.1414141414142" y="285.2727272727273" type="line"/>
      <point x="749.4141414141413" y="285.2727272727273" type="line"/>
      <point x="749.4141414141413" y="609.5151515151516" type="line"/>
      <point x="1058.8080808080808" y="609.5151515151516" type="line"/>
      <point x="1058.8080808080808" y="910.4848484848484" type="line"/>
      <point x="749.4141414141413" y="910.4848484848484" type="line"/>
      <point x="749.4141414141413" y="1234.7272727272727" type="line"/>
      <point x="434.1414141414142" y="1234.7272727272727" type="line"/>
      <point x="434.1414141414142" y="910.4848484848484" type="line"/>
      <point x="124.74747474747477" y="910.4848484848484" type="line"/>
      <point x="124.74747474747477" y="609.5151515151516" type="line"/>
      <point x="434.1414141414142" y="609.5151515151516" type="line"/>
    </contour>
  </outline>
</glyph>
<glyph name="hyphen" format="2">
  <advance width="1117.4747474747473"/>
  <unicode hex="002D"/>
  <outline>
    <contour>
      <point x="124.74747474747477" y="404.36363636363643" type="line"/>
      <point x="992.7272727272726" y="404.36363636363643" type="line"/>
      <point x="992.7272727272726" y="732.8080808080807" type="line"/>
      <point x="124.74747474747477" y="732.8080808080807" type="line"/>
    </contour>
  </outline>
</glyph>
<glyph name="period" format="2">
  <advance width="661.4949494949494"/>
  <unicode hex="002E"/>
  <outline>
    <contour>
      <point x="330.7474747474747" y="-18.58585858585858" type="curve" smooth="yes"/>
      <point x="492.10101010101" y="-18.58585858585858"/>
      <point x="588.5050505050503" y="72.38383838383837"/>
      <point x="588.5050505050503" y="209.97979797979792" type="curve" smooth="yes"/>
      <point x="588.5050505050503" y="347.57575757575745"/>
      <point x="495.5353535353534" y="438.8282828282827"/>
      <point x="330.7474747474747" y="438.8282828282827" type="curve" smooth="yes"/>
      <point x="165.95959595959596" y="438.8282828282827"/>
      <point x="72.98989898989902" y="351.01010101010087"/>
      <point x="72.98989898989902" y="209.97979797979792" type="curve" smooth="yes"/>
      <point x="72.98989898989902" y="68.94949494949492"/>
      <point x="169.3939393939394" y="-18.58585858585858"/>
    </contour>
  </outline>
</glyph>
<glyph name="slash" format="2">
  <advance width="995.4949494949493"/>
  <unicode hex="002F"/>
  <outline>
    <contour>
      <point x="0.0" y="-240.0" type="line"/>
      <point x="409.71717171717154" y="-240.0" type="line"/>
      <point x="995.4949494949493" y="1616.0" type="line"/>
      <point x="585.7777777777778" y="1616.0" type="line"/>
    </contour>
  </outline>
</glyph>
<glyph name="zero" format="2">
  <advance width="1543.7373737373737"/>
  <unicode hex="0030"/>
  <note>
600
</note>
  <outline>
    <contour>
      <point x="771.0101010101009" y="-19.717171717171716" type="curve" smooth="yes"/>
      <point x="1178.5858585858584" y="-19.717171717171716"/>
      <point x="1442.10101010101" y="230.08080808080805"/>
      <point x="1442.10101010101" y="740.0" type="curve" smooth="yes"/>
      <point x="1442.10101010101" y="1249.919191919192"/>
      <point x="1179.4343434343434" y="1499.7171717171718"/>
      <point x="771.0101010101009" y="1499.7171717171718" type="curve" smooth="yes"/>
      <point x="362.58585858585855" y="1499.7171717171718"/>
      <point x="101.63636363636365" y="1249.919191919192"/>
      <point x="101.63636363636365" y="740.0" type="curve" smooth="yes"/>
      <point x="101.63636363636365" y="230.08080808080805"/>
      <point x="363.4343434343434" y="-19.717171717171716"/>
    </contour>
    <contour>
      <point x="772.7272727272727" y="314.16161616161605" type="curve" smooth="yes"/>
      <point x="606.6262626262626" y="314.16161616161605"/>
      <point x="508.4848484848484" y="415.4949494949494"/>
      <point x="508.4848484848484" y="740.5656565656566" type="curve" smooth="yes"/>
      <point x="508.4848484848484" y="1064.5050505050506"/>
      <point x="610.060606060606" y="1165.8383838383838"/>
      <point x="772.7272727272727" y="1165.8383838383838" type="curve" smooth="yes"/>
      <point x="933.6767676767677" y="1165.8383838383838"/>
      <point x="1035.2525252525252" y="1064.5050505050506"/>
      <point x="1035.2525252525252" y="739.4343434343434" type="curve" smooth="yes"/>
      <point x="1035.2525252525252" y="415.4949494949494"/>
      <point x="933.6767676767677" y="314.16161616161605"/>
    </contour>
  </outline>
</glyph>
<glyph name="one" format="2">
  <advance width="1032.6868686868686"/>
  <unicode hex="0031"/>
  <outline>
    <contour>
      <point x="462.22222222222223" y="0.0" type="line"/>
      <point x="880.5252525252524" y="0.0" type="line"/>
      <point x="880.5252525252524" y="1485.7171717171718" type="line"/>
      <point x="599.2727272727273" y="1485.7171717171718" type="line"/>
      <point x="46.606060606060595" y="1088.7878787878788" type="line"/>
      <point x="46.606060606060595" y="701.4141414141416" type="line"/>
      <point x="599.2727272727273" y="1097.7777777777778" type="line"/>
      <point x="462.22222222222223" y="1267.4747474747476" type="line"/>
    </contour>
  </outline>
</glyph>
<glyph name="two" format="2">
  <advance width="1251.7373737373737"/>
  <unicode hex="0032"/>
  <outline>
    <contour>
      <point x="52.80808080808082" y="0.0" type="line"/>
      <point x="1194.060606060606" y="0.0" type="line"/>
      <point x="1194.060606060606" y="325.0101010101009" type="line"/>
      <point x="510.88888888888874" y="325.0101010101009" type="line"/>
      <point x="511.151515151515" y="218.58585858585852" type="line"/>
      <point x="879.5959595959595" y="588.9090909090909" type="line" smooth="yes"/>
      <point x="1054.6868686868686" y="765.3737373737374"/>
      <point x="1117.5353535353534" y="901.0909090909091"/>
      <point x="1117.5353535353534" y="1058.2020202020203" type="curve" smooth="yes"/>
      <point x="1117.5353535353534" y="1355.111111111111"/>
      <point x="916.0404040404039" y="1499.7171717171718"/>
      <point x="458.04040404040404" y="1499.7171717171718" type="curve" smooth="yes"/>
      <point x="315.47474747474746" y="1499.7171717171718"/>
      <point x="134.80808080808083" y="1470.8484848484848"/>
      <point x="34.80808080808082" y="1439.7171717171718" type="curve"/>
      <point x="34.80808080808082" y="1114.1414141414143" type="line"/>
      <point x="133.35353535353536" y="1149.2727272727275"/>
      <point x="284.26262626262627" y="1179.5757575757577"/>
      <point x="427.13131313131316" y="1179.5757575757577" type="curve" smooth="yes"/>
      <point x="636.2020202020202" y="1179.5757575757577"/>
      <point x="707.5353535353536" y="1123.939393939394"/>
      <point x="707.5353535353536" y="1011.2727272727273" type="curve" smooth="yes"/>
      <point x="707.5353535353536" y="932.2424242424242"/>
      <point x="664.1414141414142" y="854.9090909090909"/>
      <point x="531.3737373737374" y="715.8989898989898" type="curve" smooth="yes"/>
      <point x="52.80808080808082" y="213.43434343434336" type="line"/>
    </contour>
  </outline>
</glyph>
<glyph name="three" format="2">
  <advance width="1260.3030303030303"/>
  <unicode hex="0033"/>
  <outline>
    <contour>
      <point x="518.1212121212121" y="-19.717171717171716" type="curve" smooth="yes"/>
      <point x="994.2828282828282" y="-19.717171717171716"/>
      <point x="1188.8888888888887" y="154.02020202020202"/>
      <point x="1188.8888888888887" y="421.17171717171715" type="curve" smooth="yes"/>
      <point x="1188.8888888888887" y="628.8686868686868"/>
      <point x="1058.3434343434342" y="739.1111111111111"/>
      <point x="855.3131313131312" y="770.2626262626262" type="curve"/>
      <point x="855.3131313131312" y="755.7171717171717" type="line"/>
      <point x="1025.232323232323" y="794.2828282828283"/>
      <point x="1135.171717171717" y="917.4141414141415"/>
      <point x="1135.171717171717" y="1083.919191919192" type="curve" smooth="yes"/>
      <point x="1135.171717171717" y="1346.2626262626263"/>
      <point x="934.2626262626262" y="1499.7171717171718"/>
      <point x="511.75757575757575" y="1499.7171717171718" type="curve" smooth="yes"/>
      <point x="368.020202020202" y="1499.7171717171718"/>
      <point x="194.50505050505052" y="1474.8484848484848"/>
      <point x="85.37373737373738" y="1440.5656565656566" type="curve"/>
      <point x="85.37373737373738" y="1147.6161616161617" type="line"/>
      <point x="201.0707070707071" y="1185.89898989899"/>
      <point x="348.82828282828285" y="1208.767676767677"/>
      <point x="473.6969696969697" y="1208.767676767677" type="curve" smooth="yes"/>
      <point x="660.4444444444445" y="1208.767676767677"/>
      <point x="737.1919191919193" y="1150.0"/>
      <point x="737.1919191919193" y="1052.7272727272727" type="curve" smooth="yes"/>
      <point x="737.1919191919193" y="958.3838383838383"/>
      <point x="667.3737373737374" y="902.1818181818181"/>
      <point x="454.1212121212121" y="902.1818181818181" type="curve" smooth="yes"/>
      <point x="221.85858585858588" y="902.1818181818181" type="line"/>
      <point x="221.85858585858588" y="609.5151515151515" type="line"/>
      <point x="510.0" y="609.5151515151515" type="line" smooth="yes"/>
      <point x="731.89898989899" y="609.5151515151515"/>
      <point x="802.929292929293" y="551.89898989899"/>
      <point x="802.929292929293" y="445.4949494949495" type="curve" smooth="yes"/>
      <point x="802.929292929293" y="335.9797979797979"/>
      <point x="718.4646464646464" y="271.23232323232315"/>
      <point x="494.6464646464646" y="271.23232323232315" type="curve" smooth="yes"/>
      <point x="343.73737373737373" y="271.23232323232315"/>
      <point x="182.26262626262627" y="296.6666666666666"/>
      <point x="55.41414141414142" y="328.64646464646455" type="curve"/>
      <point x="55.41414141414142" y="35.6969696969697" type="line"/>
      <point x="188.86868686868686" y="2.2828282828282833"/>
      <point x="346.04040404040404" y="-19.717171717171716"/>
    </contour>
  </outline>
</glyph>
<glyph name="four" format="2">
  <advance width="1459.4747474747473"/>
  <unicode hex="0034"/>
  <outline>
    <contour>
      <point x="37.393939393939405" y="274.10101010101016" type="line"/>
      <point x="1424.9292929292928" y="274.10101010101016" type="line"/>
      <point x="1424.9292929292928" y="592.2424242424242" type="line"/>
      <point x="407.9191919191918" y="592.2424242424242" type="line"/>
      <point x="441.3737373737372" y="494.1212121212121" type="line"/>
      <point x="984.2626262626262" y="1480.0" type="line"/>
      <point x="583.4343434343435" y="1480.0" type="line"/>
      <point x="37.393939393939405" y="494.40404040404036" type="line"/>
    </contour>
    <contour>
      <point x="845.6161616161617" y="0.0" type="line"/>
      <point x="1220.9898989898988" y="0.0" type="line"/>
      <point x="1220.9898989898988" y="980.0" type="line"/>
      <point x="881.939393939394" y="980.0" type="line"/>
      <point x="845.6161616161617" y="592.2424242424242" type="line"/>
    </contour>
  </outline>
</glyph>
<glyph name="five" format="2">
  <advance width="1273.151515151515"/>
  <unicode hex="0035"/>
  <outline>
    <contour>
      <point x="542.6868686868686" y="-19.717171717171716" type="curve" smooth="yes"/>
      <point x="1002.8484848484848" y="-19.717171717171716"/>
      <point x="1213.4545454545453" y="152.6060606060606"/>
      <point x="1215.171717171717" y="451.4949494949495" type="curve" smooth="yes"/>
      <point x="1216.8888888888887" y="735.2525252525252"/>
      <point x="1026.0" y="894.7272727272727"/>
      <point x="497.33333333333326" y="919.2929292929292" type="curve" smooth="yes"/>
      <point x="245.25252525252523" y="931.2929292929292" type="line"/>
      <point x="527.3535353535353" y="794.5656565656566" type="line"/>
      <point x="568.2020202020201" y="1353.5757575757575" type="line"/>
      <point x="392.82828282828274" y="1182.4646464646466" type="line"/>
      <point x="1149.7373737373737" y="1182.4646464646466" type="line"/>
      <point x="1149.7373737373737" y="1480.0" type="line"/>
      <point x="186.52525252525254" y="1480.0" type="line"/>
      <point x="129.37373737373738" y="643.7777777777778" type="line"/>
      <point x="381.45454545454544" y="631.7777777777778" type="line" smooth="yes"/>
      <point x="748.1818181818182" y="612.6464646464647"/>
      <point x="827.4949494949495" y="556.4444444444445"/>
      <point x="827.4949494949495" y="448.06060606060606" type="curve" smooth="yes"/>
      <point x="827.4949494949495" y="341.43434343434336"/>
      <point x="741.3333333333334" y="278.10101010101005"/>
      <point x="519.2121212121212" y="278.10101010101005" type="curve" smooth="yes"/>
      <point x="367.73737373737373" y="278.10101010101005"/>
      <point x="206.26262626262627" y="303.53535353535347"/>
      <point x="79.97979797979798" y="335.5151515151514" type="curve"/>
      <point x="79.97979797979798" y="42.56565656565657" type="line"/>
      <point x="213.15151515151516" y="6.0"/>
      <point x="370.32323232323233" y="-19.717171717171716"/>
    </contour>
  </outline>
</glyph>
<glyph name="six" format="2">
  <advance width="1438.3434343434342"/>
  <unicode hex="0036"/>
  <outline>
    <contour>
      <point x="780.1414141414141" y="-19.717171717171716" type="curve" smooth="yes"/>
      <point x="1163.1919191919192" y="-19.717171717171716"/>
      <point x="1374.0808080808079" y="170.08080808080805"/>
      <point x="1374.0808080808079" y="450.0808080808081" type="curve" smooth="yes"/>
      <point x="1374.0808080808079" y="768.1414141414141"/>
      <point x="1160.6060606060605" y="906.989898989899"/>
      <point x="844.0404040404039" y="906.989898989899" type="curve" smooth="yes"/>
      <point x="698.060606060606" y="906.989898989899"/>
      <point x="541.2323232323231" y="865.5757575757575"/>
      <point x="455.2727272727272" y="800.7474747474747" type="curve"/>
      <point x="455.2727272727272" y="537.8585858585859" type="line"/>
      <point x="543.5151515151515" y="596.3636363636364"/>
      <point x="652.5252525252524" y="626.3434343434344"/>
      <point x="759.3333333333333" y="626.3434343434344" type="curve" smooth="yes"/>
      <point x="911.1111111111111" y="626.3434343434344"/>
      <point x="1000.1414141414142" y="568.4444444444445"/>
      <point x="1000.1414141414142" y="441.2121212121212" type="curve" smooth="yes"/>
      <point x="1000.1414141414142" y="322.84848484848476"/>
      <point x="917.4141414141415" y="260.92929292929284"/>
      <point x="780.1414141414141" y="260.92929292929284" type="curve" smooth="yes"/>
      <point x="612.6464646464646" y="260.92929292929284"/>
      <point x="512.4848484848484" y="349.35353535353534"/>
      <point x="512.4848484848484" y="626.7474747474748" type="curve" smooth="yes"/>
      <point x="512.4848484848484" y="805.3131313131313" type="line" smooth="yes"/>
      <point x="512.4848484848484" y="1052.0404040404042"/>
      <point x="646.3838383838383" y="1201.89898989899"/>
      <point x="950.8282828282828" y="1201.89898989899" type="curve" smooth="yes"/>
      <point x="1060.8686868686868" y="1201.89898989899"/>
      <point x="1187.171717171717" y="1183.0303030303032"/>
      <point x="1288.909090909091" y="1145.3131313131314" type="curve"/>
      <point x="1288.909090909091" y="1445.1313131313132" type="line"/>
      <point x="1177.151515151515" y="1486.0"/>
      <point x="1060.5656565656566" y="1499.7171717171718"/>
      <point x="921.3535353535353" y="1499.7171717171718" type="curve" smooth="yes"/>
      <point x="388.3030303030303" y="1499.7171717171718"/>
      <point x="111.07070707070709" y="1204.8080808080808"/>
      <point x="111.07070707070709" y="683.6969696969697" type="curve" smooth="yes"/>
      <point x="111.07070707070709" y="213.47474747474746"/>
      <point x="378.6060606060606" y="-19.717171717171716"/>
    </contour>
  </outline>
</glyph>
<glyph name="seven" format="2">
  <advance width="1192.3232323232323"/>
  <unicode hex="0037"/>
  <outline>
    <contour>
      <point x="202.0" y="0.0" type="line"/>
      <point x="626.5858585858584" y="0.0" type="line"/>
      <point x="1133.7575757575758" y="1266.5656565656566" type="line"/>
      <point x="1133.7575757575758" y="1480.0" type="line"/>
      <point x="12.565656565656568" y="1480.0" type="line"/>
      <point x="12.565656565656568" y="1154.989898989899" type="line"/>
      <point x="873.1313131313132" y="1154.989898989899" type="line"/>
      <point x="740.3636363636364" y="1266.848484848485" type="line"/>
    </contour>
  </outline>
</glyph>
<glyph name="eight" format="2">
  <advance width="1543.7373737373737"/>
  <unicode hex="0038"/>
  <outline>
    <contour>
      <point x="774.1414141414141" y="-19.717171717171716" type="curve" smooth="yes"/>
      <point x="1252.6464646464647" y="-19.717171717171716"/>
      <point x="1449.7979797979797" y="183.5151515151515"/>
      <point x="1449.7979797979797" y="424.0808080808081" type="curve" smooth="yes"/>
      <point x="1449.7979797979797" y="637.2323232323232"/>
      <point x="1324.4040404040402" y="783.8383838383838"/>
      <point x="900.3030303030303" y="876.4646464646464" type="curve" smooth="yes"/>
      <point x="577.4747474747473" y="946.2020202020201"/>
      <point x="522.7272727272726" y="996.969696969697"/>
      <point x="522.7272727272726" y="1089.6565656565656" type="curve" smooth="yes"/>
      <point x="522.7272727272726" y="1164.888888888889"/>
      <point x="592.3232323232322" y="1229.3737373737374"/>
      <point x="792.2020202020202" y="1229.3737373737374" type="curve" smooth="yes"/>
      <point x="967.7575757575758" y="1229.3737373737374"/>
      <point x="1047.050505050505" y="1173.1717171717173"/>
      <point x="1047.050505050505" y="1079.0707070707072" type="curve" smooth="yes"/>
      <point x="1047.050505050505" y="990.3636363636364"/>
      <point x="990.5454545454545" y="916.4242424242424"/>
      <point x="838.3838383838383" y="850.1616161616162" type="curve"/>
      <point x="1076.10101010101" y="761.2121212121212" type="line"/>
      <point x="1323.5959595959594" y="834.929292929293"/>
      <point x="1406.9696969696968" y="972.3636363636364"/>
      <point x="1406.9696969696968" y="1129.1515151515152" type="curve" smooth="yes"/>
      <point x="1406.9696969696968" y="1361.4343434343434"/>
      <point x="1195.4949494949494" y="1499.7171717171718"/>
      <point x="804.5050505050505" y="1499.7171717171718" type="curve" smooth="yes"/>
      <point x="339.0909090909091" y="1499.7171717171718"/>
      <point x="133.05050505050508" y="1318.5050505050506"/>
      <point x="133.05050505050508" y="1072.2020202020203" type="curve" smooth="yes"/>
      <point x="133.05050505050508" y="858.7878787878788"/>
      <point x="266.74747474747477" y="689.010101010101"/>
      <point x="690.8282828282828" y="606.1212121212121" type="curve" smooth="yes"/>
      <point x="994.2222222222222" y="546.6868686868687"/>
      <point x="1065.2727272727273" y="494.1818181818182"/>
      <point x="1065.2727272727273" y="397.75757575757575" type="curve" smooth="yes"/>
      <point x="1065.2727272727273" y="306.24242424242414"/>
      <point x="983.6969696969697" y="250.62626262626253"/>
      <point x="776.1414141414141" y="250.62626262626253" type="curve" smooth="yes"/>
      <point x="566.3232323232322" y="250.62626262626253"/>
      <point x="476.4646464646463" y="313.11111111111103"/>
      <point x="476.4646464646463" y="419.77777777777777" type="curve" smooth="yes"/>
      <point x="476.4646464646463" y="506.4848484848485"/>
      <point x="537.7979797979797" y="596.969696969697"/>
      <point x="711.131313131313" y="648.1010101010102" type="curve"/>
      <point x="442.80808080808083" y="731.89898989899" type="line"/>
      <point x="215.0707070707071" y="674.2020202020202"/>
      <point x="88.78787878787881" y="539.6363636363636"/>
      <point x="88.78787878787881" y="360.82828282828285" type="curve" smooth="yes"/>
      <point x="88.78787878787881" y="143.75757575757575"/>
      <point x="275.0505050505051" y="-19.717171717171716"/>
    </contour>
  </outline>
</glyph>
<glyph name="nine" format="2">
  <advance width="1438.3434343434342"/>
  <unicode hex="0039"/>
  <outline>
    <contour>
      <point x="658.2020202020201" y="1499.7171717171718" type="curve" smooth="yes"/>
      <point x="275.1515151515151" y="1499.7171717171718"/>
      <point x="64.26262626262627" y="1309.919191919192"/>
      <point x="64.26262626262627" y="1029.919191919192" type="curve" smooth="yes"/>
      <point x="64.26262626262627" y="711.8585858585859"/>
      <point x="277.73737373737373" y="573.010101010101"/>
      <point x="594.3030303030303" y="573.010101010101" type="curve" smooth="yes"/>
      <point x="740.2828282828283" y="573.010101010101"/>
      <point x="897.1111111111111" y="614.4242424242425"/>
      <point x="983.070707070707" y="679.2525252525253" type="curve"/>
      <point x="983.070707070707" y="942.1414141414141" type="line"/>
      <point x="894.8282828282828" y="883.6363636363636"/>
      <point x="785.8181818181818" y="853.6565656565656"/>
      <point x="679.0101010101009" y="853.6565656565656" type="curve" smooth="yes"/>
      <point x="527.2323232323231" y="853.6565656565656"/>
      <point x="438.2020202020201" y="911.5555555555555"/>
      <point x="438.2020202020201" y="1038.7878787878788" type="curve" smooth="yes"/>
      <point x="438.2020202020201" y="1157.1515151515152"/>
      <point x="520.9292929292928" y="1219.0707070707072"/>
      <point x="658.2020202020201" y="1219.0707070707072" type="curve" smooth="yes"/>
      <point x="825.6969696969697" y="1219.0707070707072"/>
      <point x="925.8585858585859" y="1130.6464646464647"/>
      <point x="925.8585858585859" y="853.2525252525252" type="curve" smooth="yes"/>
      <point x="925.8585858585859" y="674.6868686868687" type="line" smooth="yes"/>
      <point x="925.8585858585859" y="427.9595959595959"/>
      <point x="791.959595959596" y="278.10101010101005"/>
      <point x="487.5151515151515" y="278.10101010101005" type="curve" smooth="yes"/>
      <point x="377.47474747474746" y="278.10101010101005"/>
      <point x="251.17171717171715" y="296.9696969696969"/>
      <point x="149.43434343434342" y="334.6868686868686" type="curve"/>
      <point x="149.43434343434342" y="34.868686868686865" type="line"/>
      <point x="261.19191919191917" y="-6.0"/>
      <point x="377.77777777777777" y="-19.717171717171716"/>
      <point x="516.989898989899" y="-19.717171717171716" type="curve" smooth="yes"/>
      <point x="1050.040404040404" y="-19.717171717171716"/>
      <point x="1327.2727272727273" y="275.19191919191917"/>
      <point x="1327.2727272727273" y="796.3030303030303" type="curve" smooth="yes"/>
      <point x="1327.2727272727273" y="1266.5252525252527"/>
      <point x="1059.7373737373737" y="1499.7171717171718"/>
    </contour>
  </outline>
</glyph>
<glyph name="colon" format="2">
  <advance width="661.4949494949494"/>
  <unicode hex="003A"/>
  <outline>
    <contour>
      <point x="330.7474747474747" y="-18.58585858585858" type="curve" smooth="yes"/>
      <point x="492.10101010101" y="-18.58585858585858"/>
      <point x="588.5050505050503" y="72.38383838383837"/>
      <point x="588.5050505050503" y="209.97979797979792" type="curve" smooth="yes"/>
      <point x="588.5050505050503" y="347.57575757575745"/>
      <point x="495.5353535353534" y="438.8282828282827"/>
      <point x="330.7474747474747" y="438.8282828282827" type="curve" smooth="yes"/>
      <point x="165.95959595959596" y="438.8282828282827"/>
      <point x="72.98989898989902" y="351.01010101010087"/>
      <point x="72.98989898989902" y="209.97979797979792" type="curve" smooth="yes"/>
      <point x="72.98989898989902" y="68.94949494949492"/>
      <point x="169.3939393939394" y="-18.58585858585858"/>
    </contour>
    <contour>
      <point x="330.7474747474747" y="658.3434343434344" type="curve" smooth="yes"/>
      <point x="492.10101010101" y="658.3434343434344"/>
      <point x="588.5050505050503" y="749.3131313131314"/>
      <point x="588.5050505050503" y="886.909090909091" type="curve" smooth="yes"/>
      <point x="588.5050505050503" y="1024.5050505050506"/>
      <point x="495.5353535353534" y="1115.7575757575758"/>
      <point x="330.7474747474747" y="1115.7575757575758" type="curve" smooth="yes"/>
      <point x="165.95959595959596" y="1115.7575757575758"/>
      <point x="72.98989898989902" y="1027.939393939394"/>
      <point x="72.98989898989902" y="886.909090909091" type="curve" smooth="yes"/>
      <point x="72.98989898989902" y="745.878787878788"/>
      <point x="169.3939393939394" y="658.3434343434344"/>
    </contour>
  </outline>
</glyph>
<glyph name="less" format="2">
  <advance width="1183.5555555555554"/>
  <unicode hex="003C"/>
  <outline>
    <contour>
      <point x="1058.8080808080808" y="246.30303030303037" type="line"/>
      <point x="1058.8080808080808" y="548.4040404040404" type="line"/>
      <point x="338.1414141414141" y="790.8888888888889" type="line"/>
      <point x="338.1414141414141" y="737.6969696969697" type="line"/>
      <point x="1058.8080808080808" y="971.5959595959596" type="line"/>
      <point x="1058.8080808080808" y="1273.6969696969695" type="line"/>
      <point x="124.74747474747477" y="947.4141414141413" type="line"/>
      <point x="124.74747474747477" y="572.5858585858587" type="line"/>
    </contour>
  </outline>
</glyph>
<glyph name="equal" format="2">
  <advance width="1183.5555555555554"/>
  <unicode hex="003D"/>
  <outline>
    <contour>
      <point x="124.74747474747477" y="849.89898989899" type="line"/>
      <point x="1058.8080808080808" y="849.89898989899" type="line"/>
      <point x="1058.8080808080808" y="1150.8686868686868" type="line"/>
      <point x="124.74747474747477" y="1150.8686868686868" type="line"/>
    </contour>
    <contour>
      <point x="124.74747474747477" y="369.1313131313132" type="line"/>
      <point x="1058.8080808080808" y="369.1313131313132" type="line"/>
      <point x="1058.8080808080808" y="670.10101010101" type="line"/>
      <point x="124.74747474747477" y="670.10101010101" type="line"/>
    </contour>
  </outline>
</glyph>
<glyph name="question" format="2">
  <advance width="1153.7777777777778"/>
  <unicode hex="003F"/>
  <outline>
    <contour>
      <point x="407.13131313131316" y="499.1919191919191" type="line"/>
      <point x="652.6060606060605" y="499.1919191919191" type="line"/>
      <point x="678.060606060606" y="660.5454545454545" type="line"/>
      <point x="936.2626262626261" y="725.89898989899"/>
      <point x="1092.6464646464647" y="853.6161616161617"/>
      <point x="1092.6464646464647" y="1075.3333333333333" type="curve" smooth="yes"/>
      <point x="1092.6464646464647" y="1346.2626262626263"/>
      <point x="891.7373737373737" y="1499.7171717171718"/>
      <point x="469.2323232323232" y="1499.7171717171718" type="curve" smooth="yes"/>
      <point x="325.4949494949495" y="1499.7171717171718"/>
      <point x="151.97979797979798" y="1474.8484848484848"/>
      <point x="42.84848484848485" y="1440.5656565656566" type="curve"/>
      <point x="42.84848484848485" y="1130.4444444444446" type="line"/>
      <point x="158.54545454545456" y="1168.7272727272727"/>
      <point x="302.86868686868684" y="1191.5959595959598"/>
      <point x="427.73737373737373" y="1191.5959595959598" type="curve" smooth="yes"/>
      <point x="617.9191919191919" y="1191.5959595959598"/>
      <point x="694.6666666666667" y="1137.9797979797981"/>
      <point x="694.6666666666667" y="1049.2929292929293" type="curve" smooth="yes"/>
      <point x="694.6666666666667" y="964.6262626262626"/>
      <point x="618.7070707070708" y="892.6868686868687"/>
      <point x="336.74747474747477" y="856.2222222222222" type="curve"/>
    </contour>
    <contour>
      <point x="530.7272727272727" y="-18.58585858585858" type="curve" smooth="yes"/>
      <point x="692.3636363636363" y="-18.58585858585858"/>
      <point x="788.4848484848484" y="65.79797979797978"/>
      <point x="788.4848484848484" y="192.80808080808075" type="curve" smooth="yes"/>
      <point x="788.4848484848484" y="320.10101010101"/>
      <point x="695.5151515151514" y="404.4848484848484"/>
      <point x="530.7272727272727" y="404.4848484848484" type="curve" smooth="yes"/>
      <point x="365.93939393939394" y="404.4848484848484"/>
      <point x="272.969696969697" y="323.53535353535347"/>
      <point x="272.969696969697" y="192.80808080808075" type="curve" smooth="yes"/>
      <point x="272.969696969697" y="62.363636363636346"/>
      <point x="369.3737373737374" y="-18.58585858585858"/>
    </contour>
  </outline>
</glyph>
<glyph name="at" format="2">
  <advance width="2382.7878787878785"/>
  <unicode hex="0040"/>
  <outline>
    <contour>
      <point x="1241.9595959595958" y="-460.0" type="curve" smooth="yes"/>
      <point x="1425.171717171717" y="-460.0"/>
      <point x="1604.0808080808079" y="-441.7171717171717"/>
      <point x="1778.1616161616162" y="-405.7171717171717" type="curve"/>
      <point x="1778.1616161616162" y="-159.1313131313132" type="line"/>
      <point x="1599.2525252525252" y="-195.69696969696977"/>
      <point x="1424.8888888888887" y="-213.69696969696977"/>
      <point x="1241.9595959595958" y="-213.69696969696977" type="curve" smooth="yes"/>
      <point x="637.9393939393939" y="-213.69696969696977"/>
      <point x="378.2828282828282" y="-5.5757575757576205"/>
      <point x="378.2828282828282" y="520.5656565656566" type="curve" smooth="yes"/>
      <point x="378.2828282828282" y="1044.1616161616162"/>
      <point x="637.3737373737373" y="1251.6969696969697"/>
      <point x="1199.111111111111" y="1251.6969696969697" type="curve" smooth="yes"/>
      <point x="1762.2828282828282" y="1251.6969696969697"/>
      <point x="2020.5252525252527" y="1052.1616161616162"/>
      <point x="2025.6767676767677" y="576.3232323232323" type="curve" smooth="yes"/>
      <point x="2029.111111111111" y="285.010101010101"/>
      <point x="1958.3434343434342" y="217.99999999999994"/>
      <point x="1867.2929292929293" y="217.99999999999994" type="curve" smooth="yes"/>
      <point x="1804.2222222222222" y="217.99999999999994"/>
      <point x="1765.1111111111109" y="248.82828282828277"/>
      <point x="1765.1111111111109" y="330.1414141414141" type="curve" smooth="yes"/>
      <point x="1765.1111111111109" y="597.1919191919193" type="line" smooth="yes"/>
      <point x="1765.1111111111109" y="970.7878787878788"/>
      <point x="1585.9191919191917" y="1097.7171717171718"/>
      <point x="1169.3535353535353" y="1097.7171717171718" type="curve" smooth="yes"/>
      <point x="1035.878787878788" y="1097.7171717171718"/>
      <point x="889.5555555555555" y="1076.2828282828282"/>
      <point x="764.6464646464647" y="1036.8484848484848" type="curve"/>
      <point x="764.6464646464647" y="750.7676767676769" type="line"/>
      <point x="868.909090909091" y="785.89898989899"/>
      <point x="1000.6464646464647" y="806.7676767676769"/>
      <point x="1097.5151515151515" y="806.7676767676769" type="curve" smooth="yes"/>
      <point x="1295.2121212121212" y="806.7676767676769"/>
      <point x="1365.6969696969697" y="757.3535353535354"/>
      <point x="1365.6969696969697" y="614.0808080808081" type="curve" smooth="yes"/>
      <point x="1365.6969696969697" y="291.83838383838383" type="line"/>
      <point x="1323.5151515151515" y="260.5454545454545"/>
      <point x="1235.5959595959596" y="244.04040404040398"/>
      <point x="1189.7575757575758" y="244.04040404040398" type="curve" smooth="yes"/>
      <point x="1110.2222222222222" y="244.04040404040398"/>
      <point x="1045.1111111111109" y="271.3737373737373"/>
      <point x="1045.1111111111109" y="342.4040404040404" type="curve" smooth="yes"/>
      <point x="1045.1111111111109" y="416.3030303030303"/>
      <point x="1093.6161616161614" y="443.65656565656565"/>
      <point x="1203.7373737373737" y="452.4848484848485" type="curve" smooth="yes"/>
      <point x="1473.2525252525252" y="471.5757575757576" type="line"/>
      <point x="1436.888888888889" y="673.2323232323232" type="line"/>
      <point x="1169.3939393939393" y="654.1414141414141" type="line" smooth="yes"/>
      <point x="801.4949494949494" y="630.7272727272727"/>
      <point x="641.4141414141415" y="514.4040404040404"/>
      <point x="641.4141414141415" y="305.77777777777777" type="curve" smooth="yes"/>
      <point x="641.4141414141415" y="112.32323232323232"/>
      <point x="781.4343434343434" y="-21.15151515151515"/>
      <point x="1059.2525252525252" y="-21.15151515151515" type="curve" smooth="yes"/>
      <point x="1195.7979797979797" y="-21.15151515151515"/>
      <point x="1324.3434343434342" y="18.525252525252537"/>
      <point x="1374.2828282828282" y="131.7171717171717" type="curve"/>
      <point x="1396.3030303030303" y="131.7171717171717" type="line"/>
      <point x="1468.3838383838383" y="28.26262626262627"/>
      <point x="1591.6161616161617" y="-21.15151515151515"/>
      <point x="1763.6969696969695" y="-21.15151515151515" type="curve" smooth="yes"/>
      <point x="2082.2020202020203" y="-21.15151515151515"/>
      <point x="2290.8686868686864" y="141.41414141414143"/>
      <point x="2291.151515151515" y="584.040404040404" type="curve" smooth="yes"/>
      <point x="2291.434343434343" y="1188.909090909091"/>
      <point x="1907.030303030303" y="1498.0"/>
      <point x="1199.111111111111" y="1498.0" type="curve" smooth="yes"/>
      <point x="493.19191919191917" y="1498.0"/>
      <point x="91.63636363636365" y="1188.909090909091"/>
      <point x="91.63636363636365" y="520.0" type="curve" smooth="yes"/>
      <point x="91.63636363636365" y="-149.47474747474746"/>
      <point x="493.47474747474746" y="-459.7171717171717"/>
    </contour>
  </outline>
</glyph>
<glyph name="B" format="2">
  <advance width="1496.5454545454545"/>
  <unicode hex="0042"/>
  <anchor x="778.4444444444443" y="0.0" name="bottom"/>
  <anchor x="778.4444444444443" y="1480.0" name="top"/>
  <outline>
    <contour>
      <point x="619.1717171717172" y="-18.58585858585858" type="curve" smooth="yes"/>
      <point x="1242.0" y="-18.58585858585858"/>
      <point x="1437.171717171717" y="152.6060606060606"/>
      <point x="1437.171717171717" y="425.75757575757575" type="curve" smooth="yes"/>
      <point x="1437.171717171717" y="630.6262626262626"/>
      <point x="1312.0" y="742.2828282828283"/>
      <point x="1136.4444444444443" y="768.2828282828283" type="curve"/>
      <point x="1135.5959595959596" y="755.7171717171717" type="line"/>
      <point x="1292.0202020202019" y="787.7171717171717"/>
      <point x="1398.3232323232323" y="911.4141414141415"/>
      <point x="1398.3232323232323" y="1075.090909090909" type="curve" smooth="yes"/>
      <point x="1398.3232323232323" y="1346.828282828283"/>
      <point x="1197.6969696969695" y="1499.1515151515152"/>
      <point x="698.10101010101" y="1499.1515151515152" type="curve" smooth="yes"/>
      <point x="517.7979797979798" y="1499.1515151515152"/>
      <point x="297.61616161616166" y="1471.6969696969697"/>
      <point x="142.1616161616162" y="1435.111111111111" type="curve"/>
      <point x="142.1616161616162" y="12.565656565656566" type="line"/>
      <point x="282.4242424242425" y="-5.717171717171716"/>
      <point x="485.17171717171715" y="-18.58585858585858"/>
    </contour>
    <contour>
      <point x="732.7878787878788" y="265.4949494949494" type="curve" smooth="yes"/>
      <point x="671.4747474747473" y="265.4949494949494"/>
      <point x="617.2525252525252" y="266.3434343434343"/>
      <point x="550.1616161616162" y="273.75757575757564" type="curve"/>
      <point x="550.1616161616162" y="1195.6565656565658" type="line"/>
      <point x="606.6666666666665" y="1206.787878787879"/>
      <point x="674.3232323232322" y="1215.0707070707072"/>
      <point x="744.7474747474747" y="1215.0707070707072" type="curve" smooth="yes"/>
      <point x="942.4848484848485" y="1215.0707070707072"/>
      <point x="1009.2121212121212" y="1164.2828282828284"/>
      <point x="1009.2121212121212" y="1057.919191919192" type="curve" smooth="yes"/>
      <point x="1009.2121212121212" y="954.6868686868687"/>
      <point x="943.9191919191919" y="900.4646464646464"/>
      <point x="768.6868686868687" y="900.4646464646464" type="curve" smooth="yes"/>
      <point x="503.2525252525252" y="900.4646464646464" type="line"/>
      <point x="503.2525252525252" y="611.2323232323233" type="line"/>
      <point x="805.0101010101009" y="611.2323232323233" type="line" smooth="yes"/>
      <point x="995.3737373737374" y="611.2323232323233"/>
      <point x="1059.79797979798" y="557.8787878787879"/>
      <point x="1059.79797979798" y="438.3434343434343" type="curve" smooth="yes"/>
      <point x="1059.79797979798" y="326.8282828282828"/>
      <point x="991.3333333333334" y="265.4949494949494"/>
    </contour>
  </outline>
</glyph>
<glyph name="C" format="2">
  <advance width="1457.4545454545455"/>
  <unicode hex="0043"/>
  <anchor x="865.8585858585859" y="0.0" name="bottom"/>
  <anchor x="863.030303030303" y="1520.0" name="top"/>
  <outline>
    <contour>
      <point x="1016.3232323232323" y="-19.717171717171716" type="curve" smooth="yes"/>
      <point x="1146.8686868686868" y="-19.717171717171716"/>
      <point x="1277.7373737373737" y="-3.1515151515151496"/>
      <point x="1388.0" y="23.95959595959597" type="curve"/>
      <point x="1388.0" y="356.4040404040403" type="line"/>
      <point x="1282.9292929292928" y="331.87878787878776"/>
      <point x="1167.4949494949494" y="315.87878787878776"/>
      <point x="1042.3636363636363" y="315.87878787878776" type="curve" smooth="yes"/>
      <point x="690.1010101010099" y="315.87878787878776"/>
      <point x="529.3939393939393" y="456.6868686868686"/>
      <point x="529.3939393939393" y="740.2828282828283" type="curve" smooth="yes"/>
      <point x="529.3939393939393" y="1019.919191919192"/>
      <point x="688.4040404040403" y="1164.1212121212122"/>
      <point x="1061.5151515151515" y="1164.1212121212122" type="curve" smooth="yes"/>
      <point x="1179.4949494949494" y="1164.1212121212122"/>
      <point x="1286.888888888889" y="1152.707070707071"/>
      <point x="1388.0" y="1132.1616161616162" type="curve"/>
      <point x="1388.0" y="1464.6060606060605" type="line"/>
      <point x="1272.8686868686868" y="1488.5858585858587"/>
      <point x="1155.7171717171716" y="1499.7171717171718"/>
      <point x="1027.4545454545455" y="1499.7171717171718" type="curve" smooth="yes"/>
      <point x="414.2828282828283" y="1499.7171717171718"/>
      <point x="91.63636363636365" y="1211.8989898989898"/>
      <point x="91.63636363636365" y="736.2828282828283" type="curve" smooth="yes"/>
      <point x="91.63636363636365" y="232.66666666666663"/>
      <point x="411.11111111111114" y="-19.717171717171716"/>
    </contour>
  </outline>
</glyph>
<glyph name="E" format="2">
  <advance width="1467.7373737373737"/>
  <unicode hex="0045"/>
  <anchor x="777.8181818181818" y="0.0" name="bottom"/>
  <anchor x="1281.4545454545455" y="0.0" name="ogonek"/>
  <anchor x="777.2525252525252" y="1520.0" name="top"/>
  <anchor x="40.84848484848485" y="1480.0" name="topleft"/>
  <outline>
    <contour>
      <point x="142.1616161616162" y="0.0" type="line"/>
      <point x="1378.6262626262626" y="0.0" type="line"/>
      <point x="1378.6262626262626" y="309.8383838383837" type="line"/>
      <point x="555.3131313131312" y="309.8383838383837" type="line"/>
      <point x="555.3131313131312" y="1170.1616161616162" type="line"/>
      <point x="1368.6262626262626" y="1170.1616161616162" type="line"/>
      <point x="1368.6262626262626" y="1480.0" type="line"/>
      <point x="142.1616161616162" y="1480.0" type="line"/>
    </contour>
    <contour>
      <point x="343.5757575757575" y="600.929292929293" type="line"/>
      <point x="1263.4747474747473" y="600.929292929293" type="line"/>
      <point x="1263.4747474747473" y="910.7676767676767" type="line"/>
      <point x="343.5757575757575" y="910.7676767676767" type="line"/>
    </contour>
  </outline>
</glyph>
<glyph name="F" format="2">
  <advance width="1440.6262626262626"/>
  <unicode hex="0046"/>
  <outline>
    <contour>
      <point x="142.1616161616162" y="0.0" type="line"/>
      <point x="560.4646464646464" y="0.0" type="line"/>
      <point x="560.4646464646464" y="1161.5757575757577" type="line"/>
      <point x="1367.212121212121" y="1161.5757575757577" type="line"/>
      <point x="1367.212121212121" y="1480.0" type="line"/>
      <point x="142.1616161616162" y="1480.0" type="line"/>
    </contour>
    <contour>
      <point x="373.8787878787878" y="554.5656565656566" type="line"/>
      <point x="1256.9090909090908" y="554.5656565656566" type="line"/>
      <point x="1256.9090909090908" y="872.989898989899" type="line"/>
      <point x="373.8787878787878" y="872.989898989899" type="line"/>
    </contour>
  </outline>
</glyph>
<glyph name="H" format="2">
  <advance width="1763.171717171717"/>
  <unicode hex="0048"/>
  <anchor x="882.4444444444443" y="0.0" name="bottom"/>
  <anchor x="882.4444444444443" y="1210.4040404040404" name="center"/>
  <anchor x="882.4444444444443" y="1520.0" name="top"/>
  <anchor x="44.282828282828284" y="1480.0" name="topleft"/>
  <outline>
    <contour>
      <point x="142.1616161616162" y="0.0" type="line"/>
      <point x="560.4646464646464" y="0.0" type="line"/>
      <point x="560.4646464646464" y="578.6060606060606" type="line"/>
      <point x="1202.7070707070707" y="578.6060606060606" type="line"/>
      <point x="1202.7070707070707" y="0.0" type="line"/>
      <point x="1621.010101010101" y="0.0" type="line"/>
      <point x="1621.010101010101" y="1480.0" type="line"/>
      <point x="1202.7070707070707" y="1480.0" type="line"/>
      <point x="1202.7070707070707" y="933.090909090909" type="line"/>
      <point x="560.4646464646464" y="933.090909090909" type="line"/>
      <point x="560.4646464646464" y="1480.0" type="line"/>
      <point x="142.1616161616162" y="1480.0" type="line"/>
    </contour>
  </outline>
</glyph>
<glyph name="I" format="2">
  <advance width="702.6262626262626"/>
  <unicode hex="0049"/>
  <anchor x="349.5959595959596" y="0.0" name="bottom"/>
  <anchor x="560.4646464646464" y="0.0" name="ogonek"/>
  <anchor x="351.3131313131313" y="1520.0" name="top"/>
  <outline>
    <contour>
      <point x="142.1616161616162" y="0.0" type="line"/>
      <point x="560.4646464646464" y="0.0" type="line"/>
      <point x="560.4646464646464" y="1480.0" type="line"/>
      <point x="142.1616161616162" y="1480.0" type="line"/>
    </contour>
  </outline>
</glyph>
<glyph name="J" format="2">
  <advance width="702.6262626262626"/>
  <unicode hex="004A"/>
  <anchor x="569.5151515151515" y="0.0" name="bottom"/>
  <anchor x="353.030303030303" y="1520.0" name="top"/>
  <outline>
    <contour>
      <point x="247.7575757575757" y="-355.45454545454544" type="line"/>
      <point x="479.87878787878776" y="-141.13131313131314"/>
      <point x="558.4848484848483" y="61.49494949494948"/>
      <point x="560.4646464646464" y="308.38383838383834" type="curve"/>
      <point x="560.4646464646464" y="1480.0" type="line"/>
      <point x="145.5959595959596" y="1480.0" type="line"/>
      <point x="145.5959595959596" y="299.73737373737373" type="line" smooth="yes"/>
      <point x="145.5959595959596" y="90.34343434343432"/>
      <point x="105.35353535353536" y="-43.8585858585859"/>
      <point x="-9.737373737373733" y="-182.08080808080814" type="curve"/>
    </contour>
  </outline>
</glyph>
<glyph name="K" format="2">
  <advance width="1514.8888888888887"/>
  <unicode hex="004B"/>
  <anchor x="796.2020202020201" y="0.0" name="bottom"/>
  <anchor x="791.050505050505" y="1480.0" name="top"/>
  <outline>
    <contour>
      <point x="1101.5151515151515" y="0.0" type="line"/>
      <point x="1556.9898989898988" y="0.0" type="line"/>
      <point x="983.1313131313129" y="806.6262626262626" type="line"/>
      <point x="972.8282828282827" y="708.7878787878788" type="line"/>
      <point x="1508.121212121212" y="1480.0" type="line"/>
      <point x="1068.3838383838383" y="1480.0" type="line"/>
      <point x="563.6969696969697" y="754.5656565656566" type="line"/>
    </contour>
    <contour>
      <point x="142.1616161616162" y="0.0" type="line"/>
      <point x="560.4646464646464" y="0.0" type="line"/>
      <point x="560.4646464646464" y="1480.0" type="line"/>
      <point x="142.1616161616162" y="1480.0" type="line"/>
    </contour>
    <contour>
      <point x="503.2525252525252" y="578.6060606060606" type="line"/>
      <point x="733.3333333333333" y="578.6060606060606" type="line"/>
      <point x="733.3333333333333" y="933.090909090909" type="line"/>
      <point x="503.2525252525252" y="933.090909090909" type="line"/>
    </contour>
  </outline>
</glyph>
<glyph name="M" format="2">
  <advance width="2132.4444444444443"/>
  <unicode hex="004D"/>
  <anchor x="1093.6969696969695" y="0.0" name="bottom"/>
  <anchor x="1093.6969696969695" y="1480.0" name="top"/>
  <outline>
    <contour>
      <point x="146.1616161616162" y="0.0" type="line"/>
      <point x="536.7070707070707" y="0.0" type="line"/>
      <point x="536.7070707070707" y="1144.1010101010102" type="line"/>
      <point x="433.1717171717171" y="1144.1010101010102" type="line"/>
      <point x="892.5656565656566" y="217.17171717171718" type="line"/>
      <point x="1239.8787878787878" y="217.17171717171718" type="line"/>
      <point x="1678.3838383838383" y="1144.1010101010102" type="line"/>
      <point x="1595.7373737373737" y="1144.1010101010102" type="line"/>
      <point x="1595.7373737373737" y="0.0" type="line"/>
      <point x="1986.2828282828282" y="0.0" type="line"/>
      <point x="1986.2828282828282" y="1480.0" type="line"/>
      <point x="1479.5555555555557" y="1480.0" type="line"/>
      <point x="1047.0707070707072" y="559.9797979797979" type="line"/>
      <point x="1097.9595959595958" y="559.9797979797979" type="line"/>
      <point x="652.8888888888887" y="1480.0" type="line"/>
      <point x="146.1616161616162" y="1480.0" type="line"/>
    </contour>
  </outline>
</glyph>
<glyph name="N" format="2">
  <advance width="1776.0"/>
  <unicode hex="004E"/>
  <anchor x="888.1414141414141" y="0.0" name="bottom"/>
  <anchor x="888.1414141414141" y="1520.0" name="top"/>
  <outline>
    <contour>
      <point x="142.1616161616162" y="0.0" type="line"/>
      <point x="536.1414141414141" y="0.0" type="line"/>
      <point x="536.1414141414141" y="1002.7272727272729" type="line"/>
      <point x="468.36363636363626" y="1002.7272727272729" type="line"/>
      <point x="1214.6868686868688" y="0.0" type="line"/>
      <point x="1633.8383838383838" y="0.0" type="line"/>
      <point x="1633.8383838383838" y="1480.0" type="line"/>
      <point x="1239.858585858586" y="1480.0" type="line"/>
      <point x="1239.858585858586" y="477.27272727272714" type="line"/>
      <point x="1307.6363636363637" y="477.27272727272714" type="line"/>
      <point x="561.3131313131312" y="1480.0" type="line"/>
      <point x="142.1616161616162" y="1480.0" type="line"/>
    </contour>
  </outline>
</glyph>
<glyph name="P" format="2">
  <advance width="1497.7373737373737"/>
  <unicode hex="0050"/>
  <outline>
    <contour>
      <point x="142.1616161616162" y="0.0" type="line"/>
      <point x="560.4646464646464" y="0.0" type="line"/>
      <point x="560.4646464646464" y="410.08080808080814" type="line"/>
      <point x="607.2323232323231" y="408.66666666666674"/>
      <point x="655.7575757575756" y="406.38383838383845"/>
      <point x="705.3939393939393" y="406.38383838383845" type="curve" smooth="yes"/>
      <point x="1175.979797979798" y="406.38383838383845"/>
      <point x="1415.7777777777778" y="591.2525252525253"/>
      <point x="1415.7777777777778" y="953.3333333333334" type="curve" smooth="yes"/>
      <point x="1415.7777777777778" y="1332.2626262626263"/>
      <point x="1167.4343434343432" y="1499.1515151515152"/>
      <point x="666.6666666666666" y="1499.1515151515152" type="curve" smooth="yes"/>
      <point x="471.4343434343434" y="1499.1515151515152"/>
      <point x="302.7676767676768" y="1480.2828282828282"/>
      <point x="142.1616161616162" y="1450.5656565656566" type="curve"/>
    </contour>
    <contour>
      <point x="708.8282828282827" y="695.6161616161615" type="curve" smooth="yes"/>
      <point x="652.9090909090908" y="695.6161616161615"/>
      <point x="612.121212121212" y="698.1818181818181"/>
      <point x="560.4646464646464" y="705.030303030303" type="curve"/>
      <point x="560.4646464646464" y="1199.0909090909092" type="line"/>
      <point x="606.6666666666665" y="1206.787878787879"/>
      <point x="650.2828282828282" y="1209.919191919192"/>
      <point x="706.1616161616162" y="1209.919191919192" type="curve" smooth="yes"/>
      <point x="916.7878787878788" y="1209.919191919192"/>
      <point x="1012.3636363636365" y="1133.4343434343434"/>
      <point x="1012.3636363636365" y="953.0505050505051" type="curve" smooth="yes"/>
      <point x="1012.3636363636365" y="766.060606060606"/>
      <point x="919.3333333333334" y="695.6161616161615"/>
    </contour>
  </outline>
</glyph>
<glyph name="Q" format="2">
  <advance width="1846.7474747474748"/>
  <unicode hex="0051"/>
  <outline>
    <contour>
      <point x="1682.4848484848485" y="-363.7373737373737" type="curve"/>
      <point x="1743.7171717171716" y="-53.898989898989925" type="line"/>
      <point x="1443.3333333333333" y="-19.01010101010104"/>
      <point x="1162.4848484848485" y="34.4444444444444"/>
      <point x="912.6464646464647" y="121.61616161616158" type="curve"/>
      <point x="772.1414141414141" y="22.9090909090909" type="line"/>
      <point x="1445.8989898989898" y="-59.43434343434343"/>
      <point x="1755.1111111111109" y="262.96969696969694"/>
      <point x="1755.1111111111109" y="740.0" type="curve" smooth="yes"/>
      <point x="1755.1111111111109" y="1217.030303030303"/>
      <point x="1436.7474747474746" y="1499.7171717171718"/>
      <point x="923.3737373737374" y="1499.7171717171718" type="curve" smooth="yes"/>
      <point x="410.0" y="1499.7171717171718"/>
      <point x="91.63636363636365" y="1218.7676767676767"/>
      <point x="91.63636363636365" y="722.8282828282828" type="curve" smooth="yes"/>
      <point x="91.63636363636365" y="212.96969696969694"/>
      <point x="420.5656565656566" y="-189.01010101010098"/>
    </contour>
    <contour>
      <point x="923.3737373737374" y="305.85858585858574" type="curve" smooth="yes"/>
      <point x="660.6464646464647" y="305.85858585858574"/>
      <point x="517.3737373737372" y="442.9090909090908"/>
      <point x="517.3737373737372" y="747.4343434343434" type="curve" smooth="yes"/>
      <point x="517.3737373737372" y="1033.6565656565658"/>
      <point x="669.2323232323231" y="1174.1414141414143"/>
      <point x="923.3737373737374" y="1174.1414141414143" type="curve" smooth="yes"/>
      <point x="1177.5151515151515" y="1174.1414141414143"/>
      <point x="1329.3737373737374" y="1028.5050505050506"/>
      <point x="1329.3737373737374" y="732.5656565656566" type="curve" smooth="yes"/>
      <point x="1329.3737373737374" y="451.4949494949494"/>
      <point x="1182.6666666666665" y="305.85858585858574"/>
    </contour>
  </outline>
</glyph>
<glyph name="S" format="2">
  <advance width="1346.3232323232323"/>
  <unicode hex="0053"/>
  <anchor x="687.030303030303" y="0.0" name="bottom"/>
  <anchor x="687.030303030303" y="1520.0" name="top"/>
  <outline>
    <contour>
      <point x="601.2929292929292" y="-19.717171717171716" type="curve" smooth="yes"/>
      <point x="1021.131313131313" y="-19.717171717171716"/>
      <point x="1276.949494949495" y="160.06060606060606"/>
      <point x="1276.949494949495" y="454.4040404040404" type="curve" smooth="yes"/>
      <point x="1276.949494949495" y="681.2929292929292"/>
      <point x="1145.5151515151515" y="826.7676767676767"/>
      <point x="779.4343434343434" y="897.3535353535353" type="curve" smooth="yes"/>
      <point x="645.6161616161615" y="923.3737373737373" type="line" smooth="yes"/>
      <point x="513.8383838383837" y="949.6161616161615"/>
      <point x="479.65656565656553" y="980.9494949494949"/>
      <point x="479.65656565656553" y="1046.1818181818182" type="curve" smooth="yes"/>
      <point x="479.65656565656553" y="1125.3939393939395"/>
      <point x="550.6666666666665" y="1179.5757575757577"/>
      <point x="795.151515151515" y="1179.5757575757577" type="curve" smooth="yes"/>
      <point x="938.0404040404039" y="1179.5757575757577"/>
      <point x="1090.949494949495" y="1158.1414141414143"/>
      <point x="1194.3434343434342" y="1127.0101010101012" type="curve"/>
      <point x="1194.3434343434342" y="1452.5858585858587" type="line"/>
      <point x="1087.212121212121" y="1480.0"/>
      <point x="945.7575757575756" y="1499.7171717171718"/>
      <point x="783.6969696969696" y="1499.7171717171718" type="curve" smooth="yes"/>
      <point x="305.19191919191917" y="1499.7171717171718"/>
      <point x="69.37373737373738" y="1330.2626262626263"/>
      <point x="69.37373737373738" y="1031.878787878788" type="curve" smooth="yes"/>
      <point x="69.37373737373738" y="797.8383838383838"/>
      <point x="201.0909090909091" y="656.6666666666667"/>
      <point x="535.4545454545455" y="592.0808080808081" type="curve" smooth="yes"/>
      <point x="669.2727272727273" y="566.0606060606061" type="line" smooth="yes"/>
      <point x="826.5050505050506" y="536.1010101010102"/>
      <point x="866.6666666666667" y="504.1818181818182"/>
      <point x="866.6666666666667" y="433.5151515151515" type="curve" smooth="yes"/>
      <point x="866.6666666666667" y="351.1717171717171"/>
      <point x="808.8282828282828" y="300.4242424242423"/>
      <point x="605.0101010101009" y="300.4242424242423" type="curve" smooth="yes"/>
      <point x="459.8181818181818" y="300.4242424242423"/>
      <point x="248.54545454545456" y="327.0101010101009"/>
      <point x="107.97979797979798" y="375.0101010101009" type="curve"/>
      <point x="107.97979797979798" y="49.43434343434343" type="line"/>
      <point x="248.0" y="7.151515151515149"/>
      <point x="410.6060606060606" y="-19.717171717171716"/>
    </contour>
  </outline>
</glyph>
<glyph name="T" format="2">
  <advance width="1491.2727272727273"/>
  <unicode hex="0054"/>
  <anchor x="745.6363636363636" y="0.0" name="bottom"/>
  <anchor x="745.6363636363636" y="714.1414141414142" name="center"/>
  <anchor x="745.6363636363636" y="1520.0" name="top"/>
  <outline>
    <contour>
      <point x="536.4848484848485" y="0.0" type="line"/>
      <point x="954.7878787878786" y="0.0" type="line"/>
      <point x="954.7878787878786" y="1154.707070707071" type="line"/>
      <point x="1469.5555555555554" y="1154.707070707071" type="line"/>
      <point x="1469.5555555555554" y="1480.0" type="line"/>
      <point x="21.717171717171716" y="1480.0" type="line"/>
      <point x="21.717171717171716" y="1154.707070707071" type="line"/>
      <point x="536.4848484848485" y="1154.707070707071" type="line"/>
    </contour>
  </outline>
</glyph>
<glyph name="V" format="2">
  <advance width="1691.070707070707"/>
  <unicode hex="0056"/>
  <outline>
    <contour>
      <point x="543.5353535353536" y="0.0" type="line"/>
      <point x="1147.5353535353534" y="0.0" type="line"/>
      <point x="1682.5252525252524" y="1480.0" type="line"/>
      <point x="1270.5252525252527" y="1480.0" type="line"/>
      <point x="807.0505050505051" y="173.93939393939388" type="line"/>
      <point x="905.4747474747473" y="173.93939393939388" type="line"/>
      <point x="450.30303030303014" y="1480.0" type="line"/>
      <point x="8.545454545454552" y="1480.0" type="line"/>
    </contour>
  </outline>
</glyph>
<glyph name="X" format="2">
  <advance width="1560.3232323232323"/>
  <unicode hex="0058"/>
  <outline>
    <contour>
      <point x="1148.7070707070707" y="0.0" type="line"/>
      <point x="1614.7676767676767" y="0.0" type="line"/>
      <point x="1023.0707070707069" y="777.1919191919192" type="line"/>
      <point x="781.8787878787879" y="1045.8383838383838" type="line"/>
      <point x="453.9595959595958" y="1480.0" type="line"/>
      <point x="-12.101010101010075" y="1480.0" type="line"/>
      <point x="531.8181818181819" y="770.040404040404" type="line"/>
      <point x="773.0101010101009" y="501.3939393939395" type="line"/>
    </contour>
    <contour>
      <point x="-53.01010101010098" y="0.0" type="line"/>
      <point x="399.0303030303029" y="0.0" type="line"/>
      <point x="773.0101010101009" y="501.3939393939395" type="line"/>
      <point x="1023.0707070707069" y="777.1919191919192" type="line"/>
      <point x="1558.4040404040402" y="1480.0" type="line"/>
      <point x="1108.3636363636365" y="1480.0" type="line"/>
      <point x="781.8787878787879" y="1045.8383838383838" type="line"/>
      <point x="531.8181818181819" y="770.040404040404" type="line"/>
    </contour>
  </outline>
</glyph>
<glyph name="Z" format="2">
  <advance width="1450.040404040404"/>
  <unicode hex="005A"/>
  <anchor x="725.8787878787879" y="0.0" name="bottom"/>
  <anchor x="725.8787878787878" y="1520.0" name="top"/>
  <outline>
    <contour>
      <point x="82.02020202020202" y="0.0" type="line"/>
      <point x="1368.0202020202019" y="0.0" type="line"/>
      <point x="1368.0202020202019" y="325.01010101010087" type="line"/>
      <point x="558.9898989898988" y="325.01010101010087" type="line"/>
      <point x="560.6868686868686" y="246.06060606060598" type="line"/>
      <point x="1357.4545454545455" y="1256.2626262626263" type="line"/>
      <point x="1357.4545454545455" y="1480.0" type="line"/>
      <point x="92.58585858585857" y="1480.0" type="line"/>
      <point x="92.58585858585857" y="1154.989898989899" type="line"/>
      <point x="880.4848484848486" y="1154.989898989899" type="line"/>
      <point x="878.7878787878789" y="1233.939393939394" type="line"/>
      <point x="82.02020202020202" y="223.73737373737364" type="line"/>
    </contour>
  </outline>
</glyph>
<glyph name="bracketleft" format="2">
  <advance width="815.8989898989898"/>
  <unicode hex="005B"/>
  <outline>
    <contour>
      <point x="162.1616161616162" y="-440.0" type="line"/>
      <point x="823.2727272727273" y="-440.0" type="line"/>
      <point x="823.2727272727273" y="-121.85858585858597" type="line"/>
      <point x="570.161616161616" y="-121.85858585858597" type="line"/>
      <point x="570.161616161616" y="1297.858585858586" type="line"/>
      <point x="840.4444444444445" y="1297.858585858586" type="line"/>
      <point x="840.4444444444445" y="1616.0" type="line"/>
      <point x="162.1616161616162" y="1616.0" type="line"/>
    </contour>
  </outline>
</glyph>
<glyph name="backslash" format="2">
  <advance width="996.6262626262625"/>
  <unicode hex="005C"/>
  <outline>
    <contour>
      <point x="586.3434343434343" y="-240.0" type="line"/>
      <point x="996.6262626262625" y="-240.0" type="line"/>
      <point x="410.2828282828281" y="1616.0" type="line"/>
      <point x="0.0" y="1616.0" type="line"/>
    </contour>
  </outline>
</glyph>
<glyph name="bracketright" format="2">
  <advance width="815.8989898989898"/>
  <unicode hex="005D"/>
  <outline>
    <contour>
      <point x="-7.373737373737384" y="-440.0" type="line"/>
      <point x="653.7373737373737" y="-440.0" type="line"/>
      <point x="653.7373737373737" y="1616.0" type="line"/>
      <point x="-24.54545454545455" y="1616.0" type="line"/>
      <point x="-24.54545454545455" y="1297.858585858586" type="line"/>
      <point x="245.73737373737382" y="1297.858585858586" type="line"/>
      <point x="245.73737373737382" y="-121.85858585858597" type="line"/>
      <point x="-7.373737373737384" y="-121.85858585858597" type="line"/>
    </contour>
  </outline>
</glyph>
<glyph name="asciicircum" format="2">
  <advance width="1406.060606060606"/>
  <unicode hex="005E"/>
  <outline>
    <contour>
      <point x="45.313131313131336" y="740.0" type="line"/>
      <point x="453.57575757575745" y="740.0" type="line"/>
      <point x="798.0404040404039" y="1305.2121212121212" type="line"/>
      <point x="608.020202020202" y="1305.2121212121212" type="line"/>
      <point x="952.4848484848485" y="740.0" type="line"/>
      <point x="1360.7474747474746" y="740.0" type="line"/>
      <point x="908.7272727272726" y="1480.0" type="line"/>
      <point x="497.0505050505051" y="1480.0" type="line"/>
    </contour>
  </outline>
</glyph>
<glyph name="underscore" format="2">
  <advance width="1416.040404040404"/>
  <unicode hex="005F"/>
  <outline>
    <contour>
      <point x="91.41414141414141" y="-319.85858585858574" type="line"/>
      <point x="1324.6262626262626" y="-319.85858585858574" type="line"/>
      <point x="1324.6262626262626" y="-1.7171717171717165" type="line"/>
      <point x="91.41414141414141" y="-1.7171717171717165" type="line"/>
    </contour>
  </outline>
</glyph>
<glyph name="grave" format="2">
  <advance width="1200.0"/>
  <unicode hex="0060"/>
  <anchor x="600.0" y="1200.0" name="_top"/>
  <anchor x="600.0" y="1641.858585858586" name="top"/>
  <outline>
    <contour>
      <point x="406.0202020202021" y="1226.2222222222222" type="line"/>
      <point x="793.9797979797979" y="1226.2222222222222" type="line"/>
      <point x="534.5656565656565" y="1616.0" type="line"/>
      <point x="86.52525252525261" y="1616.0" type="line"/>
    </contour>
  </outline>
</glyph>
<glyph name="b" format="2">
  <advance width="1452.9494949494947"/>
  <unicode hex="0062"/>
  <anchor x="727.6161616161615" y="0.0" name="bottom"/>
  <anchor x="331.3131313131313" y="1616.0" name="top"/>
  <outline>
    <contour>
      <point x="654.4848484848485" y="-21.434343434343432" type="curve" smooth="yes"/>
      <point x="1132.949494949495" y="-21.434343434343432"/>
      <point x="1378.181818181818" y="190.88888888888889"/>
      <point x="1378.181818181818" y="577.1717171717172" type="curve" smooth="yes"/>
      <point x="1378.181818181818" y="941.1313131313132"/>
      <point x="1152.141414141414" y="1114.888888888889"/>
      <point x="884.9898989898988" y="1114.888888888889" type="curve" smooth="yes"/>
      <point x="746.4444444444443" y="1114.888888888889"/>
      <point x="635.8989898989897" y="1074.3434343434344"/>
      <point x="553.3333333333333" y="998.3636363636364" type="curve"/>
      <point x="535.3131313131312" y="998.3636363636364" type="line"/>
      <point x="535.3131313131312" y="1616.0" type="line"/>
      <point x="127.31313131313135" y="1616.0" type="line"/>
      <point x="127.31313131313135" y="47.17171717171716" type="line"/>
      <point x="289.1111111111111" y="-2.0"/>
      <point x="479.81818181818176" y="-21.434343434343432"/>
    </contour>
    <contour>
      <point x="691.6767676767677" y="279.81818181818176" type="curve" smooth="yes"/>
      <point x="631.1919191919192" y="279.81818181818176"/>
      <point x="576.4040404040402" y="287.23232323232315"/>
      <point x="535.3131313131312" y="297.21212121212113" type="curve"/>
      <point x="535.3131313131312" y="736.929292929293" type="line"/>
      <point x="593.5353535353535" y="775.939393939394"/>
      <point x="667.4343434343434" y="793.0303030303031"/>
      <point x="738.4646464646464" y="793.0303030303031" type="curve" smooth="yes"/>
      <point x="882.040404040404" y="793.0303030303031"/>
      <point x="974.7676767676768" y="725.979797979798"/>
      <point x="974.7676767676768" y="548.5656565656566" type="curve" smooth="yes"/>
      <point x="974.7676767676768" y="367.41414141414134"/>
      <point x="882.8888888888889" y="279.81818181818176"/>
    </contour>
  </outline>
</glyph>
<glyph name="f" format="2">
  <advance width="950.5858585858585"/>
  <unicode hex="0066"/>
  <outline>
    <contour>
      <point x="234.52525252525254" y="0.0" type="line"/>
      <point x="642.5252525252524" y="0.0" type="line"/>
      <point x="642.5252525252524" y="1132.1010101010102" type="line" smooth="yes"/>
      <point x="642.5252525252524" y="1259.050505050505"/>
      <point x="713.8989898989897" y="1322.7272727272727"/>
      <point x="878.6666666666665" y="1322.7272727272727" type="curve" smooth="yes"/>
      <point x="918.3636363636363" y="1322.7272727272727"/>
      <point x="954.3232323232323" y="1320.1616161616162"/>
      <point x="996.3030303030303" y="1315.3131313131314" type="curve"/>
      <point x="996.3030303030303" y="1623.7171717171718" type="line"/>
      <point x="932.5656565656566" y="1631.7171717171718"/>
      <point x="884.8686868686868" y="1636.0"/>
      <point x="810.5454545454545" y="1636.0" type="curve" smooth="yes"/>
      <point x="448.66666666666663" y="1636.0"/>
      <point x="234.52525252525254" y="1435.878787878788"/>
      <point x="234.52525252525254" y="1118.949494949495" type="curve" smooth="yes"/>
    </contour>
    <contour>
      <point x="46.04040404040403" y="779.0303030303031" type="line"/>
      <point x="942.0" y="779.0303030303031" type="line"/>
      <point x="942.0" y="1097.171717171717" type="line"/>
      <point x="46.04040404040403" y="1097.171717171717" type="line"/>
    </contour>
  </outline>
</glyph>
<glyph name="i" format="2">
  <advance width="662.6262626262626"/>
  <unicode hex="0069"/>
  <anchor x="331.3131313131313" y="1200.0" name="_top"/>
  <anchor x="331.3131313131313" y="0.0" name="bottom"/>
  <anchor x="535.3131313131312" y="0.0" name="ogonek"/>
  <anchor x="331.3131313131313" y="1200.0" name="top"/>
  <outline>
    <contour>
      <point x="127.31313131313135" y="0.0" type="line"/>
      <point x="535.3131313131312" y="0.0" type="line"/>
      <point x="535.3131313131312" y="1097.171717171717" type="line"/>
      <point x="127.31313131313135" y="1097.171717171717" type="line"/>
    </contour>
    <contour>
      <point x="331.3131313131313" y="1227.7777777777778" type="curve" smooth="yes"/>
      <point x="499.5353535353534" y="1227.7777777777778"/>
      <point x="575.3333333333333" y="1294.7070707070707"/>
      <point x="575.3333333333333" y="1418.5656565656566" type="curve" smooth="yes"/>
      <point x="575.3333333333333" y="1542.4242424242425"/>
      <point x="499.5353535353534" y="1609.6363636363635"/>
      <point x="331.3131313131313" y="1609.6363636363635" type="curve" smooth="yes"/>
      <point x="163.0909090909091" y="1609.6363636363635"/>
      <point x="87.29292929292933" y="1542.4242424242425"/>
      <point x="87.29292929292933" y="1418.5656565656566" type="curve" smooth="yes"/>
      <point x="87.29292929292933" y="1294.7070707070707"/>
      <point x="163.0909090909091" y="1227.7777777777778"/>
    </contour>
  </outline>
</glyph>
<glyph name="j" format="2">
  <advance width="662.6262626262626"/>
  <unicode hex="006A"/>
  <anchor x="322.7272727272727" y="1201.6969696969697" name="_top"/>
  <anchor x="322.7272727272727" y="1201.6969696969697" name="top"/>
  <outline>
    <contour>
      <point x="226.04040404040396" y="-473.73737373737373" type="line"/>
      <point x="454.72727272727263" y="-259.4141414141414"/>
      <point x="535.3131313131312" y="-57.393939393939405"/>
      <point x="535.3131313131312" y="192.3232323232323" type="curve" smooth="yes"/>
      <point x="535.3131313131312" y="1097.171717171717" type="line"/>
      <point x="127.31313131313135" y="1097.171717171717" type="line"/>
      <point x="127.31313131313135" y="178.02020202020202" type="line" smooth="yes"/>
      <point x="127.31313131313135" y="-31.373737373737384"/>
      <point x="87.07070707070709" y="-165.57575757575762"/>
      <point x="-28.020202020202014" y="-303.79797979797985" type="curve"/>
    </contour>
    <contour>
      <point x="322.7272727272727" y="1229.4747474747476" type="curve" smooth="yes"/>
      <point x="490.94949494949486" y="1229.4747474747476"/>
      <point x="566.7474747474746" y="1296.4040404040404"/>
      <point x="566.7474747474746" y="1420.2626262626263" type="curve" smooth="yes"/>
      <point x="566.7474747474746" y="1544.121212121212"/>
      <point x="490.94949494949486" y="1611.3333333333333"/>
      <point x="322.7272727272727" y="1611.3333333333333" type="curve" smooth="yes"/>
      <point x="154.50505050505052" y="1611.3333333333333"/>
      <point x="78.70707070707074" y="1544.121212121212"/>
      <point x="78.70707070707074" y="1420.2626262626263" type="curve" smooth="yes"/>
      <point x="78.70707070707074" y="1296.4040404040404"/>
      <point x="154.50505050505052" y="1229.4747474747476"/>
    </contour>
  </outline>
</glyph>
<glyph name="k" format="2">
  <advance width="1403.1111111111109"/>
  <unicode hex="006B"/>
  <anchor x="723.6767676767677" y="0.0" name="bottom"/>
  <anchor x="331.3131313131313" y="1616.0" name="top"/>
  <outline>
    <contour>
      <point x="991.6969696969697" y="0.0" type="line"/>
      <point x="1436.5858585858584" y="0.0" type="line"/>
      <point x="991.8585858585857" y="622.10101010101" type="line"/>
      <point x="991.8585858585857" y="524.8282828282828" type="line"/>
      <point x="1399.4343434343432" y="1097.171717171717" type="line"/>
      <point x="963.1313131313132" y="1097.171717171717" type="line"/>
      <point x="571.8585858585859" y="564.020202020202" type="line"/>
    </contour>
    <contour>
      <point x="505.57575757575745" y="399.79797979797985" type="line"/>
      <point x="712.3030303030303" y="399.79797979797985" type="line"/>
      <point x="712.3030303030303" y="728.2424242424242" type="line"/>
      <point x="505.57575757575745" y="728.2424242424242" type="line"/>
    </contour>
    <contour>
      <point x="127.31313131313135" y="0.0" type="line"/>
      <point x="535.3131313131312" y="0.0" type="line"/>
      <point x="535.3131313131312" y="1616.0" type="line"/>
      <point x="127.31313131313135" y="1616.0" type="line"/>
    </contour>
  </outline>
</glyph>
<glyph name="l" format="2">
  <advance width="662.6262626262626"/>
  <unicode hex="006C"/>
  <anchor x="329.5959595959596" y="0.0" name="bottom"/>
  <anchor x="640.9696969696969" y="1616.0" name="caronalt"/>
  <anchor x="835.5151515151514" y="794.0" name="periodcentered"/>
  <anchor x="331.3131313131313" y="714.0" name="slash"/>
  <anchor x="331.3131313131313" y="1616.0" name="top"/>
  <outline>
    <contour>
      <point x="127.31313131313135" y="0.0" type="line"/>
      <point x="535.3131313131312" y="0.0" type="line"/>
      <point x="535.3131313131312" y="1616.0" type="line"/>
      <point x="127.31313131313135" y="1616.0" type="line"/>
    </contour>
  </outline>
</glyph>
<glyph name="p" format="2">
  <advance width="1452.9494949494947"/>
  <unicode hex="0070"/>
  <outline>
    <contour>
      <point x="127.31313131313135" y="-440.0" type="line"/>
      <point x="535.3131313131312" y="-440.0" type="line"/>
      <point x="535.3131313131312" y="-11.171717171717166" type="line"/>
      <point x="588.4242424242424" y="-16.303030303030297"/>
      <point x="652.9494949494949" y="-21.434343434343432"/>
      <point x="717.7575757575756" y="-21.434343434343432" type="curve" smooth="yes"/>
      <point x="1127.7979797979797" y="-21.434343434343432"/>
      <point x="1378.181818181818" y="196.04040404040404"/>
      <point x="1378.181818181818" y="572.020202020202" type="curve" smooth="yes"/>
      <point x="1378.181818181818" y="956.5858585858585"/>
      <point x="1138.121212121212" y="1114.888888888889"/>
      <point x="851.2323232323232" y="1114.888888888889" type="curve" smooth="yes"/>
      <point x="705.2323232323231" y="1114.888888888889"/>
      <point x="589.2525252525252" y="1064.040404040404"/>
      <point x="506.9696969696969" y="987.2121212121212" type="curve"/>
      <point x="488.94949494949486" y="987.2121212121212" type="line"/>
      <point x="467.21212121212113" y="1097.171717171717" type="line"/>
      <point x="127.31313131313135" y="1097.171717171717" type="line"/>
    </contour>
    <contour>
      <point x="689.131313131313" y="281.53535353535347" type="curve" smooth="yes"/>
      <point x="631.1919191919192" y="281.53535353535347"/>
      <point x="576.4040404040402" y="288.3838383838383"/>
      <point x="535.3131313131312" y="296.36363636363626" type="curve"/>
      <point x="535.3131313131312" y="726.6464646464647" type="line"/>
      <point x="590.1010101010099" y="774.2222222222223"/>
      <point x="667.151515151515" y="793.0303030303031"/>
      <point x="739.0505050505051" y="793.0303030303031" type="curve" smooth="yes"/>
      <point x="880.3232323232323" y="793.0303030303031"/>
      <point x="974.7676767676768" y="725.979797979798"/>
      <point x="974.7676767676768" y="545.1313131313132" type="curve" smooth="yes"/>
      <point x="974.7676767676768" y="369.13131313131305"/>
      <point x="882.8888888888889" y="281.53535353535347"/>
    </contour>
  </outline>
</glyph>
<glyph name="q" format="2">
  <advance width="1452.9494949494947"/>
  <unicode hex="0071"/>
  <outline>
    <contour>
      <point x="917.6363636363636" y="-440.0" type="line"/>
      <point x="1325.6363636363635" y="-440.0" type="line"/>
      <point x="1325.6363636363635" y="1046.2828282828282" type="line"/>
      <point x="1179.292929292929" y="1090.3030303030303"/>
      <point x="973.131313131313" y="1114.888888888889"/>
      <point x="798.4646464646464" y="1114.888888888889" type="curve" smooth="yes"/>
      <point x="320.0" y="1114.888888888889"/>
      <point x="74.76767676767679" y="902.5656565656566"/>
      <point x="74.76767676767679" y="516.2828282828283" type="curve" smooth="yes"/>
      <point x="74.76767676767679" y="152.3232323232323"/>
      <point x="300.80808080808083" y="-21.434343434343432"/>
      <point x="567.959595959596" y="-21.434343434343432" type="curve" smooth="yes"/>
      <point x="706.5050505050506" y="-21.434343434343432"/>
      <point x="817.0505050505051" y="19.111111111111118"/>
      <point x="899.6161616161617" y="95.0909090909091" type="curve"/>
      <point x="917.6363636363636" y="95.0909090909091" type="line"/>
    </contour>
    <contour>
      <point x="714.4848484848485" y="300.4242424242423" type="curve" smooth="yes"/>
      <point x="570.9090909090908" y="300.4242424242423"/>
      <point x="478.1818181818181" y="367.4747474747474"/>
      <point x="478.1818181818181" y="544.8888888888889" type="curve" smooth="yes"/>
      <point x="478.1818181818181" y="726.0404040404042"/>
      <point x="576.9292929292928" y="813.6363636363637"/>
      <point x="761.2727272727273" y="813.6363636363637" type="curve" smooth="yes"/>
      <point x="823.4747474747475" y="813.6363636363637"/>
      <point x="876.5454545454545" y="806.5050505050506"/>
      <point x="917.6363636363636" y="796.8080808080808" type="curve"/>
      <point x="917.6363636363636" y="356.5252525252525" type="line"/>
      <point x="859.4141414141413" y="317.51515151515144"/>
      <point x="784.9494949494949" y="300.4242424242423"/>
    </contour>
  </outline>
</glyph>
<glyph name="v" format="2">
  <advance width="1382.7070707070707"/>
  <unicode hex="0076"/>
  <anchor x="691.6363636363635" y="0.0" name="bottom"/>
  <anchor x="691.6363636363635" y="1200.0" name="top"/>
  <outline>
    <contour>
      <point x="444.44444444444446" y="0.0" type="line"/>
      <point x="936.5454545454544" y="0.0" type="line"/>
      <point x="1389.3535353535353" y="1097.171717171717" type="line"/>
      <point x="991.3737373737374" y="1097.171717171717" type="line"/>
      <point x="695.9393939393939" y="323.05050505050497" type="line"/>
      <point x="718.5252525252524" y="323.05050505050497" type="line"/>
      <point x="423.09090909090895" y="1097.171717171717" type="line"/>
      <point x="-6.646464646464629" y="1097.171717171717" type="line"/>
    </contour>
  </outline>
</glyph>
<glyph name="w" format="2">
  <advance width="2101.0707070707067"/>
  <unicode hex="0077"/>
  <anchor x="1051.6767676767677" y="0.0" name="bottom"/>
  <anchor x="1051.6767676767677" y="1200.0" name="top"/>
  <outline>
    <contour>
      <point x="382.72727272727275" y="0.0" type="line"/>
      <point x="837.3333333333333" y="0.0" type="line"/>
      <point x="1063.111111111111" y="771.838383838384" type="line"/>
      <point x="1046.5454545454545" y="771.838383838384" type="line"/>
      <point x="1265.7373737373737" y="0.0" type="line"/>
      <point x="1720.3434343434342" y="0.0" type="line"/>
      <point x="2037.1111111111109" y="1097.171717171717" type="line"/>
      <point x="1662.888888888889" y="1097.171717171717" type="line"/>
      <point x="1463.7171717171716" y="374.8484848484847" type="line"/>
      <point x="1488.3030303030303" y="374.8484848484847" type="line"/>
      <point x="1286.5656565656564" y="1097.171717171717" type="line"/>
      <point x="831.959595959596" y="1097.171717171717" type="line"/>
      <point x="627.070707070707" y="376.5656565656564" type="line"/>
      <point x="643.070707070707" y="376.5656565656564" type="line"/>
      <point x="455.6363636363635" y="1097.171717171717" type="line"/>
      <point x="63.95959595959597" y="1097.171717171717" type="line"/>
    </contour>
  </outline>
</glyph>
<glyph name="x" format="2">
  <advance width="1319.2323232323233"/>
  <unicode hex="0078"/>
  <anchor x="659.8989898989898" y="0.0" name="bottom"/>
  <anchor x="659.8989898989898" y="1200.0" name="top"/>
  <outline>
    <contour>
      <point x="871.5555555555557" y="0.0" type="line"/>
      <point x="1322.4444444444443" y="0.0" type="line"/>
      <point x="892.7878787878788" y="558.020202020202" type="line"/>
      <point x="665.0505050505051" y="819.2323232323231" type="line"/>
      <point x="454.80808080808066" y="1097.171717171717" type="line"/>
      <point x="3.919191919191938" y="1097.171717171717" type="line"/>
      <point x="423.29292929292933" y="552.5858585858585" type="line"/>
      <point x="656.1818181818181" y="291.3737373737374" type="line"/>
    </contour>
    <contour>
      <point x="-4.3636363636363455" y="0.0" type="line"/>
      <point x="434.5050505050504" y="0.0" type="line"/>
      <point x="656.1818181818181" y="291.3737373737374" type="line"/>
      <point x="892.7878787878788" y="558.020202020202" type="line"/>
      <point x="1308.7272727272725" y="1097.171717171717" type="line"/>
      <point x="870.4242424242425" y="1097.171717171717" type="line"/>
      <point x="665.0505050505051" y="819.2323232323231" type="line"/>
      <point x="423.29292929292933" y="552.5858585858585" type="line"/>
    </contour>
  </outline>
</glyph>
<glyph name="z" format="2">
  <advance width="1233.5555555555554"/>
  <unicode hex="007A"/>
  <anchor x="628.2222222222222" y="0.0" name="bottom"/>
  <anchor x="628.2222222222222" y="1200.0" name="top"/>
  <outline>
    <contour>
      <point x="88.6060606060606" y="0.0" type="line"/>
      <point x="1166.121212121212" y="0.0" type="line"/>
      <point x="1166.121212121212" y="318.14141414141403" type="line"/>
      <point x="568.9898989898988" y="318.14141414141403" type="line"/>
      <point x="568.9898989898988" y="252.92929292929284" type="line"/>
      <point x="1155.5555555555554" y="833.939393939394" type="line"/>
      <point x="1155.5555555555554" y="1097.171717171717" type="line"/>
      <point x="99.17171717171716" y="1097.171717171717" type="line"/>
      <point x="99.17171717171716" y="779.0303030303031" type="line"/>
      <point x="675.1717171717172" y="779.0303030303031" type="line"/>
      <point x="675.1717171717172" y="844.2424242424242" type="line"/>
      <point x="88.6060606060606" y="263.23232323232315" type="line"/>
    </contour>
  </outline>
</glyph>
<glyph name="braceleft" format="2">
  <advance width="855.8989898989898"/>
  <unicode hex="007B"/>
  <outline>
    <contour>
      <point x="679.7373737373737" y="-460.0" type="curve" smooth="yes"/>
      <point x="758.0808080808081" y="-460.0"/>
      <point x="822.969696969697" y="-454.2828282828283"/>
      <point x="880.4444444444445" y="-446.5656565656566" type="curve"/>
      <point x="880.4444444444445" y="-136.42424242424255" type="line"/>
      <point x="754.7272727272726" y="-136.42424242424255" type="line" smooth="yes"/>
      <point x="659.4949494949494" y="-136.42424242424255"/>
      <point x="610.161616161616" y="-102.50505050505058"/>
      <point x="610.161616161616" y="-5.272727272727337" type="curve" smooth="yes"/>
      <point x="610.161616161616" y="355.11111111111114" type="line" smooth="yes"/>
      <point x="610.161616161616" y="545.4545454545455"/>
      <point x="500.6262626262626" y="648.3636363636364"/>
      <point x="235.49494949494948" y="652.040404040404" type="curve"/>
      <point x="235.49494949494948" y="609.1313131313132" type="line"/>
      <point x="500.6262626262626" y="612.8080808080808"/>
      <point x="610.161616161616" y="715.7171717171717"/>
      <point x="610.161616161616" y="906.060606060606" type="curve" smooth="yes"/>
      <point x="610.161616161616" y="1181.2727272727273" type="line" smooth="yes"/>
      <point x="610.161616161616" y="1278.5050505050506"/>
      <point x="659.4949494949494" y="1312.4242424242425"/>
      <point x="754.7272727272726" y="1312.4242424242425" type="curve" smooth="yes"/>
      <point x="880.4444444444445" y="1312.4242424242425" type="line"/>
      <point x="880.4444444444445" y="1622.5656565656566" type="line"/>
      <point x="822.969696969697" y="1630.2828282828282"/>
      <point x="758.0808080808081" y="1636.0"/>
      <point x="679.7373737373737" y="1636.0" type="curve" smooth="yes"/>
      <point x="363.3535353535354" y="1636.0"/>
      <point x="202.1616161616162" y="1485.3737373737374"/>
      <point x="202.1616161616162" y="1211.3333333333335" type="curve" smooth="yes"/>
      <point x="202.1616161616162" y="918.6868686868687" type="line" smooth="yes"/>
      <point x="202.1616161616162" y="838.5050505050505"/>
      <point x="152.18181818181822" y="789.6565656565656"/>
      <point x="73.41414141414143" y="789.6565656565656" type="curve" smooth="yes"/>
      <point x="6.202020202020222" y="789.6565656565656" type="line"/>
      <point x="6.202020202020222" y="471.51515151515156" type="line"/>
      <point x="73.41414141414143" y="471.51515151515156" type="line" smooth="yes"/>
      <point x="152.18181818181822" y="471.51515151515156"/>
      <point x="202.1616161616162" y="422.66666666666674"/>
      <point x="202.1616161616162" y="342.4848484848485" type="curve" smooth="yes"/>
      <point x="202.1616161616162" y="-35.33333333333337" type="line" smooth="yes"/>
      <point x="202.1616161616162" y="-309.3737373737374"/>
      <point x="363.3535353535354" y="-460.0"/>
    </contour>
  </outline>
</glyph>
<glyph name="bar" format="2">
  <advance width="654.5454545454545"/>
  <unicode hex="007C"/>
  <outline>
    <contour>
      <point x="142.1616161616162" y="-440.0" type="line"/>
      <point x="512.3838383838383" y="-440.0" type="line"/>
      <point x="512.3838383838383" y="1616.0" type="line"/>
      <point x="142.1616161616162" y="1616.0" type="line"/>
    </contour>
  </outline>
</glyph>
<glyph name="braceright" format="2">
  <advance width="855.8989898989898"/>
  <unicode hex="007D"/>
  <outline>
    <contour>
      <point x="176.1616161616161" y="-460.0" type="curve" smooth="yes"/>
      <point x="492.5454545454545" y="-460.0"/>
      <point x="653.7373737373737" y="-309.3737373737374"/>
      <point x="653.7373737373737" y="-35.33333333333337" type="curve" smooth="yes"/>
      <point x="653.7373737373737" y="342.4848484848485" type="line" smooth="yes"/>
      <point x="653.7373737373737" y="422.66666666666674"/>
      <point x="703.7171717171716" y="471.51515151515156"/>
      <point x="782.4848484848485" y="471.51515151515156" type="curve" smooth="yes"/>
      <point x="849.6969696969696" y="471.51515151515156" type="line"/>
      <point x="849.6969696969696" y="789.6565656565656" type="line"/>
      <point x="782.4848484848485" y="789.6565656565656" type="line" smooth="yes"/>
      <point x="703.7171717171716" y="789.6565656565656"/>
      <point x="653.7373737373737" y="838.5050505050505"/>
      <point x="653.7373737373737" y="918.6868686868687" type="curve" smooth="yes"/>
      <point x="653.7373737373737" y="1211.3333333333335" type="line" smooth="yes"/>
      <point x="653.7373737373737" y="1485.3737373737374"/>
      <point x="492.5454545454545" y="1636.0"/>
      <point x="176.1616161616161" y="1636.0" type="curve" smooth="yes"/>
      <point x="97.8181818181818" y="1636.0"/>
      <point x="32.92929292929291" y="1630.2828282828282"/>
      <point x="-24.54545454545455" y="1622.5656565656566" type="curve"/>
      <point x="-24.54545454545455" y="1312.4242424242425" type="line"/>
      <point x="101.17171717171716" y="1312.4242424242425" type="line" smooth="yes"/>
      <point x="196.40404040404044" y="1312.4242424242425"/>
      <point x="245.73737373737382" y="1278.5050505050506"/>
      <point x="245.73737373737382" y="1181.2727272727273" type="curve" smooth="yes"/>
      <point x="245.73737373737382" y="906.060606060606" type="line" smooth="yes"/>
      <point x="245.73737373737382" y="715.7171717171717"/>
      <point x="355.2727272727273" y="612.8080808080808"/>
      <point x="620.4040404040404" y="609.1313131313132" type="curve"/>
      <point x="620.4040404040404" y="652.040404040404" type="line"/>
      <point x="355.2727272727273" y="648.3636363636364"/>
      <point x="245.73737373737382" y="545.4545454545455"/>
      <point x="245.73737373737382" y="355.11111111111114" type="curve" smooth="yes"/>
      <point x="245.73737373737382" y="-5.272727272727337" type="line" smooth="yes"/>
      <point x="245.73737373737382" y="-102.50505050505058"/>
      <point x="196.40404040404044" y="-136.42424242424255"/>
      <point x="101.17171717171716" y="-136.42424242424255" type="curve" smooth="yes"/>
      <point x="-24.54545454545455" y="-136.42424242424255" type="line"/>
      <point x="-24.54545454545455" y="-446.5656565656566" type="line"/>
      <point x="32.92929292929291" y="-454.2828282828283"/>
      <point x="97.8181818181818" y="-460.0"/>
    </contour>
  </outline>
</glyph>
<glyph name="asciitilde" format="2">
  <advance width="1183.5555555555554"/>
  <unicode hex="007E"/>
  <outline>
    <contour>
      <point x="801.5555555555555" y="552.3838383838385" type="curve" smooth="yes"/>
      <point x="912.1818181818181" y="552.3838383838385"/>
      <point x="990.7676767676767" y="582.6666666666667"/>
      <point x="1058.8080808080808" y="652.6868686868687" type="curve"/>
      <point x="1058.8080808080808" y="957.9191919191919" type="line"/>
      <point x="977.3333333333333" y="880.7676767676767"/>
      <point x="903.030303030303" y="848.2020202020201"/>
      <point x="804.7070707070707" y="848.2020202020201" type="curve" smooth="yes"/>
      <point x="671.5151515151515" y="848.2020202020201"/>
      <point x="548.3434343434343" y="965.9191919191919"/>
      <point x="382.0" y="965.9191919191919" type="curve" smooth="yes"/>
      <point x="271.3737373737374" y="965.9191919191919"/>
      <point x="192.7878787878788" y="935.6363636363636"/>
      <point x="124.74747474747477" y="865.6161616161615" type="curve"/>
      <point x="124.74747474747477" y="560.3838383838385" type="line"/>
      <point x="206.22222222222223" y="637.5353535353536"/>
      <point x="280.52525252525254" y="670.1010101010102"/>
      <point x="378.8484848484849" y="670.1010101010102" type="curve" smooth="yes"/>
      <point x="512.040404040404" y="670.1010101010102"/>
      <point x="635.2121212121212" y="552.3838383838385"/>
    </contour>
  </outline>
</glyph>
<glyph name="exclamdown" format="2">
  <advance width="701.4949494949494"/>
  <unicode hex="00A1"/>
  <outline>
    <contour>
      <point x="230.58585858585857" y="561.3737373737374" type="line"/>
      <point x="136.1616161616162" y="98.98989898989902" type="line"/>
      <point x="136.1616161616162" y="-380.0" type="line"/>
      <point x="565.3333333333333" y="-380.0" type="line"/>
      <point x="565.3333333333333" y="98.98989898989902" type="line"/>
      <point x="476.060606060606" y="561.3737373737374" type="line"/>
    </contour>
    <contour>
      <point x="350.7474747474747" y="1115.7575757575758" type="curve" smooth="yes"/>
      <point x="189.3939393939394" y="1115.7575757575758"/>
      <point x="92.98989898989902" y="1028.2222222222222"/>
      <point x="92.98989898989902" y="887.1919191919193" type="curve" smooth="yes"/>
      <point x="92.98989898989902" y="746.1616161616163"/>
      <point x="185.95959595959596" y="658.3434343434344"/>
      <point x="350.7474747474747" y="658.3434343434344" type="curve" smooth="yes"/>
      <point x="515.5353535353534" y="658.3434343434344"/>
      <point x="608.5050505050503" y="749.5959595959597"/>
      <point x="608.5050505050503" y="887.1919191919193" type="curve" smooth="yes"/>
      <point x="608.5050505050503" y="1024.7878787878788"/>
      <point x="512.1010101010099" y="1115.7575757575758"/>
    </contour>
  </outline>
</glyph>
<glyph name="cent" format="2">
  <advance width="1168.6262626262626"/>
  <unicode hex="00A2"/>
  <outline>
    <contour>
      <point x="765.9797979797979" y="-21.434343434343432" type="curve" smooth="yes"/>
      <point x="894.6060606060605" y="-21.434343434343432"/>
      <point x="1010.060606060606" y="-3.434343434343433"/>
      <point x="1094.040404040404" y="22.26262626262627" type="curve"/>
      <point x="1094.040404040404" y="330.6666666666666" type="line"/>
      <point x="971.7373737373737" y="304.4040404040403"/>
      <point x="896.9090909090908" y="293.55555555555543"/>
      <point x="808.0404040404039" y="293.55555555555543" type="curve" smooth="yes"/>
      <point x="598.4242424242423" y="293.55555555555543"/>
      <point x="490.2020202020201" y="379.1717171717171"/>
      <point x="490.2020202020201" y="545.7171717171717" type="curve" smooth="yes"/>
      <point x="490.2020202020201" y="712.8484848484849"/>
      <point x="589.8383838383837" y="799.89898989899"/>
      <point x="830.3030303030303" y="799.89898989899" type="curve" smooth="yes"/>
      <point x="922.3030303030303" y="799.89898989899"/>
      <point x="998.3030303030303" y="791.0505050505051"/>
      <point x="1094.040404040404" y="775.6363636363637" type="curve"/>
      <point x="1094.040404040404" y="1084.040404040404" type="line"/>
      <point x="1003.4545454545454" y="1104.6060606060605"/>
      <point x="904.8484848484848" y="1114.888888888889"/>
      <point x="789.3737373737373" y="1114.888888888889" type="curve" smooth="yes"/>
      <point x="322.3030303030303" y="1114.888888888889"/>
      <point x="74.76767676767679" y="908.2626262626263"/>
      <point x="74.76767676767679" y="545.1515151515151" type="curve" smooth="yes"/>
      <point x="74.76767676767679" y="181.75757575757575"/>
      <point x="315.73737373737373" y="-21.434343434343432"/>
    </contour>
    <contour>
      <point x="541.6565656565657" y="-240.0" type="line"/>
      <point x="894.141414141414" y="-240.0" type="line"/>
      <point x="894.141414141414" y="51.515151515151494" type="line"/>
      <point x="541.6565656565657" y="51.515151515151494" type="line"/>
    </contour>
    <contour>
      <point x="541.6565656565657" y="1045.6565656565656" type="line"/>
      <point x="894.141414141414" y="1045.6565656565656" type="line"/>
      <point x="894.141414141414" y="1337.171717171717" type="line"/>
      <point x="541.6565656565657" y="1337.171717171717" type="line"/>
    </contour>
  </outline>
</glyph>
<glyph name="sterling" format="2">
  <advance width="1557.4141414141413"/>
  <unicode hex="00A3"/>
  <outline>
    <contour>
      <point x="297.0707070707071" y="110.98989898989896" type="line"/>
      <point x="696.4848484848484" y="110.98989898989896" type="line"/>
      <point x="696.4848484848484" y="981.0505050505051" type="line" smooth="yes"/>
      <point x="696.4848484848484" y="1127.3737373737374"/>
      <point x="776.6262626262626" y="1179.5757575757577"/>
      <point x="1041.7171717171716" y="1179.5757575757577" type="curve" smooth="yes"/>
      <point x="1167.4343434343434" y="1179.5757575757577"/>
      <point x="1320.3434343434342" y="1159.858585858586"/>
      <point x="1423.7373737373737" y="1130.4444444444446" type="curve"/>
      <point x="1423.7373737373737" y="1456.020202020202" type="line"/>
      <point x="1316.6060606060605" y="1481.7171717171718"/>
      <point x="1175.151515151515" y="1499.7171717171718"/>
      <point x="1021.6767676767677" y="1499.7171717171718" type="curve" smooth="yes"/>
      <point x="534.5858585858585" y="1499.7171717171718"/>
      <point x="297.0707070707071" y="1315.0707070707072"/>
      <point x="297.0707070707071" y="958.7272727272727" type="curve" smooth="yes"/>
    </contour>
    <contour>
      <point x="88.58585858585859" y="0.0" type="line"/>
      <point x="1481.7575757575755" y="0.0" type="line"/>
      <point x="1481.7575757575755" y="309.55555555555543" type="line"/>
      <point x="88.58585858585859" y="309.55555555555543" type="line"/>
    </contour>
    <contour>
      <point x="88.58585858585859" y="608.1010101010102" type="line"/>
      <point x="1189.3939393939395" y="608.1010101010102" type="line"/>
      <point x="1189.3939393939395" y="891.8989898989898" type="line"/>
      <point x="88.58585858585859" y="891.8989898989898" type="line"/>
    </contour>
  </outline>
</glyph>
<glyph name="yen" format="2">
  <advance width="1494.6262626262626"/>
  <unicode hex="00A5"/>
  <outline>
    <contour>
      <point x="541.5959595959596" y="0.0" type="line"/>
      <point x="959.8989898989898" y="0.0" type="line"/>
      <point x="959.8989898989898" y="766.10101010101" type="line"/>
      <point x="878.080808080808" y="492.30303030303037" type="line"/>
      <point x="1528.9898989898988" y="1480.0" type="line"/>
      <point x="1115.2929292929293" y="1480.0" type="line"/>
      <point x="698.4040404040404" y="849.9393939393939" type="line"/>
      <point x="817.3939393939393" y="849.9393939393939" type="line"/>
      <point x="391.9191919191918" y="1480.0" type="line"/>
      <point x="-51.53535353535351" y="1480.0" type="line"/>
      <point x="623.4141414141415" y="492.30303030303037" type="line"/>
      <point x="541.5959595959596" y="771.2525252525252" type="line"/>
    </contour>
    <contour>
      <point x="210.1818181818182" y="235.8585858585859" type="line"/>
      <point x="1291.3131313131312" y="235.8585858585859" type="line"/>
      <point x="1291.3131313131312" y="459.55555555555554" type="line"/>
      <point x="210.1818181818182" y="459.55555555555554" type="line"/>
    </contour>
    <contour>
      <point x="210.1818181818182" y="588.4444444444445" type="line"/>
      <point x="1291.3131313131312" y="588.4444444444445" type="line"/>
      <point x="1291.3131313131312" y="812.1414141414141" type="line"/>
      <point x="210.1818181818182" y="812.1414141414141" type="line"/>
    </contour>
  </outline>
</glyph>
<glyph name="brokenbar" format="2">
  <advance width="654.5454545454545"/>
  <unicode hex="00A6"/>
  <outline>
    <contour>
      <point x="142.1616161616162" y="836.0" type="line"/>
      <point x="512.3838383838383" y="836.0" type="line"/>
      <point x="512.3838383838383" y="1616.0" type="line"/>
      <point x="142.1616161616162" y="1616.0" type="line"/>
    </contour>
    <contour>
      <point x="142.1616161616162" y="-440.0" type="line"/>
      <point x="512.3838383838383" y="-440.0" type="line"/>
      <point x="512.3838383838383" y="340.0" type="line"/>
      <point x="142.1616161616162" y="340.0" type="line"/>
    </contour>
  </outline>
</glyph>
<glyph name="section" format="2">
  <advance width="1327.232323232323"/>
  <unicode hex="00A7"/>
  <outline>
    <contour>
      <point x="562.6868686868687" y="-21.434343434343432" type="curve" smooth="yes"/>
      <point x="972.020202020202" y="-21.434343434343432"/>
      <point x="1158.9696969696968" y="117.17171717171716"/>
      <point x="1158.9696969696968" y="340.38383838383834" type="curve" smooth="yes"/>
      <point x="1158.9696969696968" y="509.55555555555554"/>
      <point x="1036.9090909090908" y="595.2727272727273"/>
      <point x="840.080808080808" y="628.1212121212121" type="curve" smooth="yes"/>
      <point x="552.1616161616162" y="675.2929292929292" type="line" smooth="yes"/>
      <point x="463.7373737373737" y="690.1212121212121"/>
      <point x="437.7777777777777" y="725.7575757575758"/>
      <point x="437.7777777777777" y="769.3737373737374" type="curve" smooth="yes"/>
      <point x="437.7777777777777" y="797.2929292929293"/>
      <point x="451.1717171717171" y="832.1010101010102"/>
      <point x="494.5454545454545" y="877.5353535353536" type="curve"/>
      <point x="294.86868686868684" y="1010.5454545454545" type="line"/>
      <point x="173.0909090909091" y="949.6767676767677"/>
      <point x="101.89898989898992" y="862.8080808080808"/>
      <point x="101.89898989898992" y="741.6161616161617" type="curve" smooth="yes"/>
      <point x="101.89898989898992" y="557.2727272727274"/>
      <point x="230.26262626262627" y="461.2727272727273"/>
      <point x="421.0909090909091" y="430.1414141414142" type="curve" smooth="yes"/>
      <point x="707.2929292929293" y="384.6868686868687" type="line" smooth="yes"/>
      <point x="770.2424242424242" y="375.01010101010104"/>
      <point x="793.3333333333334" y="354.22222222222223"/>
      <point x="793.3333333333334" y="315.2121212121212" type="curve" smooth="yes"/>
      <point x="793.3333333333334" y="271.090909090909"/>
      <point x="750.5656565656566" y="236.8888888888888"/>
      <point x="556.6666666666666" y="236.8888888888888" type="curve" smooth="yes"/>
      <point x="424.6262626262626" y="236.8888888888888"/>
      <point x="289.6969696969697" y="250.32323232323225"/>
      <point x="158.82828282828285" y="282.8888888888888" type="curve"/>
      <point x="158.82828282828285" y="24.282828282828284" type="line"/>
      <point x="281.4343434343434" y="-6.0"/>
      <point x="439.5353535353535" y="-21.434343434343432"/>
    </contour>
    <contour>
      <point x="1014.8888888888888" y="459.7171717171717" type="line"/>
      <point x="1145.5555555555554" y="522.3030303030303"/>
      <point x="1225.3333333333333" y="612.040404040404"/>
      <point x="1225.3333333333333" y="740.3838383838383" type="curve" smooth="yes"/>
      <point x="1225.3333333333333" y="926.7272727272727"/>
      <point x="1103.272727272727" y="1017.8787878787879"/>
      <point x="908.161616161616" y="1047.2929292929293" type="curve" smooth="yes"/>
      <point x="604.7878787878788" y="1091.030303030303" type="line" smooth="yes"/>
      <point x="542.121212121212" y="1100.7070707070707"/>
      <point x="516.7272727272726" y="1122.3232323232323"/>
      <point x="516.7272727272726" y="1157.3535353535353" type="curve" smooth="yes"/>
      <point x="516.7272727272726" y="1196.6262626262628"/>
      <point x="563.7979797979797" y="1239.3939393939395"/>
      <point x="823.7979797979797" y="1239.3939393939395" type="curve" smooth="yes"/>
      <point x="922.9494949494948" y="1239.3939393939395"/>
      <point x="1019.5555555555554" y="1229.3939393939395"/>
      <point x="1116.969696969697" y="1207.9797979797981" type="curve"/>
      <point x="1116.969696969697" y="1466.5858585858587" type="line"/>
      <point x="1024.969696969697" y="1485.7171717171718"/>
      <point x="900.9090909090908" y="1497.7171717171718"/>
      <point x="791.1717171717171" y="1497.7171717171718" type="curve" smooth="yes"/>
      <point x="324.6060606060606" y="1497.7171717171718"/>
      <point x="151.0909090909091" y="1352.5454545454545"/>
      <point x="151.0909090909091" y="1133.030303030303" type="curve" smooth="yes"/>
      <point x="151.0909090909091" y="974.4444444444445"/>
      <point x="277.73737373737373" y="882.1616161616162"/>
      <point x="489.17171717171715" y="847.5959595959596" type="curve" smooth="yes"/>
      <point x="775.3737373737374" y="800.4242424242425" type="line" smooth="yes"/>
      <point x="864.0808080808081" y="785.5959595959596"/>
      <point x="889.4545454545455" y="750.7878787878788"/>
      <point x="889.4545454545455" y="703.1919191919192" type="curve" smooth="yes"/>
      <point x="889.4545454545455" y="659.2525252525252"/>
      <point x="864.040404040404" y="629.8787878787879"/>
      <point x="802.060606060606" y="583.2929292929292" type="curve"/>
    </contour>
  </outline>
</glyph>
<glyph name="copyright" format="2">
  <advance width="1681.5757575757575"/>
  <unicode hex="00A9"/>
  <outline>
    <contour>
      <point x="840.7878787878788" y="-22.0" type="curve" smooth="yes"/>
      <point x="1291.939393939394" y="-22.0"/>
      <point x="1589.939393939394" y="282.0"/>
      <point x="1589.939393939394" y="740.0" type="curve" smooth="yes"/>
      <point x="1589.939393939394" y="1198.0"/>
      <point x="1291.939393939394" y="1502.0"/>
      <point x="840.7878787878788" y="1502.0" type="curve" smooth="yes"/>
      <point x="389.6363636363636" y="1502.0"/>
      <point x="91.63636363636365" y="1198.0"/>
      <point x="91.63636363636365" y="740.0" type="curve" smooth="yes"/>
      <point x="91.63636363636365" y="282.0"/>
      <point x="389.6363636363636" y="-22.0"/>
    </contour>
    <contour>
      <point x="905.6969696969697" y="324.0" type="curve" smooth="yes"/>
      <point x="987.1313131313132" y="324.0"/>
      <point x="1059.1313131313132" y="336.0"/>
      <point x="1111.6767676767677" y="355.6969696969697" type="curve"/>
      <point x="1111.6767676767677" y="579.6767676767677" type="line"/>
      <point x="1033.111111111111" y="559.6969696969696"/>
      <point x="986.8686868686868" y="553.131313131313"/>
      <point x="930.5858585858585" y="553.131313131313" type="curve" smooth="yes"/>
      <point x="806.7070707070707" y="553.131313131313"/>
      <point x="736.2222222222222" y="615.050505050505"/>
      <point x="736.2222222222222" y="732.8484848484849" type="curve" smooth="yes"/>
      <point x="736.2222222222222" y="851.5151515151515"/>
      <point x="801.5555555555555" y="914.868686868687"/>
      <point x="944.0" y="914.868686868687" type="curve" smooth="yes"/>
      <point x="1001.979797979798" y="914.868686868687"/>
      <point x="1051.3939393939395" y="908.3030303030304"/>
      <point x="1111.6767676767677" y="897.1717171717172" type="curve"/>
      <point x="1111.6767676767677" y="1121.1515151515152" type="line"/>
      <point x="1054.5454545454545" y="1136.0"/>
      <point x="992.8282828282828" y="1144.0"/>
      <point x="919.6767676767677" y="1144.0" type="curve" smooth="yes"/>
      <point x="641.939393939394" y="1144.0"/>
      <point x="468.4646464646465" y="992.5656565656566"/>
      <point x="468.4646464646465" y="732.2828282828283" type="curve" smooth="yes"/>
      <point x="468.4646464646465" y="472.3030303030303"/>
      <point x="639.6363636363636" y="324.0"/>
    </contour>
    <contour>
      <point x="840.7878787878788" y="169.63636363636357" type="curve" smooth="yes"/>
      <point x="493.17171717171715" y="169.63636363636357"/>
      <point x="291.8585858585858" y="388.96969696969694"/>
      <point x="291.8585858585858" y="740.0" type="curve" smooth="yes"/>
      <point x="291.8585858585858" y="1091.030303030303"/>
      <point x="493.17171717171715" y="1310.3636363636365"/>
      <point x="840.7878787878788" y="1310.3636363636365" type="curve" smooth="yes"/>
      <point x="1188.4040404040404" y="1310.3636363636365"/>
      <point x="1389.7171717171718" y="1091.030303030303"/>
      <point x="1389.7171717171718" y="740.0" type="curve" smooth="yes"/>
      <point x="1389.7171717171718" y="388.96969696969694"/>
      <point x="1188.4040404040404" y="169.63636363636357"/>
    </contour>
  </outline>
</glyph>
<glyph name="ordfeminine" format="2">
  <advance width="1099.6969696969695"/>
  <unicode hex="00AA"/>
  <outline>
    <contour>
      <point x="393.13131313131316" y="592.5656565656566" type="curve" smooth="yes"/>
      <point x="498.52525252525254" y="592.5656565656566"/>
      <point x="598.2020202020202" y="623.6767676767677"/>
      <point x="659.89898989899" y="688.5252525252525" type="curve"/>
      <point x="676.2020202020202" y="688.5252525252525" type="line"/>
      <point x="702.8080808080808" y="610.0" type="line"/>
      <point x="1019.8181818181818" y="610.0" type="line"/>
      <point x="1019.8181818181818" y="1067.2121212121212" type="line" smooth="yes"/>
      <point x="1019.8181818181818" y="1391.090909090909"/>
      <point x="862.9090909090909" y="1500.5858585858587"/>
      <point x="486.3636363636364" y="1500.5858585858587" type="curve" smooth="yes"/>
      <point x="380.34343434343435" y="1500.5858585858587"/>
      <point x="247.43434343434342" y="1488.3030303030303"/>
      <point x="131.0909090909091" y="1458.3030303030303" type="curve"/>
      <point x="131.0909090909091" y="1205.4141414141416" type="line"/>
      <point x="220.7878787878788" y="1229.1111111111113"/>
      <point x="330.80808080808083" y="1242.828282828283"/>
      <point x="419.1111111111111" y="1242.828282828283" type="curve" smooth="yes"/>
      <point x="602.8282828282829" y="1242.828282828283"/>
      <point x="641.5757575757576" y="1206.848484848485"/>
      <point x="641.5757575757576" y="1129.030303030303" type="curve" smooth="yes"/>
      <point x="641.5757575757576" y="846.3838383838383" type="line"/>
      <point x="605.0909090909091" y="829.070707070707"/>
      <point x="561.4949494949494" y="821.131313131313"/>
      <point x="525.9191919191919" y="821.131313131313" type="curve" smooth="yes"/>
      <point x="446.9090909090908" y="821.131313131313"/>
      <point x="414.6868686868686" y="851.070707070707"/>
      <point x="414.6868686868686" y="893.8181818181818" type="curve" smooth="yes"/>
      <point x="414.6868686868686" y="937.7171717171717"/>
      <point x="443.75757575757564" y="964.8080808080808"/>
      <point x="529.2929292929293" y="969.6363636363636" type="curve" smooth="yes"/>
      <point x="745.9797979797979" y="979.8787878787879" type="line"/>
      <point x="706.7676767676768" y="1142.6262626262626" type="line"/>
      <point x="465.47474747474746" y="1130.6666666666667" type="line" smooth="yes"/>
      <point x="167.93939393939394" y="1118.4040404040404"/>
      <point x="41.03030303030306" y="1028.3838383838383"/>
      <point x="41.03030303030306" y="855.4747474747475" type="curve" smooth="yes"/>
      <point x="41.03030303030306" y="704.6060606060606"/>
      <point x="145.5959595959596" y="592.5656565656566"/>
    </contour>
  </outline>
</glyph>
<glyph name="guillemetleft" format="2">
  <advance width="1487.010101010101"/>
  <unicode hex="00AB"/>
  <outline>
    <contour>
      <point x="384.1414141414142" y="131.41414141414143" type="line"/>
      <point x="807.5757575757575" y="131.41414141414143" type="line"/>
      <point x="505.8989898989898" y="568.5858585858585" type="line"/>
      <point x="807.5757575757575" y="1005.7575757575758" type="line"/>
      <point x="384.1414141414142" y="1005.7575757575758" type="line"/>
      <point x="82.46464646464649" y="568.5858585858585" type="line"/>
    </contour>
    <contour>
      <point x="1021.1111111111111" y="131.41414141414143" type="line"/>
      <point x="1444.5454545454545" y="131.41414141414143" type="line"/>
      <point x="1142.8686868686866" y="568.5858585858585" type="line"/>
      <point x="1444.5454545454545" y="1005.7575757575758" type="line"/>
      <point x="1021.1111111111111" y="1005.7575757575758" type="line"/>
      <point x="719.4343434343434" y="568.5858585858585" type="line"/>
    </contour>
  </outline>
</glyph>
<glyph name="logicalnot" format="2">
  <advance width="1424.5656565656566"/>
  <unicode hex="00AC"/>
  <outline>
    <contour>
      <point x="991.3939393939395" y="207.45454545454544" type="line"/>
      <point x="1306.6666666666667" y="207.45454545454544" type="line"/>
      <point x="1306.6666666666667" y="910.4848484848484" type="line"/>
      <point x="124.74747474747477" y="910.4848484848484" type="line"/>
      <point x="124.74747474747477" y="609.5151515151516" type="line"/>
      <point x="991.3939393939395" y="609.5151515151516" type="line"/>
    </contour>
  </outline>
</glyph>
<glyph name="softhyphen" format="2">
  <advance width="1117.4747474747473"/>
  <unicode hex="00AD"/>
  <outline>
    <contour>
      <point x="124.74747474747477" y="404.36363636363643" type="line"/>
      <point x="992.7272727272726" y="404.36363636363643" type="line"/>
      <point x="992.7272727272726" y="732.8080808080807" type="line"/>
      <point x="124.74747474747477" y="732.8080808080807" type="line"/>
    </contour>
  </outline>
</glyph>
<glyph name="registered" format="2">
  <advance width="1454.6262626262626"/>
  <unicode hex="00AE"/>
  <outline>
    <contour>
      <point x="727.3131313131313" y="268.0" type="curve" smooth="yes"/>
      <point x="1089.3131313131314" y="268.0"/>
      <point x="1337.3131313131314" y="518.0"/>
      <point x="1337.3131313131314" y="882.0" type="curve" smooth="yes"/>
      <point x="1337.3131313131314" y="1246.0"/>
      <point x="1089.3131313131314" y="1498.0"/>
      <point x="727.3131313131313" y="1498.0" type="curve" smooth="yes"/>
      <point x="365.31313131313135" y="1498.0"/>
      <point x="117.31313131313135" y="1246.0"/>
      <point x="117.31313131313135" y="882.0" type="curve" smooth="yes"/>
      <point x="117.31313131313135" y="518.0"/>
      <point x="365.31313131313135" y="268.0"/>
    </contour>
    <contour>
      <point x="843.4949494949495" y="600.0" type="line"/>
      <point x="1010.5050505050506" y="600.0" type="line"/>
      <point x="855.1111111111111" y="825.6565656565657" type="line"/>
      <point x="705.8181818181819" y="799.6565656565657" type="line"/>
    </contour>
    <contour>
      <point x="727.3131313131313" y="411.27272727272725" type="curve" smooth="yes"/>
      <point x="450.82828282828285" y="411.27272727272725"/>
      <point x="271.17171717171715" y="596.3636363636364"/>
      <point x="271.17171717171715" y="882.0" type="curve" smooth="yes"/>
      <point x="271.17171717171715" y="1169.3535353535353"/>
      <point x="450.82828282828285" y="1354.7272727272727"/>
      <point x="727.3131313131313" y="1354.7272727272727" type="curve" smooth="yes"/>
      <point x="1003.7979797979799" y="1354.7272727272727"/>
      <point x="1183.4545454545455" y="1169.3535353535353"/>
      <point x="1183.4545454545455" y="882.0" type="curve" smooth="yes"/>
      <point x="1183.4545454545455" y="596.3636363636364"/>
      <point x="1003.7979797979799" y="411.27272727272725"/>
    </contour>
    <contour>
      <point x="507.29292929292933" y="600.0" type="line"/>
      <point x="659.1515151515151" y="600.0" type="line"/>
      <point x="664.3030303030303" y="791.6565656565657" type="line"/>
      <point x="718.4646464646465" y="791.6565656565657" type="line" smooth="yes"/>
      <point x="895.9191919191919" y="791.6565656565657"/>
      <point x="979.6363636363636" y="855.939393939394"/>
      <point x="979.6363636363636" y="990.8282828282828" type="curve" smooth="yes"/>
      <point x="979.6363636363636" y="1125.7171717171718"/>
      <point x="893.9191919191919" y="1192.0"/>
      <point x="718.4646464646465" y="1192.0" type="curve" smooth="yes"/>
      <point x="507.29292929292933" y="1192.0" type="line"/>
    </contour>
    <contour>
      <point x="664.3030303030303" y="913.7575757575758" type="line"/>
      <point x="664.3030303030303" y="1069.8989898989898" type="line"/>
      <point x="742.4848484848485" y="1069.8989898989898" type="line" smooth="yes"/>
      <point x="799.5353535353536" y="1069.8989898989898"/>
      <point x="831.2121212121212" y="1043.6363636363637"/>
      <point x="831.2121212121212" y="990.8282828282828" type="curve" smooth="yes"/>
      <point x="831.2121212121212" y="938.020202020202"/>
      <point x="801.5353535353536" y="913.7575757575758"/>
      <point x="742.4848484848485" y="913.7575757575758" type="curve" smooth="yes"/>
    </contour>
  </outline>
</glyph>
<glyph name="macron" format="2">
  <advance width="1200.0"/>
  <unicode hex="00AF"/>
  <anchor x="600.0" y="1200.0" name="_top"/>
  <anchor x="600.0" y="1607.5151515151515" name="top"/>
  <outline>
    <contour>
      <point x="198.14141414141417" y="1308.141414141414" type="line"/>
      <point x="1001.8585858585858" y="1308.141414141414" type="line"/>
      <point x="1001.8585858585858" y="1531.2727272727273" type="line"/>
      <point x="198.14141414141417" y="1531.2727272727273" type="line"/>
    </contour>
  </outline>
</glyph>
<glyph name="degree" format="2">
  <advance width="1028.5252525252524"/>
  <unicode hex="00B0"/>
  <outline>
    <contour>
      <point x="514.2626262626262" y="717.5555555555557" type="curve" smooth="yes"/>
      <point x="743.4545454545455" y="717.5555555555557"/>
      <point x="911.2121212121212" y="882.1616161616162"/>
      <point x="911.2121212121212" y="1109.3535353535353" type="curve" smooth="yes"/>
      <point x="911.2121212121212" y="1336.5454545454545"/>
      <point x="743.4545454545455" y="1499.4343434343434"/>
      <point x="514.2626262626262" y="1499.4343434343434" type="curve" smooth="yes"/>
      <point x="285.0707070707071" y="1499.4343434343434"/>
      <point x="117.31313131313135" y="1336.5454545454545"/>
      <point x="117.31313131313135" y="1109.3535353535353" type="curve" smooth="yes"/>
      <point x="117.31313131313135" y="882.1616161616162"/>
      <point x="285.0707070707071" y="717.5555555555557"/>
    </contour>
    <contour>
      <point x="514.2626262626262" y="939.5353535353535" type="curve" smooth="yes"/>
      <point x="422.66666666666663" y="939.5353535353535"/>
      <point x="353.3131313131313" y="1004.6060606060606"/>
      <point x="353.3131313131313" y="1109.3535353535353" type="curve" smooth="yes"/>
      <point x="353.3131313131313" y="1215.818181818182"/>
      <point x="424.38383838383834" y="1277.4545454545455"/>
      <point x="514.2626262626262" y="1277.4545454545455" type="curve" smooth="yes"/>
      <point x="604.1414141414142" y="1277.4545454545455"/>
      <point x="675.2121212121212" y="1215.818181818182"/>
      <point x="675.2121212121212" y="1109.3535353535353" type="curve" smooth="yes"/>
      <point x="675.2121212121212" y="1004.6060606060606"/>
      <point x="605.8585858585859" y="939.5353535353535"/>
    </contour>
  </outline>
</glyph>
<glyph name="plusminus" format="2">
  <advance width="1183.5555555555554"/>
  <unicode hex="00B1"/>
  <outline>
    <contour>
      <point x="434.1414141414142" y="396.70707070707067" type="line"/>
      <point x="749.4141414141413" y="396.70707070707067" type="line"/>
      <point x="749.4141414141413" y="669.4343434343434" type="line"/>
      <point x="1058.8080808080808" y="669.4343434343434" type="line"/>
      <point x="1058.8080808080808" y="970.4040404040403" type="line"/>
      <point x="749.4141414141413" y="970.4040404040403" type="line"/>
      <point x="749.4141414141413" y="1243.1313131313132" type="line"/>
      <point x="434.1414141414142" y="1243.1313131313132" type="line"/>
      <point x="434.1414141414142" y="970.4040404040403" type="line"/>
      <point x="124.74747474747477" y="970.4040404040403" type="line"/>
      <point x="124.74747474747477" y="669.4343434343434" type="line"/>
      <point x="434.1414141414142" y="669.4343434343434" type="line"/>
    </contour>
    <contour>
      <point x="124.74747474747477" y="0.0" type="line"/>
      <point x="1058.8080808080808" y="0.0" type="line"/>
      <point x="1058.8080808080808" y="300.9696969696969" type="line"/>
      <point x="124.74747474747477" y="300.9696969696969" type="line"/>
    </contour>
  </outline>
</glyph>
<glyph name="acute" format="2">
  <advance width="1200.0"/>
  <unicode hex="00B4"/>
  <anchor x="600.0" y="1200.0" name="_top"/>
  <anchor x="600.0" y="1641.858585858586" name="top"/>
  <outline>
    <contour>
      <point x="406.0202020202021" y="1226.2222222222222" type="line"/>
      <point x="793.9797979797979" y="1226.2222222222222" type="line"/>
      <point x="1113.4747474747473" y="1616.0" type="line"/>
      <point x="665.4343434343435" y="1616.0" type="line"/>
    </contour>
  </outline>
</glyph>
<glyph name="paragraph" format="2">
  <advance width="1497.7373737373737"/>
  <unicode hex="00B6"/>
  <outline>
    <contour>
      <point x="643.1111111111112" y="0.0" type="line"/>
      <point x="925.7575757575758" y="0.0" type="line"/>
      <point x="925.7575757575758" y="1480.0" type="line"/>
      <point x="820.0202020202021" y="1493.1515151515152"/>
      <point x="708.3030303030303" y="1499.1515151515152"/>
      <point x="596.020202020202" y="1499.1515151515152" type="curve" smooth="yes"/>
      <point x="247.0909090909091" y="1499.1515151515152"/>
      <point x="81.95959595959597" y="1332.2626262626263"/>
      <point x="81.95959595959597" y="953.3333333333334" type="curve" smooth="yes"/>
      <point x="81.95959595959597" y="591.2525252525253"/>
      <point x="240.82828282828282" y="406.38383838383845"/>
      <point x="554.1616161616162" y="406.38383838383845" type="curve" smooth="yes"/>
      <point x="585.5151515151516" y="406.38383838383845"/>
      <point x="614.8888888888889" y="408.66666666666674"/>
      <point x="643.1111111111112" y="410.08080808080814" type="curve"/>
    </contour>
    <contour>
      <point x="1072.9292929292928" y="0.0" type="line"/>
      <point x="1355.5757575757575" y="0.0" type="line"/>
      <point x="1355.5757575757575" y="1480.0" type="line"/>
      <point x="1072.9292929292928" y="1480.0" type="line"/>
    </contour>
  </outline>
</glyph>
<glyph name="periodcentered" format="2">
  <advance width="661.4949494949494"/>
  <unicode hex="00B7"/>
  <anchor x="330.7474747474747" y="560.0" name="_periodcentered"/>
  <outline>
    <contour>
      <point x="330.7474747474747" y="331.15151515151524" type="curve" smooth="yes"/>
      <point x="492.10101010101" y="331.15151515151524"/>
      <point x="588.5050505050503" y="422.1212121212122"/>
      <point x="588.5050505050503" y="559.7171717171717" type="curve" smooth="yes"/>
      <point x="588.5050505050503" y="697.3131313131313"/>
      <point x="495.5353535353534" y="788.5656565656565"/>
      <point x="330.7474747474747" y="788.5656565656565" type="curve" smooth="yes"/>
      <point x="165.95959595959596" y="788.5656565656565"/>
      <point x="72.98989898989902" y="700.7474747474747"/>
      <point x="72.98989898989902" y="559.7171717171717" type="curve" smooth="yes"/>
      <point x="72.98989898989902" y="418.6868686868687"/>
      <point x="169.3939393939394" y="331.15151515151524"/>
    </contour>
  </outline>
</glyph>
<glyph name="cedilla" format="2">
  <advance width="1200.0"/>
  <unicode hex="00B8"/>
  <anchor x="600.0" y="0.0" name="_bottom"/>
  <outline>
    <contour>
      <point x="596.8282828282828" y="-451.5151515151515" type="curve" smooth="yes"/>
      <point x="781.5151515151515" y="-451.5151515151515"/>
      <point x="878.989898989899" y="-380.9090909090909"/>
      <point x="878.989898989899" y="-264.5858585858586" type="curve" smooth="yes"/>
      <point x="878.989898989899" y="-148.26262626262627"/>
      <point x="798.6868686868687" y="-72.50505050505052"/>
      <point x="617.4343434343434" y="-72.50505050505052" type="curve"/>
      <point x="702.1212121212121" y="-124.82828282828284" type="line"/>
      <point x="702.1212121212121" y="20.0" type="line"/>
      <point x="520.7676767676768" y="20.0" type="line"/>
      <point x="520.7676767676768" y="-181.17171717171718" type="line"/>
      <point x="579.3737373737374" y="-181.17171717171718" type="line" smooth="yes"/>
      <point x="643.3333333333334" y="-181.17171717171718"/>
      <point x="678.7474747474748" y="-198.86868686868686"/>
      <point x="678.7474747474748" y="-245.6969696969697" type="curve" smooth="yes"/>
      <point x="678.7474747474748" y="-292.52525252525254"/>
      <point x="643.3333333333334" y="-310.22222222222223"/>
      <point x="577.9393939393939" y="-310.22222222222223" type="curve" smooth="yes"/>
      <point x="525.0909090909091" y="-310.22222222222223"/>
      <point x="446.2020202020202" y="-299.93939393939394"/>
      <point x="392.50505050505046" y="-278.24242424242425" type="curve"/>
      <point x="392.50505050505046" y="-418.38383838383834" type="line"/>
      <point x="448.80808080808083" y="-439.2323232323232"/>
      <point x="521.0909090909091" y="-451.5151515151515"/>
    </contour>
  </outline>
</glyph>
<glyph name="onesuperior" format="2">
  <advance width="957.090909090909"/>
  <unicode hex="00B9"/>
  <outline>
    <contour>
      <point x="367.0505050505051" y="-98.82828282828284" type="line"/>
      <point x="692.060606060606" y="-98.82828282828284" type="line"/>
      <point x="692.060606060606" y="868.0" type="line"/>
      <point x="472.9090909090909" y="868.0" type="line"/>
      <point x="129.11111111111111" y="654.2828282828283" type="line"/>
      <point x="129.11111111111111" y="386.2424242424243" type="line"/>
      <point x="472.9090909090909" y="599.9595959595961" type="line"/>
      <point x="367.0505050505051" y="708.4040404040404" type="line"/>
    </contour>
    <contour>
      <point x="129.11111111111111" y="-136.0" type="line"/>
      <point x="916.0" y="-136.0" type="line"/>
      <point x="916.0" y="108.02020202020194" type="line"/>
      <point x="129.11111111111111" y="108.02020202020194" type="line"/>
    </contour>
  </outline>
</glyph>
<glyph name="ordmasculine" format="2">
  <advance width="1196.8282828282827"/>
  <unicode hex="00BA"/>
  <outline>
    <contour>
      <point x="597.5555555555555" y="592.5656565656566" type="curve" smooth="yes"/>
      <point x="950.6060606060605" y="592.5656565656566"/>
      <point x="1152.949494949495" y="772.060606060606"/>
      <point x="1152.949494949495" y="1049.4343434343434" type="curve" smooth="yes"/>
      <point x="1152.949494949495" y="1326.8080808080808"/>
      <point x="950.6060606060605" y="1500.5858585858587"/>
      <point x="597.5555555555555" y="1500.5858585858587" type="curve" smooth="yes"/>
      <point x="244.50505050505052" y="1500.5858585858587"/>
      <point x="43.878787878787904" y="1326.8080808080808"/>
      <point x="43.878787878787904" y="1049.4343434343434" type="curve" smooth="yes"/>
      <point x="43.878787878787904" y="772.060606060606"/>
      <point x="244.50505050505052" y="592.5656565656566"/>
    </contour>
    <contour>
      <point x="597.5555555555555" y="871.2121212121211" type="curve" smooth="yes"/>
      <point x="487.99999999999994" y="871.2121212121211"/>
      <point x="419.2525252525252" y="933.131313131313"/>
      <point x="419.2525252525252" y="1049.4343434343434" type="curve" smooth="yes"/>
      <point x="419.2525252525252" y="1165.7373737373737"/>
      <point x="487.99999999999994" y="1221.939393939394"/>
      <point x="597.5555555555555" y="1221.939393939394" type="curve" smooth="yes"/>
      <point x="710.5454545454545" y="1221.939393939394"/>
      <point x="777.5757575757576" y="1165.7373737373737"/>
      <point x="777.5757575757576" y="1049.4343434343434" type="curve" smooth="yes"/>
      <point x="777.5757575757576" y="933.131313131313"/>
      <point x="710.5454545454545" y="871.2121212121211"/>
    </contour>
  </outline>
</glyph>
<glyph name="guillemetright" format="2">
  <advance width="1487.010101010101"/>
  <unicode hex="00BB"/>
  <outline>
    <contour>
      <point x="42.46464646464649" y="131.41414141414143" type="line"/>
      <point x="465.8989898989898" y="131.41414141414143" type="line"/>
      <point x="767.5757575757575" y="568.5858585858585" type="line"/>
      <point x="465.8989898989898" y="1005.7575757575758" type="line"/>
      <point x="42.46464646464649" y="1005.7575757575758" type="line"/>
      <point x="344.1414141414142" y="568.5858585858585" type="line"/>
    </contour>
    <contour>
      <point x="679.4343434343434" y="131.41414141414143" type="line"/>
      <point x="1102.8686868686866" y="131.41414141414143" type="line"/>
      <point x="1404.5454545454545" y="568.5858585858585" type="line"/>
      <point x="1102.8686868686866" y="1005.7575757575758" type="line"/>
      <point x="679.4343434343434" y="1005.7575757575758" type="line"/>
      <point x="981.1111111111111" y="568.5858585858585" type="line"/>
    </contour>
  </outline>
</glyph>
<glyph name="onequarter" format="2">
  <advance width="2394.262626262626"/>
  <unicode hex="00BC"/>
  <outline>
    <contour>
      <point x="367.0505050505051" y="653.1717171717172" type="line"/>
      <point x="692.060606060606" y="653.1717171717172" type="line"/>
      <point x="692.060606060606" y="1620.0" type="line"/>
      <point x="472.9090909090909" y="1620.0" type="line"/>
      <point x="129.11111111111111" y="1406.2828282828282" type="line"/>
      <point x="129.11111111111111" y="1138.2424242424242" type="line"/>
      <point x="472.9090909090909" y="1351.959595959596" type="line"/>
      <point x="367.0505050505051" y="1460.4040404040404" type="line"/>
    </contour>
    <contour>
      <point x="129.11111111111111" y="616.0" type="line"/>
      <point x="916.0" y="616.0" type="line"/>
      <point x="916.0" y="860.020202020202" type="line"/>
      <point x="129.11111111111111" y="860.020202020202" type="line"/>
    </contour>
    <contour>
      <point x="584.1616161616162" y="-136.0" type="line"/>
      <point x="921.4747474747473" y="-136.0" type="line"/>
      <point x="1810.1010101010102" y="1616.0" type="line"/>
      <point x="1472.7878787878788" y="1616.0" type="line"/>
    </contour>
    <contour>
      <point x="1458.8686868686868" y="38.72727272727276" type="line"/>
      <point x="2373.6969696969695" y="38.72727272727276" type="line"/>
      <point x="2373.6969696969695" y="277.3131313131313" type="line"/>
      <point x="1734.383838383838" y="277.3131313131313" type="line"/>
      <point x="1751.8181818181815" y="203.7979797979798" type="line"/>
      <point x="2060.181818181818" y="864.0" type="line"/>
      <point x="1767.232323232323" y="864.0" type="line"/>
      <point x="1458.8686868686868" y="204.08080808080805" type="line"/>
    </contour>
    <contour>
      <point x="1961.090909090909" y="-136.0" type="line"/>
      <point x="2244.6060606060605" y="-136.0" type="line"/>
      <point x="2244.6060606060605" y="526.0" type="line"/>
      <point x="2005.7171717171716" y="526.0" type="line"/>
      <point x="1961.090909090909" y="277.3131313131313" type="line"/>
    </contour>
  </outline>
</glyph>
<glyph name="onehalf" format="2">
  <advance width="2394.262626262626"/>
  <unicode hex="00BD"/>
  <outline>
    <contour>
      <point x="367.0505050505051" y="653.1717171717172" type="line"/>
      <point x="692.060606060606" y="653.1717171717172" type="line"/>
      <point x="692.060606060606" y="1620.0" type="line"/>
      <point x="472.9090909090909" y="1620.0" type="line"/>
      <point x="129.11111111111111" y="1406.2828282828282" type="line"/>
      <point x="129.11111111111111" y="1138.2424242424242" type="line"/>
      <point x="472.9090909090909" y="1351.959595959596" type="line"/>
      <point x="367.0505050505051" y="1460.4040404040404" type="line"/>
    </contour>
    <contour>
      <point x="129.11111111111111" y="616.0" type="line"/>
      <point x="916.0" y="616.0" type="line"/>
      <point x="916.0" y="860.020202020202" type="line"/>
      <point x="129.11111111111111" y="860.020202020202" type="line"/>
    </contour>
    <contour>
      <point x="584.1616161616162" y="-136.0" type="line"/>
      <point x="921.4747474747473" y="-136.0" type="line"/>
      <point x="1810.1010101010102" y="1616.0" type="line"/>
      <point x="1472.7878787878788" y="1616.0" type="line"/>
    </contour>
    <contour>
      <point x="1509.131313131313" y="-136.0" type="line"/>
      <point x="2323.9797979797977" y="-136.0" type="line"/>
      <point x="2323.9797979797977" y="108.02020202020194" type="line"/>
      <point x="1878.2020202020199" y="108.02020202020194" type="line"/>
      <point x="1865.3131313131312" y="27.636363636363583" type="line"/>
      <point x="2109.7777777777774" y="264.6060606060606" type="line" smooth="yes"/>
      <point x="2226.020202020202" y="377.95959595959596"/>
      <point x="2276.30303030303" y="469.67676767676767"/>
      <point x="2276.30303030303" y="575.6565656565657" type="curve" smooth="yes"/>
      <point x="2276.30303030303" y="778.2626262626263"/>
      <point x="2132.545454545454" y="877.7171717171717"/>
      <point x="1812.6464646464644" y="877.7171717171717" type="curve" smooth="yes"/>
      <point x="1698.6262626262624" y="877.7171717171717"/>
      <point x="1580.8686868686868" y="863.7171717171717"/>
      <point x="1497.1313131313132" y="837.7171717171717" type="curve"/>
      <point x="1497.1313131313132" y="593.4141414141416" type="line"/>
      <point x="1563.3939393939393" y="616.2626262626263"/>
      <point x="1670.0" y="638.848484848485"/>
      <point x="1769.4343434343432" y="638.848484848485" type="curve" smooth="yes"/>
      <point x="1912.5252525252524" y="638.848484848485"/>
      <point x="1957.878787878788" y="605.4747474747476"/>
      <point x="1957.878787878788" y="538.7474747474748" type="curve" smooth="yes"/>
      <point x="1957.878787878788" y="491.1111111111111"/>
      <point x="1925.3333333333333" y="442.88888888888886"/>
      <point x="1840.262626262626" y="357.55555555555554" type="curve" smooth="yes"/>
      <point x="1509.131313131313" y="23.919191919191874" type="line"/>
    </contour>
  </outline>
</glyph>
<glyph name="questiondown" format="2">
  <advance width="1153.7777777777778"/>
  <unicode hex="00BF"/>
  <outline>
    <contour>
      <point x="746.6464646464646" y="597.979797979798" type="line"/>
      <point x="501.17171717171715" y="597.979797979798" type="line"/>
      <point x="475.7171717171717" y="436.6262626262626" type="line"/>
      <point x="217.5151515151515" y="371.27272727272725"/>
      <point x="61.131313131313135" y="243.55555555555554"/>
      <point x="61.131313131313135" y="22.96969696969694" type="curve" smooth="yes"/>
      <point x="61.131313131313135" y="-246.54545454545456"/>
      <point x="262.04040404040404" y="-400.0"/>
      <point x="684.5454545454545" y="-400.0" type="curve" smooth="yes"/>
      <point x="828.2828282828282" y="-400.0"/>
      <point x="1001.7979797979797" y="-375.1313131313131"/>
      <point x="1110.9292929292928" y="-340.8484848484849" type="curve"/>
      <point x="1110.9292929292928" y="-30.727272727272833" type="line"/>
      <point x="995.2323232323231" y="-69.0101010101011"/>
      <point x="850.9090909090908" y="-91.87878787878799"/>
      <point x="726.0404040404039" y="-91.87878787878799" type="curve" smooth="yes"/>
      <point x="535.8585858585857" y="-91.87878787878799"/>
      <point x="459.111111111111" y="-38.262626262626355"/>
      <point x="459.111111111111" y="49.01010101010098" type="curve" smooth="yes"/>
      <point x="459.111111111111" y="132.54545454545456"/>
      <point x="535.0707070707069" y="204.4848484848485"/>
      <point x="817.030303030303" y="240.94949494949498" type="curve"/>
    </contour>
    <contour>
      <point x="623.0505050505051" y="1115.7575757575758" type="curve" smooth="yes"/>
      <point x="461.41414141414145" y="1115.7575757575758"/>
      <point x="365.29292929292933" y="1031.3737373737374"/>
      <point x="365.29292929292933" y="904.3636363636364" type="curve" smooth="yes"/>
      <point x="365.29292929292933" y="777.0707070707072"/>
      <point x="458.26262626262627" y="692.6868686868688"/>
      <point x="623.0505050505051" y="692.6868686868688" type="curve" smooth="yes"/>
      <point x="787.8383838383837" y="692.6868686868688"/>
      <point x="880.8080808080807" y="773.6363636363637"/>
      <point x="880.8080808080807" y="904.3636363636364" type="curve" smooth="yes"/>
      <point x="880.8080808080807" y="1034.8080808080808"/>
      <point x="784.4040404040403" y="1115.7575757575758"/>
    </contour>
  </outline>
</glyph>
<glyph name="Aacute" format="2">
  <advance width="1715.030303030303"/>
  <unicode hex="00C1"/>
  <anchor x="855.9393939393939" y="1520.0" name="_top"/>
  <anchor x="857.6565656565656" y="0.0" name="bottom"/>
  <anchor x="1694.5050505050503" y="0.0" name="ogonek"/>
  <anchor x="855.9393939393939" y="1520.0" name="top"/>
  <outline>
    <contour>
      <point x="20.525252525252537" y="0.0" type="line"/>
      <point x="425.9393939393938" y="0.0" type="line"/>
      <point x="874.5252525252524" y="1306.060606060606" type="line"/>
      <point x="836.7878787878788" y="1306.060606060606" type="line"/>
      <point x="1285.3737373737374" y="0.0" type="line"/>
      <point x="1694.5050505050503" y="0.0" type="line"/>
      <point x="1158.9494949494947" y="1480.0" type="line"/>
      <point x="556.0808080808081" y="1480.0" type="line"/>
    </contour>
    <contour>
      <point x="474.8282828282828" y="361.43434343434353" type="line"/>
      <point x="1236.7676767676767" y="361.43434343434353" type="line"/>
      <point x="1141.2121212121212" y="671.2727272727273" type="line"/>
      <point x="572.10101010101" y="671.2727272727273" type="line"/>
    </contour>
    <contour>
      <point x="667.1111111111111" y="1590.2424242424242" type="line"/>
      <point x="1037.8989898989898" y="1590.2424242424242" type="line"/>
      <point x="1304.8080808080806" y="1900.020202020202" type="line"/>
      <point x="873.6565656565657" y="1900.020202020202" type="line"/>
    </contour>
  </outline>
</glyph>
<glyph name="Acircumflex" format="2">
  <advance width="1715.030303030303"/>
  <unicode hex="00C2"/>
  <anchor x="855.9393939393939" y="1520.0" name="_top"/>
  <anchor x="857.6565656565656" y="0.0" name="bottom"/>
  <anchor x="1694.5050505050503" y="0.0" name="ogonek"/>
  <anchor x="855.9393939393939" y="1520.0" name="top"/>
  <outline>
    <contour>
      <point x="20.525252525252537" y="0.0" type="line"/>
      <point x="425.9393939393938" y="0.0" type="line"/>
      <point x="874.5252525252524" y="1306.060606060606" type="line"/>
      <point x="836.7878787878788" y="1306.060606060606" type="line"/>
      <point x="1285.3737373737374" y="0.0" type="line"/>
      <point x="1694.5050505050503" y="0.0" type="line"/>
      <point x="1158.9494949494947" y="1480.0" type="line"/>
      <point x="556.0808080808081" y="1480.0" type="line"/>
    </contour>
    <contour>
      <point x="474.8282828282828" y="361.43434343434353" type="line"/>
      <point x="1236.7676767676767" y="361.43434343434353" type="line"/>
      <point x="1141.2121212121212" y="671.2727272727273" type="line"/>
      <point x="572.10101010101" y="671.2727272727273" type="line"/>
    </contour>
    <contour>
      <point x="360.5050505050505" y="1590.2424242424242" type="line"/>
      <point x="686.0404040404039" y="1590.2424242424242" type="line"/>
      <point x="891.1111111111111" y="1789.5959595959596" type="line"/>
      <point x="820.7676767676767" y="1789.5959595959596" type="line"/>
      <point x="1025.8383838383838" y="1590.2424242424242" type="line"/>
      <point x="1351.3737373737372" y="1590.2424242424242" type="line"/>
      <point x="1026.1616161616162" y="1900.020202020202" type="line"/>
      <point x="685.7171717171717" y="1900.020202020202" type="line"/>
    </contour>
  </outline>
</glyph>
<glyph name="Atilde" format="2">
  <advance width="1715.030303030303"/>
  <unicode hex="00C3"/>
  <anchor x="855.9393939393939" y="1520.0" name="_top"/>
  <anchor x="857.6565656565656" y="0.0" name="bottom"/>
  <anchor x="1694.5050505050503" y="0.0" name="ogonek"/>
  <anchor x="855.9393939393939" y="1520.0" name="top"/>
  <outline>
    <contour>
      <point x="20.525252525252537" y="0.0" type="line"/>
      <point x="425.9393939393938" y="0.0" type="line"/>
      <point x="874.5252525252524" y="1306.060606060606" type="line"/>
      <point x="836.7878787878788" y="1306.060606060606" type="line"/>
      <point x="1285.3737373737374" y="0.0" type="line"/>
      <point x="1694.5050505050503" y="0.0" type="line"/>
      <point x="1158.9494949494947" y="1480.0" type="line"/>
      <point x="556.0808080808081" y="1480.0" type="line"/>
    </contour>
    <contour>
      <point x="474.8282828282828" y="361.43434343434353" type="line"/>
      <point x="1236.7676767676767" y="361.43434343434353" type="line"/>
      <point x="1141.2121212121212" y="671.2727272727273" type="line"/>
      <point x="572.10101010101" y="671.2727272727273" type="line"/>
    </contour>
    <contour>
      <point x="1048.5656565656564" y="1601.8383838383838" type="curve" smooth="yes"/>
      <point x="1152.6060606060605" y="1601.8383838383838"/>
      <point x="1222.3434343434342" y="1623.5555555555557"/>
      <point x="1284.6666666666665" y="1673.858585858586" type="curve"/>
      <point x="1284.6666666666665" y="1882.6666666666667" type="line"/>
      <point x="1212.6262626262626" y="1838.1010101010102"/>
      <point x="1150.3232323232323" y="1817.8181818181818"/>
      <point x="1058.8686868686868" y="1817.8181818181818" type="curve" smooth="yes"/>
      <point x="920.8080808080807" y="1817.8181818181818"/>
      <point x="818.2222222222222" y="1891.8181818181818"/>
      <point x="663.3131313131313" y="1891.8181818181818" type="curve" smooth="yes"/>
      <point x="559.2727272727273" y="1891.8181818181818"/>
      <point x="489.5353535353535" y="1868.3838383838383"/>
      <point x="427.2121212121212" y="1818.080808080808" type="curve"/>
      <point x="427.2121212121212" y="1609.2727272727273" type="line"/>
      <point x="499.25252525252523" y="1653.8383838383838"/>
      <point x="561.5555555555555" y="1674.1212121212122"/>
      <point x="653.0101010101009" y="1674.1212121212122" type="curve" smooth="yes"/>
      <point x="791.070707070707" y="1674.1212121212122"/>
      <point x="893.6565656565656" y="1601.8383838383838"/>
    </contour>
  </outline>
</glyph>
<glyph name="Adieresis" format="2">
  <advance width="1715.030303030303"/>
  <unicode hex="00C4"/>
  <anchor x="855.9393939393939" y="1520.0" name="_top"/>
  <anchor x="857.6565656565656" y="0.0" name="bottom"/>
  <anchor x="1694.5050505050503" y="0.0" name="ogonek"/>
  <anchor x="855.9393939393939" y="1520.0" name="top"/>
  <outline>
    <contour>
      <point x="20.525252525252537" y="0.0" type="line"/>
      <point x="425.9393939393938" y="0.0" type="line"/>
      <point x="874.5252525252524" y="1306.060606060606" type="line"/>
      <point x="836.7878787878788" y="1306.060606060606" type="line"/>
      <point x="1285.3737373737374" y="0.0" type="line"/>
      <point x="1694.5050505050503" y="0.0" type="line"/>
      <point x="1158.9494949494947" y="1480.0" type="line"/>
      <point x="556.0808080808081" y="1480.0" type="line"/>
    </contour>
    <contour>
      <point x="474.8282828282828" y="361.43434343434353" type="line"/>
      <point x="1236.7676767676767" y="361.43434343434353" type="line"/>
      <point x="1141.2121212121212" y="671.2727272727273" type="line"/>
      <point x="572.10101010101" y="671.2727272727273" type="line"/>
    </contour>
    <contour>
      <point x="1146.8484848484848" y="1586.969696969697" type="curve" smooth="yes"/>
      <point x="1289.3131313131312" y="1586.969696969697"/>
      <point x="1351.3737373737372" y="1648.7474747474748"/>
      <point x="1351.3737373737372" y="1750.2828282828282" type="curve" smooth="yes"/>
      <point x="1351.3737373737372" y="1851.8181818181818"/>
      <point x="1289.3131313131312" y="1913.8787878787878"/>
      <point x="1146.8484848484848" y="1913.8787878787878" type="curve" smooth="yes"/>
      <point x="1004.3838383838383" y="1913.8787878787878"/>
      <point x="942.3232323232323" y="1851.8181818181818"/>
      <point x="942.3232323232323" y="1750.2828282828282" type="curve" smooth="yes"/>
      <point x="942.3232323232323" y="1648.7474747474748"/>
      <point x="1004.3838383838383" y="1586.969696969697"/>
    </contour>
    <contour>
      <point x="565.030303030303" y="1586.969696969697" type="curve" smooth="yes"/>
      <point x="707.4949494949494" y="1586.969696969697"/>
      <point x="769.5555555555554" y="1648.7474747474748"/>
      <point x="769.5555555555554" y="1750.2828282828282" type="curve" smooth="yes"/>
      <point x="769.5555555555554" y="1851.8181818181818"/>
      <point x="707.4949494949494" y="1913.8787878787878"/>
      <point x="565.030303030303" y="1913.8787878787878" type="curve" smooth="yes"/>
      <point x="422.5656565656566" y="1913.8787878787878"/>
      <point x="360.5050505050505" y="1851.8181818181818"/>
      <point x="360.5050505050505" y="1750.2828282828282" type="curve" smooth="yes"/>
      <point x="360.5050505050505" y="1648.7474747474748"/>
      <point x="422.5656565656566" y="1586.969696969697"/>
    </contour>
  </outline>
</glyph>
<glyph name="AE" format="2">
  <advance width="2322.8888888888887"/>
  <unicode hex="00C6"/>
  <anchor x="1209.6969696969695" y="0.0" name="bottom"/>
  <anchor x="1192.7272727272725" y="1520.0" name="top"/>
  <outline>
    <contour>
      <point x="20.525252525252537" y="0.0" type="line"/>
      <point x="425.9393939393938" y="0.0" type="line"/>
      <point x="829.5959595959596" y="1170.1616161616162" type="line"/>
      <point x="1161.5555555555554" y="1170.1616161616162" type="line"/>
      <point x="1162.121212121212" y="1480.0" type="line"/>
      <point x="557.4949494949495" y="1480.0" type="line"/>
    </contour>
    <contour>
      <point x="476.2424242424242" y="361.43434343434353" type="line"/>
      <point x="1168.5454545454545" y="361.43434343434353" type="line"/>
      <point x="1168.5454545454545" y="671.2727272727273" type="line"/>
      <point x="573.5151515151515" y="671.2727272727273" type="line"/>
    </contour>
    <contour>
      <point x="1102.141414141414" y="0.0" type="line"/>
      <point x="2233.7777777777774" y="0.0" type="line"/>
      <point x="2233.7777777777774" y="309.8383838383837" type="line"/>
      <point x="1494.121212121212" y="309.8383838383837" type="line"/>
      <point x="1410.7474747474746" y="1170.1616161616162" type="line"/>
      <point x="2223.7777777777774" y="1170.1616161616162" type="line"/>
      <point x="2223.7777777777774" y="1480.0" type="line"/>
      <point x="974.7070707070707" y="1480.0" type="line"/>
    </contour>
    <contour>
      <point x="1208.6262626262626" y="600.929292929293" type="line"/>
      <point x="2118.6262626262624" y="600.929292929293" type="line"/>
      <point x="2118.6262626262624" y="910.7676767676767" type="line"/>
      <point x="1208.6262626262626" y="910.7676767676767" type="line"/>
    </contour>
  </outline>
</glyph>
<glyph name="Ccedilla" format="2">
  <advance width="1457.4545454545455"/>
  <unicode hex="00C7"/>
  <anchor x="865.8585858585859" y="0.0" name="_bottom"/>
  <anchor x="865.8585858585859" y="0.0" name="bottom"/>
  <anchor x="863.030303030303" y="1520.0" name="top"/>
  <outline>
    <contour>
      <point x="1016.3232323232323" y="-19.717171717171716" type="curve" smooth="yes"/>
      <point x="1146.8686868686868" y="-19.717171717171716"/>
      <point x="1277.7373737373737" y="-3.1515151515151496"/>
      <point x="1388.0" y="23.95959595959597" type="curve"/>
      <point x="1388.0" y="356.4040404040403" type="line"/>
      <point x="1282.9292929292928" y="331.87878787878776"/>
      <point x="1167.4949494949494" y="315.87878787878776"/>
      <point x="1042.3636363636363" y="315.87878787878776" type="curve" smooth="yes"/>
      <point x="690.1010101010099" y="315.87878787878776"/>
      <point x="529.3939393939393" y="456.6868686868686"/>
      <point x="529.3939393939393" y="740.2828282828283" type="curve" smooth="yes"/>
      <point x="529.3939393939393" y="1019.919191919192"/>
      <point x="688.4040404040403" y="1164.1212121212122"/>
      <point x="1061.5151515151515" y="1164.1212121212122" type="curve" smooth="yes"/>
      <point x="1179.4949494949494" y="1164.1212121212122"/>
      <point x="1286.888888888889" y="1152.707070707071"/>
      <point x="1388.0" y="1132.1616161616162" type="curve"/>
      <point x="1388.0" y="1464.6060606060605" type="line"/>
      <point x="1272.8686868686868" y="1488.5858585858587"/>
      <point x="1155.7171717171716" y="1499.7171717171718"/>
      <point x="1027.4545454545455" y="1499.7171717171718" type="curve" smooth="yes"/>
      <point x="414.2828282828283" y="1499.7171717171718"/>
      <point x="91.63636363636365" y="1211.8989898989898"/>
      <point x="91.63636363636365" y="736.2828282828283" type="curve" smooth="yes"/>
      <point x="91.63636363636365" y="232.66666666666663"/>
      <point x="411.11111111111114" y="-19.717171717171716"/>
    </contour>
    <contour>
      <point x="828.060606060606" y="-451.5151515151515" type="curve" smooth="yes"/>
      <point x="1027.8989898989898" y="-451.5151515151515"/>
      <point x="1130.2222222222222" y="-378.04040404040404"/>
      <point x="1130.2222222222222" y="-259.4343434343434" type="curve" smooth="yes"/>
      <point x="1130.2222222222222" y="-144.26262626262627"/>
      <point x="1045.0707070707072" y="-72.50505050505052"/>
      <point x="849.5151515151515" y="-72.50505050505052" type="curve"/>
      <point x="933.3535353535353" y="-124.82828282828284" type="line"/>
      <point x="933.3535353535353" y="20.0" type="line"/>
      <point x="752.0" y="20.0" type="line"/>
      <point x="752.0" y="-181.17171717171718" type="line"/>
      <point x="810.6060606060606" y="-181.17171717171718" type="line" smooth="yes"/>
      <point x="888.0" y="-181.17171717171718"/>
      <point x="929.9797979797979" y="-198.86868686868686"/>
      <point x="929.9797979797979" y="-247.41414141414143" type="curve" smooth="yes"/>
      <point x="929.9797979797979" y="-292.52525252525254"/>
      <point x="888.0" y="-310.22222222222223"/>
      <point x="809.1717171717172" y="-310.22222222222223" type="curve" smooth="yes"/>
      <point x="745.1717171717171" y="-310.22222222222223"/>
      <point x="669.7171717171717" y="-299.93939393939394"/>
      <point x="603.7373737373737" y="-278.24242424242425" type="curve"/>
      <point x="603.7373737373737" y="-418.38383838383834" type="line"/>
      <point x="670.3232323232323" y="-439.2323232323232"/>
      <point x="741.4545454545455" y="-451.5151515151515"/>
    </contour>
  </outline>
</glyph>
<glyph name="Egrave" format="2">
  <advance width="1467.7373737373737"/>
  <unicode hex="00C8"/>
  <anchor x="777.2525252525252" y="1520.0" name="_top"/>
  <anchor x="777.8181818181818" y="0.0" name="bottom"/>
  <anchor x="1281.4545454545455" y="0.0" name="ogonek"/>
  <anchor x="777.2525252525252" y="1520.0" name="top"/>
  <anchor x="40.84848484848485" y="1480.0" name="topleft"/>
  <outline>
    <contour>
      <point x="142.1616161616162" y="0.0" type="line"/>
      <point x="1378.6262626262626" y="0.0" type="line"/>
      <point x="1378.6262626262626" y="309.8383838383837" type="line"/>
      <point x="555.3131313131312" y="309.8383838383837" type="line"/>
      <point x="555.3131313131312" y="1170.1616161616162" type="line"/>
      <point x="1368.6262626262626" y="1170.1616161616162" type="line"/>
      <point x="1368.6262626262626" y="1480.0" type="line"/>
      <point x="142.1616161616162" y="1480.0" type="line"/>
    </contour>
    <contour>
      <point x="343.5757575757575" y="600.929292929293" type="line"/>
      <point x="1263.4747474747473" y="600.929292929293" type="line"/>
      <point x="1263.4747474747473" y="910.7676767676767" type="line"/>
      <point x="343.5757575757575" y="910.7676767676767" type="line"/>
    </contour>
    <contour>
      <point x="591.8585858585859" y="1590.2424242424242" type="line"/>
      <point x="962.6464646464646" y="1590.2424242424242" type="line"/>
      <point x="756.1010101010099" y="1900.020202020202" type="line"/>
      <point x="324.949494949495" y="1900.020202020202" type="line"/>
    </contour>
  </outline>
</glyph>
<glyph name="Eacute" format="2">
  <advance width="1467.7373737373737"/>
  <unicode hex="00C9"/>
  <anchor x="777.2525252525252" y="1520.0" name="_top"/>
  <anchor x="777.8181818181818" y="0.0" name="bottom"/>
  <anchor x="1281.4545454545455" y="0.0" name="ogonek"/>
  <anchor x="777.2525252525252" y="1520.0" name="top"/>
  <anchor x="40.84848484848485" y="1480.0" name="topleft"/>
  <outline>
    <contour>
      <point x="142.1616161616162" y="0.0" type="line"/>
      <point x="1378.6262626262626" y="0.0" type="line"/>
      <point x="1378.6262626262626" y="309.8383838383837" type="line"/>
      <point x="555.3131313131312" y="309.8383838383837" type="line"/>
      <point x="555.3131313131312" y="1170.1616161616162" type="line"/>
      <point x="1368.6262626262626" y="1170.1616161616162" type="line"/>
      <point x="1368.6262626262626" y="1480.0" type="line"/>
      <point x="142.1616161616162" y="1480.0" type="line"/>
    </contour>
    <contour>
      <point x="343.5757575757575" y="600.929292929293" type="line"/>
      <point x="1263.4747474747473" y="600.929292929293" type="line"/>
      <point x="1263.4747474747473" y="910.7676767676767" type="line"/>
      <point x="343.5757575757575" y="910.7676767676767" type="line"/>
    </contour>
    <contour>
      <point x="588.4242424242425" y="1590.2424242424242" type="line"/>
      <point x="959.2121212121211" y="1590.2424242424242" type="line"/>
      <point x="1226.121212121212" y="1900.020202020202" type="line"/>
      <point x="794.969696969697" y="1900.020202020202" type="line"/>
    </contour>
  </outline>
</glyph>
<glyph name="Edieresis" format="2">
  <advance width="1467.7373737373737"/>
  <unicode hex="00CB"/>
  <anchor x="777.2525252525252" y="1520.0" name="_top"/>
  <anchor x="777.8181818181818" y="0.0" name="bottom"/>
  <anchor x="1281.4545454545455" y="0.0" name="ogonek"/>
  <anchor x="777.2525252525252" y="1520.0" name="top"/>
  <anchor x="40.84848484848485" y="1480.0" name="topleft"/>
  <outline>
    <contour>
      <point x="142.1616161616162" y="0.0" type="line"/>
      <point x="1378.6262626262626" y="0.0" type="line"/>
      <point x="1378.6262626262626" y="309.8383838383837" type="line"/>
      <point x="555.3131313131312" y="309.8383838383837" type="line"/>
      <point x="555.3131313131312" y="1170.1616161616162" type="line"/>
      <point x="1368.6262626262626" y="1170.1616161616162" type="line"/>
      <point x="1368.6262626262626" y="1480.0" type="line"/>
      <point x="142.1616161616162" y="1480.0" type="line"/>
    </contour>
    <contour>
      <point x="343.5757575757575" y="600.929292929293" type="line"/>
      <point x="1263.4747474747473" y="600.929292929293" type="line"/>
      <point x="1263.4747474747473" y="910.7676767676767" type="line"/>
      <point x="343.5757575757575" y="910.7676767676767" type="line"/>
    </contour>
    <contour>
      <point x="1068.1616161616162" y="1586.969696969697" type="curve" smooth="yes"/>
      <point x="1210.6262626262626" y="1586.969696969697"/>
      <point x="1272.6868686868686" y="1648.7474747474748"/>
      <point x="1272.6868686868686" y="1750.2828282828282" type="curve" smooth="yes"/>
      <point x="1272.6868686868686" y="1851.8181818181818"/>
      <point x="1210.6262626262626" y="1913.8787878787878"/>
      <point x="1068.1616161616162" y="1913.8787878787878" type="curve" smooth="yes"/>
      <point x="925.6969696969697" y="1913.8787878787878"/>
      <point x="863.6363636363636" y="1851.8181818181818"/>
      <point x="863.6363636363636" y="1750.2828282828282" type="curve" smooth="yes"/>
      <point x="863.6363636363636" y="1648.7474747474748"/>
      <point x="925.6969696969697" y="1586.969696969697"/>
    </contour>
    <contour>
      <point x="486.3434343434343" y="1586.969696969697" type="curve" smooth="yes"/>
      <point x="628.8080808080807" y="1586.969696969697"/>
      <point x="690.8686868686868" y="1648.7474747474748"/>
      <point x="690.8686868686868" y="1750.2828282828282" type="curve" smooth="yes"/>
      <point x="690.8686868686868" y="1851.8181818181818"/>
      <point x="628.8080808080807" y="1913.8787878787878"/>
      <point x="486.3434343434343" y="1913.8787878787878" type="curve" smooth="yes"/>
      <point x="343.87878787878793" y="1913.8787878787878"/>
      <point x="281.81818181818187" y="1851.8181818181818"/>
      <point x="281.81818181818187" y="1750.2828282828282" type="curve" smooth="yes"/>
      <point x="281.81818181818187" y="1648.7474747474748"/>
      <point x="343.87878787878793" y="1586.969696969697"/>
    </contour>
  </outline>
</glyph>
<glyph name="Igrave" format="2">
  <advance width="702.6262626262626"/>
  <unicode hex="00CC"/>
  <anchor x="351.3131313131313" y="1520.0" name="_top"/>
  <anchor x="349.5959595959596" y="0.0" name="bottom"/>
  <anchor x="560.4646464646464" y="0.0" name="ogonek"/>
  <anchor x="351.3131313131313" y="1520.0" name="top"/>
  <outline>
    <contour>
      <point x="142.1616161616162" y="0.0" type="line"/>
      <point x="560.4646464646464" y="0.0" type="line"/>
      <point x="560.4646464646464" y="1480.0" type="line"/>
      <point x="142.1616161616162" y="1480.0" type="line"/>
    </contour>
    <contour>
      <point x="165.91919191919195" y="1590.2424242424242" type="line"/>
      <point x="536.7070707070707" y="1590.2424242424242" type="line"/>
      <point x="330.16161616161605" y="1900.020202020202" type="line"/>
      <point x="-100.98989898989896" y="1900.020202020202" type="line"/>
    </contour>
  </outline>
</glyph>
<glyph name="Iacute" format="2">
  <advance width="702.6262626262626"/>
  <unicode hex="00CD"/>
  <anchor x="351.3131313131313" y="1520.0" name="_top"/>
  <anchor x="349.5959595959596" y="0.0" name="bottom"/>
  <anchor x="560.4646464646464" y="0.0" name="ogonek"/>
  <anchor x="351.3131313131313" y="1520.0" name="top"/>
  <outline>
    <contour>
      <point x="142.1616161616162" y="0.0" type="line"/>
      <point x="560.4646464646464" y="0.0" type="line"/>
      <point x="560.4646464646464" y="1480.0" type="line"/>
      <point x="142.1616161616162" y="1480.0" type="line"/>
    </contour>
    <contour>
      <point x="162.4848484848485" y="1590.2424242424242" type="line"/>
      <point x="533.2727272727273" y="1590.2424242424242" type="line"/>
      <point x="800.181818181818" y="1900.020202020202" type="line"/>
      <point x="369.03030303030306" y="1900.020202020202" type="line"/>
    </contour>
  </outline>
</glyph>
<glyph name="Icircumflex" format="2">
  <advance width="702.6262626262626"/>
  <unicode hex="00CE"/>
  <anchor x="351.3131313131313" y="1520.0" name="_top"/>
  <anchor x="349.5959595959596" y="0.0" name="bottom"/>
  <anchor x="560.4646464646464" y="0.0" name="ogonek"/>
  <anchor x="351.3131313131313" y="1520.0" name="top"/>
  <outline>
    <contour>
      <point x="142.1616161616162" y="0.0" type="line"/>
      <point x="560.4646464646464" y="0.0" type="line"/>
      <point x="560.4646464646464" y="1480.0" type="line"/>
      <point x="142.1616161616162" y="1480.0" type="line"/>
    </contour>
    <contour>
      <point x="-144.1212121212121" y="1590.2424242424242" type="line"/>
      <point x="181.41414141414137" y="1590.2424242424242" type="line"/>
      <point x="386.48484848484844" y="1789.5959595959596" type="line"/>
      <point x="316.1414141414141" y="1789.5959595959596" type="line"/>
      <point x="521.2121212121212" y="1590.2424242424242" type="line"/>
      <point x="846.7474747474746" y="1590.2424242424242" type="line"/>
      <point x="521.5353535353535" y="1900.020202020202" type="line"/>
      <point x="181.0909090909091" y="1900.020202020202" type="line"/>
    </contour>
  </outline>
</glyph>
<glyph name="Idieresis" format="2">
  <advance width="702.6262626262626"/>
  <unicode hex="00CF"/>
  <anchor x="351.3131313131313" y="1520.0" name="_top"/>
  <anchor x="349.5959595959596" y="0.0" name="bottom"/>
  <anchor x="560.4646464646464" y="0.0" name="ogonek"/>
  <anchor x="351.3131313131313" y="1520.0" name="top"/>
  <outline>
    <contour>
      <point x="142.1616161616162" y="0.0" type="line"/>
      <point x="560.4646464646464" y="0.0" type="line"/>
      <point x="560.4646464646464" y="1480.0" type="line"/>
      <point x="142.1616161616162" y="1480.0" type="line"/>
    </contour>
    <contour>
      <point x="642.2222222222222" y="1586.969696969697" type="curve" smooth="yes"/>
      <point x="784.6868686868686" y="1586.969696969697"/>
      <point x="846.7474747474746" y="1648.7474747474748"/>
      <point x="846.7474747474746" y="1750.2828282828282" type="curve" smooth="yes"/>
      <point x="846.7474747474746" y="1851.8181818181818"/>
      <point x="784.6868686868686" y="1913.8787878787878"/>
      <point x="642.2222222222222" y="1913.8787878787878" type="curve" smooth="yes"/>
      <point x="499.75757575757575" y="1913.8787878787878"/>
      <point x="437.6969696969697" y="1851.8181818181818"/>
      <point x="437.6969696969697" y="1750.2828282828282" type="curve" smooth="yes"/>
      <point x="437.6969696969697" y="1648.7474747474748"/>
      <point x="499.75757575757575" y="1586.969696969697"/>
    </contour>
    <contour>
      <point x="60.40404040404037" y="1586.969696969697" type="curve" smooth="yes"/>
      <point x="202.86868686868678" y="1586.969696969697"/>
      <point x="264.92929292929284" y="1648.7474747474748"/>
      <point x="264.92929292929284" y="1750.2828282828282" type="curve" smooth="yes"/>
      <point x="264.92929292929284" y="1851.8181818181818"/>
      <point x="202.86868686868678" y="1913.8787878787878"/>
      <point x="60.40404040404037" y="1913.8787878787878" type="curve" smooth="yes"/>
      <point x="-82.06060606060605" y="1913.8787878787878"/>
      <point x="-144.1212121212121" y="1851.8181818181818"/>
      <point x="-144.1212121212121" y="1750.2828282828282" type="curve" smooth="yes"/>
      <point x="-144.1212121212121" y="1648.7474747474748"/>
      <point x="-82.06060606060605" y="1586.969696969697"/>
    </contour>
  </outline>
</glyph>
<glyph name="Eth" format="2">
  <advance width="1761.8181818181818"/>
  <unicode hex="00D0"/>
  <anchor x="142.1616161616162" y="762.0" name="_stroke"/>
  <anchor x="781.5555555555555" y="0.0" name="bottom"/>
  <anchor x="868.7474747474747" y="740.0" name="center"/>
  <anchor x="142.1616161616162" y="762.0" name="stroke"/>
  <anchor x="764.3838383838383" y="1520.0" name="top"/>
  <outline>
    <contour>
      <point x="627.7575757575758" y="-13.434343434343432" type="curve" smooth="yes"/>
      <point x="1328.3434343434342" y="-13.434343434343432"/>
      <point x="1670.181818181818" y="203.65656565656568"/>
      <point x="1670.181818181818" y="740.0" type="curve" smooth="yes"/>
      <point x="1670.181818181818" y="1255.7373737373737"/>
      <point x="1343.7979797979797" y="1494.0"/>
      <point x="722.4646464646464" y="1494.0" type="curve" smooth="yes"/>
      <point x="533.4949494949494" y="1494.0"/>
      <point x="300.2020202020202" y="1471.6969696969697"/>
      <point x="142.1616161616162" y="1435.111111111111" type="curve"/>
      <point x="142.1616161616162" y="14.282828282828284" type="line"/>
      <point x="301.31313131313135" y="-5.717171717171716"/>
      <point x="490.32323232323233" y="-13.434343434343432"/>
    </contour>
    <contour>
      <point x="739.6565656565656" y="313.57575757575745" type="curve" smooth="yes"/>
      <point x="670.060606060606" y="313.57575757575745"/>
      <point x="613.8383838383837" y="314.7070707070706"/>
      <point x="560.4646464646464" y="320.121212121212" type="curve"/>
      <point x="560.4646464646464" y="1152.7272727272727" type="line"/>
      <point x="614.9292929292928" y="1162.1414141414143"/>
      <point x="686.3030303030303" y="1168.707070707071"/>
      <point x="740.5050505050505" y="1168.707070707071" type="curve" smooth="yes"/>
      <point x="1081.7171717171718" y="1168.707070707071"/>
      <point x="1244.4444444444446" y="1038.0"/>
      <point x="1244.4444444444446" y="743.4343434343434" type="curve" smooth="yes"/>
      <point x="1244.4444444444446" y="441.9999999999999"/>
      <point x="1090.3030303030303" y="313.57575757575745"/>
    </contour>
    <contour>
      <point x="8.0" y="637.5555555555555" type="line"/>
      <point x="856.2424242424242" y="637.5555555555555" type="line"/>
      <point x="856.2424242424242" y="886.4444444444445" type="line"/>
      <point x="8.0" y="886.4444444444445" type="line"/>
    </contour>
  </outline>
</glyph>
<glyph name="Ntilde" format="2">
  <advance width="1776.0"/>
  <unicode hex="00D1"/>
  <anchor x="888.1414141414141" y="1520.0" name="_top"/>
  <anchor x="888.1414141414141" y="0.0" name="bottom"/>
  <anchor x="888.1414141414141" y="1520.0" name="top"/>
  <outline>
    <contour>
      <point x="142.1616161616162" y="0.0" type="line"/>
      <point x="536.1414141414141" y="0.0" type="line"/>
      <point x="536.1414141414141" y="1002.7272727272729" type="line"/>
      <point x="468.36363636363626" y="1002.7272727272729" type="line"/>
      <point x="1214.6868686868688" y="0.0" type="line"/>
      <point x="1633.8383838383838" y="0.0" type="line"/>
      <point x="1633.8383838383838" y="1480.0" type="line"/>
      <point x="1239.858585858586" y="1480.0" type="line"/>
      <point x="1239.858585858586" y="477.27272727272714" type="line"/>
      <point x="1307.6363636363637" y="477.27272727272714" type="line"/>
      <point x="561.3131313131312" y="1480.0" type="line"/>
      <point x="142.1616161616162" y="1480.0" type="line"/>
    </contour>
    <contour>
      <point x="1080.7676767676767" y="1601.8383838383838" type="curve" smooth="yes"/>
      <point x="1184.8080808080808" y="1601.8383838383838"/>
      <point x="1254.5454545454545" y="1623.5555555555557"/>
      <point x="1316.8686868686868" y="1673.858585858586" type="curve"/>
      <point x="1316.8686868686868" y="1882.6666666666667" type="line"/>
      <point x="1244.8282828282827" y="1838.1010101010102"/>
      <point x="1182.5252525252524" y="1817.8181818181818"/>
      <point x="1091.070707070707" y="1817.8181818181818" type="curve" smooth="yes"/>
      <point x="953.0101010101009" y="1817.8181818181818"/>
      <point x="850.4242424242424" y="1891.8181818181818"/>
      <point x="695.5151515151515" y="1891.8181818181818" type="curve" smooth="yes"/>
      <point x="591.4747474747475" y="1891.8181818181818"/>
      <point x="521.7373737373737" y="1868.3838383838383"/>
      <point x="459.41414141414145" y="1818.080808080808" type="curve"/>
      <point x="459.41414141414145" y="1609.2727272727273" type="line"/>
      <point x="531.4545454545455" y="1653.8383838383838"/>
      <point x="593.7575757575758" y="1674.1212121212122"/>
      <point x="685.2121212121212" y="1674.1212121212122" type="curve" smooth="yes"/>
      <point x="823.2727272727273" y="1674.1212121212122"/>
      <point x="925.8585858585858" y="1601.8383838383838"/>
    </contour>
  </outline>
</glyph>
<glyph name="Ograve" format="2">
  <advance width="1846.7474747474748"/>
  <unicode hex="00D2"/>
  <anchor x="923.3737373737374" y="1520.0" name="_top"/>
  <anchor x="923.3737373737374" y="0.0" name="bottom"/>
  <anchor x="923.3737373737374" y="740.0" name="center"/>
  <anchor x="1084.4848484848485" y="0.0" name="ogonek"/>
  <anchor x="923.3737373737374" y="1520.0" name="top"/>
  <anchor x="58.58585858585858" y="1480.0" name="topleft"/>
  <anchor x="1146.0202020202019" y="1480.0" name="topright"/>
  <outline>
    <contour>
      <point x="923.3737373737374" y="-19.717171717171716" type="curve" smooth="yes"/>
      <point x="1435.030303030303" y="-19.717171717171716"/>
      <point x="1755.1111111111109" y="264.66666666666663"/>
      <point x="1755.1111111111109" y="740.0" type="curve" smooth="yes"/>
      <point x="1755.1111111111109" y="1215.3333333333333"/>
      <point x="1437.5959595959594" y="1499.7171717171718"/>
      <point x="923.3737373737374" y="1499.7171717171718" type="curve" smooth="yes"/>
      <point x="410.0" y="1499.7171717171718"/>
      <point x="91.63636363636365" y="1218.7676767676767"/>
      <point x="91.63636363636365" y="740.0" type="curve" smooth="yes"/>
      <point x="91.63636363636365" y="261.2323232323232"/>
      <point x="410.86868686868684" y="-19.717171717171716"/>
    </contour>
    <contour>
      <point x="923.3737373737374" y="305.85858585858574" type="curve" smooth="yes"/>
      <point x="664.0808080808081" y="305.85858585858574"/>
      <point x="517.3737373737372" y="446.3434343434343"/>
      <point x="517.3737373737372" y="747.4343434343434" type="curve" smooth="yes"/>
      <point x="517.3737373737372" y="1033.6565656565658"/>
      <point x="669.2323232323231" y="1174.1414141414143"/>
      <point x="923.3737373737374" y="1174.1414141414143" type="curve" smooth="yes"/>
      <point x="1177.5151515151515" y="1174.1414141414143"/>
      <point x="1329.3737373737374" y="1028.5050505050506"/>
      <point x="1329.3737373737374" y="732.5656565656566" type="curve" smooth="yes"/>
      <point x="1329.3737373737374" y="451.4949494949494"/>
      <point x="1182.6666666666665" y="305.85858585858574"/>
    </contour>
    <contour>
      <point x="737.9797979797979" y="1590.2424242424242" type="line"/>
      <point x="1108.7676767676767" y="1590.2424242424242" type="line"/>
      <point x="902.2222222222221" y="1900.020202020202" type="line"/>
      <point x="471.0707070707071" y="1900.020202020202" type="line"/>
    </contour>
  </outline>
</glyph>
<glyph name="Otilde" format="2">
  <advance width="1846.7474747474748"/>
  <unicode hex="00D5"/>
  <anchor x="923.3737373737374" y="1520.0" name="_top"/>
  <anchor x="923.3737373737374" y="0.0" name="bottom"/>
  <anchor x="923.3737373737374" y="740.0" name="center"/>
  <anchor x="1084.4848484848485" y="0.0" name="ogonek"/>
  <anchor x="923.3737373737374" y="1520.0" name="top"/>
  <anchor x="58.58585858585858" y="1480.0" name="topleft"/>
  <anchor x="1146.0202020202019" y="1480.0" name="topright"/>
  <outline>
    <contour>
      <point x="923.3737373737374" y="-19.717171717171716" type="curve" smooth="yes"/>
      <point x="1435.030303030303" y="-19.717171717171716"/>
      <point x="1755.1111111111109" y="264.66666666666663"/>
      <point x="1755.1111111111109" y="740.0" type="curve" smooth="yes"/>
      <point x="1755.1111111111109" y="1215.3333333333333"/>
      <point x="1437.5959595959594" y="1499.7171717171718"/>
      <point x="923.3737373737374" y="1499.7171717171718" type="curve" smooth="yes"/>
      <point x="410.0" y="1499.7171717171718"/>
      <point x="91.63636363636365" y="1218.7676767676767"/>
      <point x="91.63636363636365" y="740.0" type="curve" smooth="yes"/>
      <point x="91.63636363636365" y="261.2323232323232"/>
      <point x="410.86868686868684" y="-19.717171717171716"/>
    </contour>
    <contour>
      <point x="923.3737373737374" y="305.85858585858574" type="curve" smooth="yes"/>
      <point x="664.0808080808081" y="305.85858585858574"/>
      <point x="517.3737373737372" y="446.3434343434343"/>
      <point x="517.3737373737372" y="747.4343434343434" type="curve" smooth="yes"/>
      <point x="517.3737373737372" y="1033.6565656565658"/>
      <point x="669.2323232323231" y="1174.1414141414143"/>
      <point x="923.3737373737374" y="1174.1414141414143" type="curve" smooth="yes"/>
      <point x="1177.5151515151515" y="1174.1414141414143"/>
      <point x="1329.3737373737374" y="1028.5050505050506"/>
      <point x="1329.3737373737374" y="732.5656565656566" type="curve" smooth="yes"/>
      <point x="1329.3737373737374" y="451.4949494949494"/>
      <point x="1182.6666666666665" y="305.85858585858574"/>
    </contour>
    <contour>
      <point x="1116.0" y="1601.8383838383838" type="curve" smooth="yes"/>
      <point x="1220.040404040404" y="1601.8383838383838"/>
      <point x="1289.7777777777778" y="1623.5555555555557"/>
      <point x="1352.1010101010102" y="1673.858585858586" type="curve"/>
      <point x="1352.1010101010102" y="1882.6666666666667" type="line"/>
      <point x="1280.060606060606" y="1838.1010101010102"/>
      <point x="1217.7575757575755" y="1817.8181818181818"/>
      <point x="1126.3030303030303" y="1817.8181818181818" type="curve" smooth="yes"/>
      <point x="988.2424242424241" y="1817.8181818181818"/>
      <point x="885.6565656565656" y="1891.8181818181818"/>
      <point x="730.7474747474747" y="1891.8181818181818" type="curve" smooth="yes"/>
      <point x="626.7070707070707" y="1891.8181818181818"/>
      <point x="556.969696969697" y="1868.3838383838383"/>
      <point x="494.6464646464646" y="1818.080808080808" type="curve"/>
      <point x="494.6464646464646" y="1609.2727272727273" type="line"/>
      <point x="566.6868686868686" y="1653.8383838383838"/>
      <point x="628.989898989899" y="1674.1212121212122"/>
      <point x="720.4444444444443" y="1674.1212121212122" type="curve" smooth="yes"/>
      <point x="858.5050505050503" y="1674.1212121212122"/>
      <point x="961.090909090909" y="1601.8383838383838"/>
    </contour>
  </outline>
</glyph>
<glyph name="multiply" format="2">
  <advance width="1110.4646464646464"/>
  <unicode hex="00D7"/>
  <outline>
    <contour>
      <point x="297.030303030303" y="289.51515151515156" type="line"/>
      <point x="555.2323232323232" y="547.7171717171718" type="line"/>
      <point x="813.4343434343434" y="289.51515151515156" type="line"/>
      <point x="1025.7171717171716" y="501.7979797979798" type="line"/>
      <point x="767.5151515151515" y="760.0" type="line"/>
      <point x="1025.7171717171716" y="1018.2020202020202" type="line"/>
      <point x="813.4343434343434" y="1230.4848484848485" type="line"/>
      <point x="555.2323232323232" y="972.2828282828282" type="line"/>
      <point x="297.030303030303" y="1230.4848484848485" type="line"/>
      <point x="84.74747474747477" y="1018.2020202020202" type="line"/>
      <point x="342.949494949495" y="760.0" type="line"/>
      <point x="84.74747474747477" y="501.7979797979798" type="line"/>
    </contour>
  </outline>
</glyph>
<glyph name="Ucircumflex" format="2">
  <advance width="1726.3030303030303"/>
  <unicode hex="00DB"/>
  <anchor x="866.7272727272727" y="1520.0" name="_top"/>
  <anchor x="866.7272727272727" y="0.0" name="bottom"/>
  <anchor x="1109.7373737373737" y="0.5656565656565671" name="ogonek"/>
  <anchor x="866.7272727272727" y="1520.0" name="top"/>
  <anchor x="1179.2727272727273" y="1480.0" name="topright"/>
  <outline>
    <contour>
      <point x="866.7272727272727" y="-19.717171717171716" type="curve" smooth="yes"/>
      <point x="1377.5151515151515" y="-19.717171717171716"/>
      <point x="1590.4242424242425" y="232.98989898989896"/>
      <point x="1590.4242424242425" y="675.8989898989898" type="curve" smooth="yes"/>
      <point x="1590.4242424242425" y="1480.0" type="line"/>
      <point x="1179.2727272727273" y="1480.0" type="line"/>
      <point x="1179.2727272727273" y="641.8585858585858" type="line" smooth="yes"/>
      <point x="1179.2727272727273" y="414.36363636363626"/>
      <point x="1076.2222222222222" y="312.44444444444434"/>
      <point x="866.7272727272727" y="312.44444444444434" type="curve" smooth="yes"/>
      <point x="657.2323232323231" y="312.44444444444434"/>
      <point x="554.181818181818" y="414.36363636363626"/>
      <point x="554.181818181818" y="641.8585858585858" type="curve" smooth="yes"/>
      <point x="554.181818181818" y="1480.0" type="line"/>
      <point x="135.8787878787879" y="1480.0" type="line"/>
      <point x="135.8787878787879" y="675.8989898989898" type="line" smooth="yes"/>
      <point x="135.8787878787879" y="232.98989898989896"/>
      <point x="347.3535353535354" y="-19.717171717171716"/>
    </contour>
    <contour>
      <point x="371.29292929292933" y="1590.2424242424242" type="line"/>
      <point x="696.8282828282828" y="1590.2424242424242" type="line"/>
      <point x="901.8989898989898" y="1789.5959595959596" type="line"/>
      <point x="831.5555555555555" y="1789.5959595959596" type="line"/>
      <point x="1036.6262626262626" y="1590.2424242424242" type="line"/>
      <point x="1362.1616161616162" y="1590.2424242424242" type="line"/>
      <point x="1036.949494949495" y="1900.020202020202" type="line"/>
      <point x="696.5050505050506" y="1900.020202020202" type="line"/>
    </contour>
  </outline>
</glyph>
<glyph name="Udieresis" format="2">
  <advance width="1726.3030303030303"/>
  <unicode hex="00DC"/>
  <anchor x="866.7272727272727" y="1520.0" name="_top"/>
  <anchor x="866.7272727272727" y="0.0" name="bottom"/>
  <anchor x="1109.7373737373737" y="0.5656565656565671" name="ogonek"/>
  <anchor x="866.7272727272727" y="1520.0" name="top"/>
  <anchor x="1179.2727272727273" y="1480.0" name="topright"/>
  <outline>
    <contour>
      <point x="866.7272727272727" y="-19.717171717171716" type="curve" smooth="yes"/>
      <point x="1377.5151515151515" y="-19.717171717171716"/>
      <point x="1590.4242424242425" y="232.98989898989896"/>
      <point x="1590.4242424242425" y="675.8989898989898" type="curve" smooth="yes"/>
      <point x="1590.4242424242425" y="1480.0" type="line"/>
      <point x="1179.2727272727273" y="1480.0" type="line"/>
      <point x="1179.2727272727273" y="641.8585858585858" type="line" smooth="yes"/>
      <point x="1179.2727272727273" y="414.36363636363626"/>
      <point x="1076.2222222222222" y="312.44444444444434"/>
      <point x="866.7272727272727" y="312.44444444444434" type="curve" smooth="yes"/>
      <point x="657.2323232323231" y="312.44444444444434"/>
      <point x="554.181818181818" y="414.36363636363626"/>
      <point x="554.181818181818" y="641.8585858585858" type="curve" smooth="yes"/>
      <point x="554.181818181818" y="1480.0" type="line"/>
      <point x="135.8787878787879" y="1480.0" type="line"/>
      <point x="135.8787878787879" y="675.8989898989898" type="line" smooth="yes"/>
      <point x="135.8787878787879" y="232.98989898989896"/>
      <point x="347.3535353535354" y="-19.717171717171716"/>
    </contour>
    <contour>
      <point x="1157.6363636363635" y="1586.969696969697" type="curve" smooth="yes"/>
      <point x="1300.1010101010102" y="1586.969696969697"/>
      <point x="1362.1616161616162" y="1648.7474747474748"/>
      <point x="1362.1616161616162" y="1750.2828282828282" type="curve" smooth="yes"/>
      <point x="1362.1616161616162" y="1851.8181818181818"/>
      <point x="1300.1010101010102" y="1913.8787878787878"/>
      <point x="1157.6363636363635" y="1913.8787878787878" type="curve" smooth="yes"/>
      <point x="1015.1717171717171" y="1913.8787878787878"/>
      <point x="953.1111111111111" y="1851.8181818181818"/>
      <point x="953.1111111111111" y="1750.2828282828282" type="curve" smooth="yes"/>
      <point x="953.1111111111111" y="1648.7474747474748"/>
      <point x="1015.1717171717171" y="1586.969696969697"/>
    </contour>
    <contour>
      <point x="575.8181818181818" y="1586.969696969697" type="curve" smooth="yes"/>
      <point x="718.2828282828282" y="1586.969696969697"/>
      <point x="780.3434343434342" y="1648.7474747474748"/>
      <point x="780.3434343434342" y="1750.2828282828282" type="curve" smooth="yes"/>
      <point x="780.3434343434342" y="1851.8181818181818"/>
      <point x="718.2828282828282" y="1913.8787878787878"/>
      <point x="575.8181818181818" y="1913.8787878787878" type="curve" smooth="yes"/>
      <point x="433.3535353535354" y="1913.8787878787878"/>
      <point x="371.29292929292933" y="1851.8181818181818"/>
      <point x="371.29292929292933" y="1750.2828282828282" type="curve" smooth="yes"/>
      <point x="371.29292929292933" y="1648.7474747474748"/>
      <point x="433.3535353535354" y="1586.969696969697"/>
    </contour>
  </outline>
</glyph>
<glyph name="Yacute" format="2">
  <advance width="1491.2727272727273"/>
  <unicode hex="00DD"/>
  <anchor x="743.9191919191919" y="1520.0" name="_top"/>
  <anchor x="743.9191919191919" y="0.0" name="bottom"/>
  <anchor x="743.9191919191919" y="1520.0" name="top"/>
  <anchor x="12.565656565656568" y="1480.0" name="topleft"/>
  <outline>
    <contour>
      <point x="539.9191919191919" y="0.0" type="line"/>
      <point x="958.2222222222221" y="0.0" type="line"/>
      <point x="958.2222222222221" y="766.10101010101" type="line"/>
      <point x="876.4040404040403" y="492.30303030303037" type="line"/>
      <point x="1526.7474747474746" y="1480.0" type="line"/>
      <point x="1113.050505050505" y="1480.0" type="line"/>
      <point x="696.7272727272727" y="849.9393939393939" type="line"/>
      <point x="815.7171717171716" y="849.9393939393939" type="line"/>
      <point x="389.67676767676755" y="1480.0" type="line"/>
      <point x="-53.777777777777764" y="1480.0" type="line"/>
      <point x="621.7373737373737" y="492.30303030303037" type="line"/>
      <point x="539.9191919191919" y="771.2525252525252" type="line"/>
    </contour>
    <contour>
      <point x="555.0909090909091" y="1590.2424242424242" type="line"/>
      <point x="925.8787878787878" y="1590.2424242424242" type="line"/>
      <point x="1192.7878787878785" y="1900.020202020202" type="line"/>
      <point x="761.6363636363636" y="1900.020202020202" type="line"/>
    </contour>
  </outline>
</glyph>
<glyph name="Thorn" format="2">
  <advance width="1507.7373737373737"/>
  <unicode hex="00DE"/>
  <outline>
    <contour>
      <point x="142.1616161616162" y="0.0" type="line"/>
      <point x="560.4646464646464" y="0.0" type="line"/>
      <point x="560.4646464646464" y="217.31313131313135" type="line"/>
      <point x="607.2323232323231" y="215.89898989898992"/>
      <point x="659.1919191919192" y="213.61616161616163"/>
      <point x="708.8282828282828" y="213.61616161616163" type="curve" smooth="yes"/>
      <point x="1175.979797979798" y="213.61616161616163"/>
      <point x="1415.7777777777778" y="398.4848484848485"/>
      <point x="1415.7777777777778" y="760.5656565656566" type="curve" smooth="yes"/>
      <point x="1415.7777777777778" y="1139.4949494949494"/>
      <point x="1170.8686868686868" y="1306.3838383838383"/>
      <point x="675.2525252525252" y="1306.3838383838383" type="curve" smooth="yes"/>
      <point x="634.5656565656565" y="1306.3838383838383"/>
      <point x="593.5151515151515" y="1302.969696969697"/>
      <point x="560.4646464646464" y="1300.7070707070707" type="curve"/>
      <point x="560.4646464646464" y="1480.2828282828282" type="line"/>
      <point x="142.1616161616162" y="1480.2828282828282" type="line"/>
    </contour>
    <contour>
      <point x="708.8282828282827" y="502.84848484848476" type="curve" smooth="yes"/>
      <point x="652.9090909090908" y="502.84848484848476"/>
      <point x="612.121212121212" y="505.41414141414134"/>
      <point x="560.4646464646464" y="510.5454545454545" type="curve"/>
      <point x="560.4646464646464" y="1006.3232323232323" type="line"/>
      <point x="606.6666666666665" y="1014.0202020202021"/>
      <point x="650.2828282828282" y="1017.1515151515152"/>
      <point x="706.1616161616162" y="1017.1515151515152" type="curve" smooth="yes"/>
      <point x="916.7878787878788" y="1017.1515151515152"/>
      <point x="1012.3636363636365" y="940.6666666666667"/>
      <point x="1012.3636363636365" y="760.2828282828283" type="curve" smooth="yes"/>
      <point x="1012.3636363636365" y="573.2929292929292"/>
      <point x="919.3333333333334" y="502.84848484848476"/>
    </contour>
  </outline>
</glyph>
